<?xml version="1.0" encoding="utf-8"?>
<!-- Generator: Adobe Illustrator 23.0.5, SVG Export Plug-In . SVG Version: 6.00 Build 0)  -->
<svg version="1.1" id="Camada_1" xmlns="http://www.w3.org/2000/svg" xmlns:xlink="http://www.w3.org/1999/xlink" x="0px" y="0px"
	 viewBox="0 0 378 359" style="enable-background:new 0 0 378 359;" xml:space="preserve">
<style type="text/css">
	.st0{fill:#FF0000;}
	.st1{fill:#0000FF;}
	.st2{fill:#00FF00;}
	.st3{fill:#FFFF00;}
	.st4{fill:#FF00FF;}
	.st5{fill:#00FFFF;}
	.st6{fill:#FFFFFF;}
	.st7{fill:none;stroke:#000000;stroke-width:0.5;}
	.st8{fill:none;stroke:#FFFFFF;stroke-width:0.5;}
</style>
<g>
	<path id="a" class="st0" d="M68,126.8c0-66.3,53.7-120,120-120s120,53.7,120,120H68z"/>
</g>
<g transform="rotate(120)">
	<path class="st1" d="M308,126.8c57.4,33.1,77.1,106.5,43.9,163.9S245.4,367.8,188,334.7L308,126.8z"/>
</g>
<g transform="rotate(240)">
	<path class="st2" d="M188,334.7c-57.4,33.1-130.8,13.5-163.9-43.9S10.6,160,68,126.8L188,334.7z"/>
</g>
<g>
	<path id="b" class="st3" d="M188,126.8c-37.1-21.4-82.9-21.4-120,0c0,42.9,22.9,82.5,60,103.9L188,126.8z"/>
</g>
<g transform="rotate(120)">
	<path class="st4" d="M248,230.8c37.1-21.4,60-61.1,60-103.9c-37.1-21.4-82.9-21.4-120,0L248,230.8z"/>
</g>
<g transform="rotate(240)">
	<path class="st5" d="M128,230.8c0,42.9,22.9,82.5,60,103.9c37.1-21.4,60-61.1,60-103.9L128,230.8z"/>
</g>
<g>
	<path id="c" class="st6" d="M188,126.8c37.1,21.4,60,61.1,60,103.9c-37.1,21.4-82.9,21.4-120,0C128,187.9,150.9,148.3,188,126.8z"
		/>
</g>
<path class="st7" d="M168,116.1v-80h20c11,0,20,9,20,20s-9,20-20,20h-20h20l24,40"/>
<path class="st7" d="M88,236.1c0-11-9-20-20-20s-20,9-20,20v40c0,11,9,20,20,20s20-9,20-20v-20H68"/>
<path class="st8" d="M288,296.1v-80h20c11,0,20,9,20,20s-9,20-20,20h-20h20c11,0,20,9,20,20s-9,20-20,20h-25"/>
</svg>
