<?xml version="1.0" encoding="utf-8"?>
<!-- Generator: Adobe Illustrator 23.0.5, SVG Export Plug-In . SVG Version: 6.00 Build 0)  -->
<svg version="1.1" id="Camada_1" xmlns="http://www.w3.org/2000/svg" xmlns:xlink="http://www.w3.org/1999/xlink" x="0px" y="0px"
	 viewBox="0 0 749.1 228.9" style="enable-background:new 0 0 749.1 228.9;" xml:space="preserve">
<style type="text/css">
	.st0{fill-rule:evenodd;clip-rule:evenodd;fill:#1B1918;}
	.st1{fill-rule:evenodd;clip-rule:evenodd;fill:#D49D00;}
	.st2{clip-path:url(#SVGID_2_);}
	.st3{fill-rule:evenodd;clip-rule:evenodd;fill:#AA7500;}
	.st4{fill-rule:evenodd;clip-rule:evenodd;fill:#005487;}
	.st5{fill-rule:evenodd;clip-rule:evenodd;fill:#ECEDED;}
	.st6{fill-rule:evenodd;clip-rule:evenodd;fill:#C5C7C8;}
	.st7{fill-rule:evenodd;clip-rule:evenodd;fill:#F07C00;}
	.st8{fill:url(#SVGID_3_);}
	.st9{opacity:0.5;}
	.st10{opacity:0.2;fill:url(#SVGID_4_);enable-background:new    ;}
	.st11{fill:url(#SVGID_5_);}
	.st12{fill:#FFFFFF;}
	.st13{fill:url(#SVGID_6_);}
	.st14{fill:#195600;}
	.st15{opacity:0.8;}
	.st16{fill:#754C24;}
	.st17{fill:none;stroke:#333333;stroke-width:0.1;stroke-miterlimit:10;}
	.st18{opacity:0.9;}
	.st19{fill:#8C6239;}
	.st20{opacity:0.6;}
	.st21{fill:#603813;}
	.st22{fill:#333333;}
</style>
<g id="surface1">
	<path class="st0" d="M139.5,188.2l-0.1,3.7c-0.2-0.2-0.8-0.5-1.2-0.6c-0.8-0.1-1.8-0.1-2.9-0.2c-0.5,1.2-0.4,2.2,1.5,2.9
		c0.9,0.4,1.5,1.3,1.2,2.7c-0.1,0.2-0.1,0.8,0,1c0.4,0.5,0.8,0.8,1.6,0.9c0.2,1,1,2.2,2.8,2.3c1.8,0,2.7-1,2.9-1.9
		c1.4,0,1.9-0.5,1.9-1.5c0-0.6-0.1-0.9,0-1.4c0.2-0.5,0.5-0.9,1-1.2c0.4-0.2,0.6-0.4,0.9-0.5c1.4-0.4,1.8-1.6,1.3-2.6
		c-0.5,0-2.5-0.1-2.9-0.1c-0.8,0.1-0.9,0.4-1.2,0.5v-2.5c0.1,0,0.1,0,0.1,0c7.5,1.4,13.9,0.6,18-3.3c5.7-6.8,6.7-17.9,6.9-19.5
		c0.6-4.4-4.2-7.1-9.8-8.9c0.4-2.8,4.7-8.3,6.1-11.5c-6-1.4-13.4,1.4-14.4,2.3l6.5-60.9h-6.3l0.4-4.6h1.2c0.9-0.1,1.2-0.8,1.3-1.2
		V81c0.5,0,1-0.1,1.4-0.2c0.8-0.1,1.4-0.5,1.6-1.3c0.2-0.9,0.2-2.6,0.1-3.4c-0.1-0.6-0.5-1.2-1.2-1.5c-0.5-0.2-1.2-0.4-2-0.5v-1.2
		c0-0.1-0.1-1.3-1.8-1.3c-4.3,0-8.7,0-13,0c-0.9,0.1-1.5,0.5-1.5,1.5V74c-0.9,0.1-1.6,0.2-2.3,0.5c-0.6,0.4-1.2,0.9-1.2,1.8
		c-0.1,0.9-0.1,1.8,0,2.9c0.2,0.8,0.6,1.3,1.8,1.5c0.6,0.2,1,0.2,1.6,0.4v1.3c0.1,0.6,0.6,1.2,1.3,1.2h1.2l-0.1,4.6h-16.8v-4.6h1
		c0.9-0.1,1.2-0.8,1.2-1.2V81c0.6,0,1.3-0.1,1.8-0.2c0.8-0.1,1.3-0.5,1.5-1.3c0.4-0.9,0.2-2.6,0.1-3.4c-0.1-0.6-0.5-1.2-1-1.5
		c-0.6-0.2-1.4-0.4-2.3-0.5v-1.2c0-0.1-0.1-1.3-1.8-1.3c-1.9,0-4.1,0-6.1,0c-0.1,0-0.1,0-0.2,0c-2,0-4.2,0-6.1,0
		c-1.6,0-1.8,1.2-1.8,1.3v1.2c-0.9,0.1-1.6,0.2-2.3,0.5c-0.5,0.4-0.9,0.9-1,1.5c-0.1,0.9-0.2,2.6,0.1,3.4c0.2,0.8,0.8,1.2,1.5,1.3
		c0.5,0.1,1.2,0.2,1.8,0.2v1.4c0,0.4,0.2,1,1.2,1.2h1v4.6H97l-0.1-4.6h1.2c0.6,0,1.2-0.5,1.3-1.2v-1.3c0.6-0.1,1-0.1,1.6-0.4
		c1.2-0.2,1.5-0.8,1.8-1.5c0.1-1.2,0.1-2,0-2.9c0-0.9-0.5-1.4-1.2-1.8c-0.6-0.2-1.4-0.4-2.3-0.5v-0.9c0-1-0.6-1.4-1.5-1.5
		c-4.3,0-8.7,0-13,0c-1.6,0-1.8,1.2-1.8,1.3v1.2c-0.9,0.1-1.5,0.2-2,0.5c-0.6,0.4-1,0.9-1.2,1.5c-0.1,0.9-0.1,2.6,0.1,3.4
		c0.2,0.8,0.9,1.2,1.6,1.3c0.4,0.1,0.9,0.2,1.4,0.2v1.4c0.1,0.4,0.4,1,1.3,1.2h1.2l0.4,4.6h-6.3l6.5,60.9c-1-0.9-8.4-3.7-14.4-2.3
		c1.4,3.2,5.7,8.7,6.1,11.5c-5.6,1.8-10.5,4.4-9.8,8.9c0.2,1.6,1.2,12.7,6.9,19.5c4.1,4,10.5,4.7,18,3.3c0,0,0,0,0.1,0v2.5
		c-0.2-0.1-0.4-0.4-1.2-0.5c-0.5,0-2.5,0.1-2.9,0.1c-0.5,0.9-0.1,2.2,1.3,2.6c0.2,0.1,0.5,0.2,0.9,0.5c0.5,0.2,0.8,0.6,1,1.2
		c0.1,0.5,0,0.8,0,1.4c0,1,0.5,1.5,1.9,1.5c0.2,0.9,1.2,1.9,2.9,1.9c1.8-0.1,2.6-1.3,2.8-2.3c0.9-0.1,1.3-0.4,1.6-0.9
		c0.1-0.2,0.1-0.8,0-1c-0.4-1.4,0.2-2.3,1.2-2.7c1.9-0.8,2-1.8,1.5-2.9c-1.2,0.1-2.2,0.1-2.9,0.2c-0.4,0.1-0.9,0.4-1.2,0.6l-0.1-3.7
		c6.7-1.3,10.9-1.6,16.2-1.8v3.3c0-0.2-0.2-0.5-1.2-0.8c-0.5,0-2.5,0-2.9-0.1c-0.6,0.9-0.4,2.2,0.9,2.7c0.4,0.1,0.5,0.2,1,0.5
		c0.4,0.2,0.8,0.6,0.9,1.2c0.1,0.5,0,0.8,0,1.4c-0.1,1,0.5,1.5,1.9,1.6c0,0.2,0.2,0.6,0.5,1c0.4,0.5,1.2,1,2.2,1c0.1,0,0.1,0,0.2,0
		c0.1,0,0.1,0,0.2,0c1,0,1.8-0.5,2.2-1c0.2-0.4,0.5-0.8,0.5-1c1.4-0.1,2-0.6,1.9-1.6c0-0.6-0.1-0.9,0-1.4s0.5-0.9,0.9-1.2
		c0.5-0.2,0.6-0.4,1-0.5c1.3-0.5,1.5-1.8,0.9-2.7c-0.5,0.1-2.5,0.1-2.9,0.1c-0.9,0.2-1.2,0.5-1.2,0.8v-3.3
		C128.6,186.4,132.8,186.9,139.5,188.2z M148.5,162.5l-0.6,9.4c4.7,0.6,8.7,0.9,10.8,0.5c-0.1-1.5-1.5-3.7-3.2-5
		C152.9,165.1,150,163.4,148.5,162.5z M90.9,162.5l0.6,9.4c-4.7,0.6-8.7,0.9-10.8,0.5c0.1-1.5,1.5-3.7,3.2-5
		C86.5,165.1,89.4,163.4,90.9,162.5z M99.2,165.5l0.1,5.1c4.2-0.6,8.4-1.3,13.1-1.8C107.7,168.3,103.4,167.5,99.2,165.5z
		 M140.2,165.5l-0.1,5.1c-4.2-0.6-8.4-1.3-13.1-1.8C131.6,168.3,135.8,167.5,140.2,165.5z M159.7,44.2c-3,1.5-7,0.1-9.4,3.3
		c-1.4,1.9-2,5.5-4.2,6.5c-2.7,1.4-7.5,3-8.1,6.3c-0.5,3.2,0.6,7.1,4,8.8c0.2,0.2,0.9-0.1,0.6-0.6c-0.6-1.8-0.5-4.1,0.4-5.6
		c0.2,2.5,0.8,4,2.2,5.3c0.1,0.1,0.2,0.1,0.5,0c0.1-0.1,0.2-0.2,0.1-0.5c-0.2-2,0.2-5.9,3.3-8.8c-1,3.9-0.6,6.4,0.9,9.2
		c0.2,0.4,0.8,0.4,0.9-0.1c0,0,0-0.2,0-0.4c0.1-1.6,0.9-3.4,2.8-5.1c-0.4,1-1.5,4.1-0.1,6.4c0,0.1,0,0.2,0.2,0.4
		c0.1,0.1,0.5,0,0.8-0.1c1.5-0.4,2.5-1.3,2.7-2.7c0.5-1.9,0.5-3,2-5.5c1.9-3.4,0.6-5.7,0.1-9.2c0-0.5-0.8-0.6-0.9,0
		c-0.1,0.4-1,4.7-4.8,5.4c1.4-1.8,1.9-2.5,2.3-4.4c0.6-3.2,2.6-5,4.2-7.5C161,44.1,160.2,43.7,159.7,44.2z M102,44.2
		c-3,1.5-7,0.1-9.4,3.3c-1.4,1.9-1.9,5.5-4.2,6.5c-2.7,1.4-7.5,3-8.1,6.3c-0.5,3.2,0.6,7.1,4.1,8.8c0.1,0.2,0.8-0.1,0.5-0.6
		c-0.6-1.8-0.5-4.1,0.5-5.6c0.1,2.5,0.6,4,2,5.3c0.1,0.1,0.4,0.1,0.5,0c0.2-0.1,0.2-0.2,0.2-0.5c-0.2-2,0.1-5.9,3.2-8.8
		c-1,3.9-0.5,6.4,1,9.2c0.1,0.4,0.6,0.4,0.8-0.1c0,0,0-0.2,0-0.4c0.1-1.6,0.9-3.4,2.8-5.1c-0.3,1.1-1.4,4.1,0,6.5
		c0.1,0.1,0.1,0.2,0.4,0.4c0.1,0.1,0.5,0,0.8-0.1c1.4-0.4,2.3-1.3,2.6-2.7c0.5-1.9,0.5-3,2.2-5.5c1.8-3.4,0.5-5.7,0-9.2
		c0-0.5-0.6-0.6-0.9,0c-0.1,0.4-0.9,4.7-4.7,5.4c1.3-1.8,1.9-2.5,2.2-4.4c0.6-3.2,2.6-5,4.2-7.5C103.3,44.1,102.5,43.7,102,44.2z
		 M130.6,44.2c-3,1.5-7,0.1-9.4,3.3c-1.4,1.9-2,5.5-4.2,6.5c-2.7,1.4-7.5,3-8.1,6.3c-0.5,3.2,0.6,7.1,4,8.8c0.2,0.2,0.9-0.1,0.6-0.6
		c-0.6-1.8-0.5-4.1,0.4-5.6c0.2,2.5,0.8,4,2.2,5.3c0.1,0.1,0.2,0.1,0.5,0c0.1-0.1,0.2-0.2,0.1-0.5c-0.2-2,0.2-5.9,3.2-8.8
		c-0.9,3.9-0.5,6.4,1,9.2c0.1,0.4,0.8,0.4,0.9-0.1c0,0,0-0.2,0-0.4c0.1-1.6,0.9-3.4,2.8-5.1c-0.4,1-1.6,4.1-0.1,6.4
		c0,0.1,0,0.2,0.2,0.4c0.1,0.1,0.5,0,0.8-0.1c1.5-0.4,2.5-1.3,2.7-2.7c0.5-1.9,0.5-3,2-5.5c1.9-3.4,0.6-5.7,0.1-9.2
		c0-0.5-0.8-0.6-0.9,0c-0.1,0.4-1,4.7-4.8,5.4c1.3-1.8,1.9-2.5,2.3-4.4c0.6-3.2,2.6-5,4.1-7.5C131.9,44.1,131,43.7,130.6,44.2z"/>
	<path class="st0" d="M102,91c0.1-0.4,0.4-0.5,0.8-0.1c0.8,0.8,1.5,1.5,1.8,2.6c0.2,1.2-0.2,2.5-1.9,5.5c-0.6,1.5-0.8,2-0.9,2.8
		c0.4-0.8,1.6-1.8,2.7-2.7c0.4-0.5,0.8-1,1-1.8c0.1-0.6,0.5-0.9,0.9-0.2c2.3,2.7,1.6,4.3,1.5,5.4c-1,2.7-1.9,4.2-1.4,5.9
		c0.1,0.5-0.1,0.8-0.5,0.6c-1.6-0.5-2.6-1.8-2.9-3.3c-0.8,1.4-0.4,2.7,0.4,3.9c0.4,0.4,0.1,0.8-0.4,0.6c-2-0.4-3.3-1.6-4-3.2
		c-0.2,1.5,0.5,3.2,1.9,4.4c0.6,0.4,0.2,0.9-0.4,0.8c-2.2,0-3.4-0.9-4.1-1.4c0.2,1,0.8,2,2.6,2.9c0.1,0.1,0.1,0.1,0.2,0.1
		c0.2,0.1,0.2,0.5-0.2,0.8c-1.9,0.5-3.4,0.2-4.8-0.1c-3.6-1-5.6-2.9-6.8-5.5c-0.9-2.9-0.2-5.3,1.5-6.7c1.3-1,2.7-1,3.9-1.4
		s2.2-1.2,3-3c0.6-1.5,1.6-2.7,3-3.6c0.9-0.6,1.5-0.9,2-1.4C101.7,92.2,101.9,91.6,102,91z M110.3,108.4c-1-1.3-2.2-1-3.3,0
		l-3.7,3.4l-3.7,3.3c-1.2,1-1.5,2.2-0.2,3.3c-1,1.2-1.4,1.8-0.6,2.8c0.4,0.6,0.9,1.2,1.5,1.8c0.6,0.4,1.4,0.5,2.8-0.5
		c0.9,1,2,0.8,2.9-0.1l6.9,6.1c-2.2-0.8-3.7-1.2-6.1-1.6c-3.2-0.5-6.1-0.1-8.5,0.9c-3.7,1.6-6.1,3.7-6.8,5.8
		c-1,3.4,0.6,7.7,4.3,10.1c1.8,1.3,3.9,2.3,5.7,3.3c2.9,1.5,5.3,3.2,6.9,5.5c0.4,0.6,0.8,0,0.9-0.2c0.5-1.2,0.8-2.9,0.2-5.4
		c-0.2-1.3-0.6-1.9-1.2-2.5c-0.5-0.5-1-0.9-1.3-1.5c-0.4-0.9-0.6-1.9-0.4-3.2c0.6-2.8,3-3.3,5.5-2.9c3.6,0.6,6.8,2.6,9.4,4.2
		l0.9,4.2c0.1,0.4,0.1,0.4,0.5,0.4l4,1.3c0.4,0.5,1,1.3,1.2,2c0.1,0.5,0.4,0.9,0,2.2c-0.6,1.3-3.4,1.3-4.4,1.5
		c-0.5,0.1-0.9,0.2-1.3,0.4c-0.9,0.4-1.4,0.9-1.6,1.6c-0.2,0.6,0,1.5,0.4,2.7c0,0.1,0.4,0.4,0.6,0.1c0.2-0.6,0.9-1.3,1.5-1.4
		c1.3-0.2,2.2,0,2.7,0.2c2.3,0.9,4,1.8,5.5,1.8c0.9,0,1.6-0.2,2.3-0.8c0.6-0.5,1-1.2,1.3-1.9c1.2,0.8,2.3,1,4.6,1.5
		c1.5,0.1,3.2,0.2,4.7,0.4c0.4,0,0.5,0,0.5,0c0-0.1,0-0.1,0-0.1c0.1,0,0.1-0.1,0.1-0.5c0.1-1.5,0.1-3.2,0-4.7
		c-0.1-2.5-0.4-3.6-1-4.7c0.8-0.1,1.5-0.5,2-1.2c0.5-0.5,0.9-1.3,1-2.2c0.1-1.5-0.6-3.2-1.4-5.6c-0.1-0.5-0.4-1.4,0-2.7
		c0.2-0.6,1-1.2,1.5-1.4c0.4-0.2,0.2-0.6,0-0.6c-1-0.5-1.9-0.8-2.7-0.6c-0.8,0.1-1.3,0.6-1.8,1.4c-0.1,0.4-0.4,0.9-0.5,1.3
		c-0.2,1.2-0.8,4-1.9,4.3c-1.4,0.2-1.9,0-2.3-0.1c-0.8-0.2-1.4-0.9-1.8-1.3l-0.9-4.2c0-0.2,0-0.4-0.2-0.4l-4.2-1.4
		c-1.4-2.7-3-6.1-3.3-9.7c-0.1-2.5,0.5-4.7,3.4-5.1c1.3-0.2,2.3,0.1,3,0.6c0.8,0.2,0.9,0.9,1.5,1.4c0.4,0.5,1,1,2.2,1.4
		c2.5,0.8,4.2,0.6,5.5,0.2c0.2-0.1,0.9-0.5,0.2-0.9c-2.2-1.8-3.6-4.3-4.8-7.4c-0.9-1.9-1.6-4.1-2.7-6c-2.2-4-6.3-6-9.7-5.3
		c-2.2,0.4-4.4,2.7-6.5,6.3c-1.3,2.3-1.8,5.1-1.6,8.3c0.4,2.6,0.5,4.1,1,6.4l-5.4-7.5c1-0.9,1.3-1.9,0.4-2.9c1.2-1.3,1.2-2,0.8-2.7
		c-0.5-0.6-1-1.3-1.5-1.8C112.2,107.3,111.5,107.7,110.3,108.4z"/>
	<path class="st1" d="M154.9,72.4h-13.6c-0.1,0-0.1,0.1-0.1,0.1v1c4.2-0.1,9.2-0.1,13.8,0L154.9,72.4C155,72.4,155,72.4,154.9,72.4z
		 M142.4,200.1c-1.2-0.1-2.2-1-2-2c0-1,1-1.8,2.3-1.8c1.3,0.1,2.2,1,2,2C144.7,199.4,143.7,200.2,142.4,200.1z M119.7,197.5
		c-1.3,0-2.5-0.9-2.5-1.9s1.2-1.9,2.5-1.9s2.3,0.9,2.3,1.9C121.9,196.7,121,197.5,119.7,197.5z M96.9,200.1c1.3-0.1,2.2-1,2.2-2
		c-0.1-1-1.2-1.9-2.5-1.8c-1.2,0-2,1-2,2C94.8,199.4,95.7,200.2,96.9,200.1z M103.6,191.6c0,0-0.2,0-0.8,0c-0.2,0-0.5,0.1-0.8,0.1
		c-0.5,0-0.9,0.1-1.2,0.1c-0.2,0.1-0.5,0.4-0.6,0.4c-0.2,0.5-0.6,0.9-0.9,1.3c-0.4,0.5-0.6,0.9-1,1.2l-0.5-0.4
		c0.2-0.9,0.8-2.2,0.9-3c-0.2-0.4-0.6-0.6-1.2-0.9c-0.4-0.2-0.8-0.4-1.2-0.5c-0.5,0.2-0.9,0.4-1.3,0.6c-0.4,0.5-0.6,0.6-0.8,1.2
		c0.1,0.9,0.6,1.9,1,2.8l-0.4,0.4c-0.4-0.1-0.8-0.5-1.3-0.9c-0.2-0.4-0.6-0.8-0.9-1.2c-0.1-0.1-0.4-0.2-0.6-0.4c-0.4,0-0.6,0-1.3,0
		c-0.2,0-0.5,0-0.6,0c-0.6,0-0.9,0.1-0.9,0c-0.1,0.9,0.9,1.4,1,1.4c0.6,0.1,1.3,0.5,1.5,0.8c0.9,0.8,1,1.6,0.9,2.8
		c0,0.2,0,0.6,0.5,0.8c0.1,0.1,0.4,0.1,0.6,0.1c0-0.5,0.2-1,0.5-1.4c0.5-0.6,1.3-1.2,2.2-1.2c1,0,1.8,0.2,2.3,0.9
		c0.4,0.2,0.6,0.8,0.8,1.4c0.2-0.1,0.5-0.1,0.6-0.2c0.5-0.2,0.4-0.6,0.4-0.9c-0.2-1.2-0.2-2,0.5-2.8c0.2-0.2,0.9-0.8,1.4-0.9
		C103,193,103.8,192.4,103.6,191.6z M98.8,188.4l0.1,1.9c-0.4-0.4-0.8-0.6-1.3-0.8c-0.4-0.1-0.8-0.2-1.2-0.4h-0.1
		c-0.4,0.1-0.8,0.2-1.2,0.5c-0.4,0.2-0.8,0.5-1,0.9v-1.1C95.6,189,97.2,188.8,98.8,188.4z M112.3,189.6c0,0,0.6,0,1.2,0
		c0.2,0,0.5,0,0.8,0c0.5,0,0.9,0.1,1.2,0.2c0.2,0.1,0.4,0.4,0.5,0.5c0.4,0.4,0.5,0.6,0.9,1s0.6,0.8,1,0.9l0.4-0.4
		c-0.4-0.8-0.6-1.8-0.9-2.7c0.2-0.2,0.5-0.6,1-1c0.4-0.2,0.8-0.5,1.3-0.6c0.5,0.1,1,0.4,1.4,0.6c0.4,0.2,0.8,0.6,0.9,1.2
		c-0.1,0.8-0.5,1.8-0.9,2.6l0.4,0.4c0.4-0.1,0.8-0.5,1.2-1c0.4-0.4,0.6-0.8,1-1.2c0.1-0.1,0.4-0.2,0.6-0.4c0.2,0,0.6-0.1,1.2-0.1
		c0.2,0,0.5,0,0.8,0c0.5,0,0.8,0,0.8,0c0.2,0.8-0.8,1.4-1,1.4c-0.5,0.2-1.2,0.6-1.4,0.9c-0.8,0.8-0.9,1.6-0.6,2.8
		c0,0.2,0,0.5-0.5,0.8c-0.1,0-0.4,0.1-0.6,0.1c-0.1-0.6-0.2-0.9-0.6-1.3c-0.5-0.6-1.4-1-2.3-1c-0.8,0-1.6,0.1-2.5,0.9
		c-0.2,0.2-0.5,0.6-0.6,1.3c-0.4,0-0.6-0.1-0.8-0.1c-0.5-0.2-0.4-0.5-0.4-0.9c0.1-1.2,0-1.8-0.8-2.6c-0.1-0.2-0.6-0.6-1.3-0.9
		C113.4,191,112.1,190.3,112.3,189.6z M117.2,186.3c0.8,0,1.5-0.1,2.5-0.1c0.9,0,1.6,0.1,2.5,0.1v1.9c-0.6-0.8-1.2-1-2.5-1.4
		c-1.3,0.4-1.8,0.8-2.5,1.4V186.3z M135.7,191.6c0,0,0.4,0,0.9,0c0.1,0,0.4,0.1,0.8,0.1c0.5,0,0.9,0.1,1.2,0.1
		c0.2,0.1,0.5,0.4,0.6,0.4c0.2,0.5,0.5,0.9,0.8,1.3c0.4,0.5,0.8,0.9,1.2,1.2l0.4-0.4c-0.2-0.9-0.6-2.2-0.8-3c0.1-0.4,0.5-0.6,1-0.9
		s0.8-0.4,1.3-0.5c0.4,0.2,0.8,0.4,1.2,0.6c0.5,0.5,0.6,0.6,0.9,1.2c-0.2,0.9-0.8,1.9-1.2,2.8l0.4,0.4c0.4-0.1,0.9-0.5,1.3-0.9
		c0.2-0.4,0.6-0.8,0.9-1.2c0.1-0.1,0.5-0.2,0.8-0.4c0.2,0,0.6,0,1.2,0c0.2,0,0.5,0,0.8,0c0.5,0,0.8,0.1,0.8,0c0.2,0.9-0.9,1.4-1,1.4
		c-0.6,0.1-1.3,0.5-1.5,0.8c-0.8,0.8-1,1.6-0.9,2.8c0,0.2,0.1,0.6-0.5,0.8c-0.1,0.1-0.2,0.1-0.6,0.1c0-0.5-0.1-1-0.5-1.4
		c-0.5-0.6-1.3-1.2-2.2-1.2s-1.8,0.2-2.3,0.9c-0.4,0.2-0.6,0.8-0.6,1.4c-0.4-0.1-0.5-0.1-0.6-0.2c-0.5-0.2-0.5-0.6-0.5-0.9
		c0.4-1.2,0.2-2-0.5-2.8c-0.1-0.2-0.8-0.8-1.4-0.9C136.5,193,135.5,192.4,135.7,191.6z M140.6,188.4v2c0.1-0.1,0.6-0.5,1.3-0.9
		c0.2-0.1,0.6-0.2,1-0.4h0.2c0.4,0.1,0.8,0.2,1,0.5c0.4,0.2,0.8,0.5,1,0.9l0.1-1.2C143.7,189,142.1,188.8,140.6,188.4z M146.7,161.3
		l0.6,0.5l-0.8,9.8c-1.8-0.2-3.6-0.5-5.5-0.8l0.2-6C143.3,163.9,145,162.8,146.7,161.3z M92.6,161.3l-0.5,0.4l0.8,9.9
		c1.8-0.2,3.6-0.5,5.4-0.8l-0.1-6c-1.6-0.9-3.3-1.8-4.8-3C92.9,161.5,92.8,161.4,92.6,161.3z M152.8,83.2h-9.2l-0.1,4.7h8.9
		L152.8,83.2z M115.1,83.2h9.2l-0.1,4.6h-8.9L115.1,83.2z M86.6,83.2h9.1l0.1,4.6h-8.9L86.6,83.2z M84.6,81.9h13.7v-1.2
		c-4.3,0.1-9.2,0.1-13.9,0v1C84.4,81.9,84.5,81.9,84.6,81.9z M112.9,81.9h13.7v-1.2c-4.3,0.1-9.2,0.1-13.9,0v1
		C112.7,81.9,112.8,81.9,112.9,81.9z M154.9,81.9h-13.7v-1.2c4.2,0.1,9.2,0.1,13.9,0.1v1C155.1,81.9,155,81.9,154.9,81.9z
		 M151.6,74.7h-7.4c-0.6,0-4.4,0-5.6,0.4c-0.9,0.1-0.9,0.9-0.9,1.3c0,0.8,0,1.2,0,1.8c0.1,0.8,0.5,1,1.4,1.3
		c1.3,0.1,3.7,0.2,5.1,0.2h7.5c1,0,4-0.1,5.3-0.2c1.3-0.2,1.4-0.5,1.5-1.2c0-0.8,0-1.4,0-2c-0.1-0.8-0.4-1.2-1.3-1.3
		C156.1,74.7,152.3,74.7,151.6,74.7z M116.2,74.6h7.3c0.8,0,4.4,0,5.6,0.5c0.9,0.1,0.9,0.8,0.9,1.3c0,0.6,0,1.2,0,1.8
		c0,0.8-0.4,1-1.4,1.2c-1.3,0.2-3.7,0.2-5,0.2h-7.7c-1,0-3.9,0-5.3-0.2c-1.3-0.2-1.4-0.4-1.4-1.2c-0.1-0.6-0.1-1.3,0-2
		c0-0.8,0.2-1,1.3-1.2C111.6,74.7,115.4,74.6,116.2,74.6z M87.9,74.6h7.3c0.8,0,4.4,0,5.6,0.5c0.9,0.1,0.9,0.8,0.9,1.3
		c0,0.6,0,1.2,0,1.8c0,0.8-0.5,1-1.4,1.2c-1.3,0.2-3.7,0.2-5,0.2h-7.6c-1,0-3.9,0-5.3-0.2C81.1,79.2,81,79,81,78.2
		c-0.1-0.6-0.1-1.3,0-2c0-0.8,0.2-1,1.3-1.2C83.2,74.7,87,74.6,87.9,74.6z M84.6,72.4h13.6c0,0,0.1,0,0.1,0.1v1
		c-4.3-0.1-9.2-0.1-13.9,0v-1C84.4,72.4,84.5,72.4,84.6,72.4z M112.9,72.4h13.6c0.1,0,0.1,0,0.1,0.1v1c-4.2-0.1-9.2-0.1-13.8,0
		L112.9,72.4C112.8,72.4,112.8,72.4,112.9,72.4z"/>
	<g>
		<g>
			<g>
				<g>
					<g>
						<defs>
							<rect id="SVGID_1_" x="7.7" y="1.5" width="226.2" height="223.4"/>
						</defs>
						<clipPath id="SVGID_2_">
							<use xlink:href="#SVGID_1_"  style="overflow:visible;"/>
						</clipPath>
						<g class="st2">
							<path class="st0" d="M102.9,224.8c0-1.5,0.1-3.2,0.1-4.7c0-1.6,0-3.2,0-4.7c0-0.5,0-1,0-1.5s0-1,0-1.5l-3.2,1.8
								c-0.1-0.1-0.1-0.4-0.2-0.5c-0.1-0.1-0.2-0.2-0.4-0.4c0.8-0.2,1.5-0.6,2.5-1c0.9-0.4,2-1,3.3-1.6c-0.1,1.3-0.1,2.8-0.1,4.4
								c-0.1,1.6-0.1,3.7-0.1,6.3c0,0.9,0,1.5,0,2.2c0,0.5,0,0.9,0.1,1.4c-0.2,0-0.4,0-0.5,0s-0.2,0-0.5,0c-0.1,0-0.2,0-0.5,0
								C103.1,224.8,103,224.8,102.9,224.8z M196.6,57.1c1-0.2,1.9-0.5,2.8-1c-2.8,4,0.8,9.8,5.4,6.9c4.3-2.8-2.2-9.2,3-12.5
								c4.7-3,8.8,1.8,9.2,6.3c-0.8,0.1-1.5,0.2-2.2,0.5c2.8-6.8-7.7-8.7-6.5-1.2c0.5,3,1.5,6.3-1.6,8.3
								C201.7,67.6,196.2,62.4,196.6,57.1z M213.5,74.1c-1.3-1.6-3-5-5.6-3.9c-3.7,1.8-0.2,6.5,2.5,5.4L213.5,74.1z M208.7,76.4
								c-3.3-1.2-6.3-6-2.2-8.1c4.7-2.2,5.3,4.1,8.1,5.3c2.2-1,3.9-2.2,2.6-4.7c-0.9-1.8-3.3-2.2-3.4-2.6l1.3-0.6
								c1.5,0.8,2.7,1.9,3.4,3.4c3.7,7.7-10.8,6.8-8.7,11l-0.5,0.2C208,79.1,206.8,77.7,208.7,76.4z M210.2,83.5
								c4.3-0.9,8.8-2.3,12.9-3.6c0,0.6,0.2,1.5,0.6,2.2c-0.8,0.1-1.6,0.4-2.5,0.6c5.1,1.3,5.7,7.7,0.2,9.2
								c-2.8,0.8-5.6,1.5-8.3,2.5c0-0.9-0.2-1.5-0.6-2.3c2.6-0.5,5.3-1.3,7.8-2c5-1.3,3.9-6.9-0.5-6.7c-2.6,0-6.5,1.5-9.1,2.5
								C210.8,84.9,210.6,84.3,210.2,83.5z M226,95.7c0.4,0,0.8-0.1,1.2-0.1c0.1,0.5,0.1,1.2,0.2,1.8c1-0.2,2.2-0.4,3.2-0.6
								c0.2,0.8,0.6,1.5,1,2.2c-1.3,0.1-2.7,0.4-4.1,0.5c0.2,1.3,0.5,2.5,0.8,3.7c-0.4,0-0.8,0-1.2,0c-0.1-1.2-0.2-2.5-0.5-3.6
								c-2.6,0.2-5.3,0.6-7.9,1c-6.1,1-1,4.2-2.8,5.1c-2.5-2.6-2.3-6.4,1.8-7c2.9-0.5,5.7-0.8,8.7-1.2
								C226.3,96.8,226.2,96.2,226,95.7z M223,114.7c-0.5-2-1-5.9-3.9-5.6c-4.1,0.2-2.6,6,0.2,5.7L223,114.7z M217.6,115
								c-2.7-2.2-3.6-7.9,1-8.2c5.1-0.4,3.3,5.7,5.5,7.8c2.3-0.1,4.2-0.5,4.1-3.3c-0.1-2-2.2-3.2-2.3-3.9h1.5
								c1.2,1.3,1.8,2.8,1.9,4.4c0.5,8.4-12.5,2.3-12.2,6.9l-0.6,0.1C215.9,117.2,215.3,115.4,217.6,115z M215.7,129
								c5.9,3,12.3,5.5,18.2,8.1l-0.1,0.5c-5.6,1-11.2,2.2-16.8,3.6c4.1,4.1,8.3,8.2,12.5,12.2v0.4c-6.5-1.2-13.1-2-19.6-3
								c0.4-0.8,0.6-1.5,0.6-2.5c4.6,0.9,9.5,1.9,14,2.3c-3.6-3.7-7.4-7.8-11.6-10.8l0.1-0.4c4.8-0.1,10.6-2,15.4-3.2
								c-4.3-1.8-8.8-3.7-13.3-5C215.6,130.4,215.7,129.7,215.7,129z M211.3,164.8c0.5-1.9,2-6.4-0.6-7.7c-4.1-1.9-5.1,5-2.6,6.3
								L211.3,164.8z M206.4,162.5c-1.3-3.2,0.2-9.8,4.8-7.7c4.7,2.2,0.1,7.5,1,10.6c3.7,1.6,7-2.8,5-6.1l0.1-0.2l1.3,0.6
								c1,4.1-2.5,9.8-7,7.7c-0.6-0.4-5.4-3-6.5-2.9c-0.5,0.1-0.8,0.8-0.9,1.3l-0.5-0.2C203.8,163.7,204.2,161.9,206.4,162.5z
								 M201.4,167.8c3.4,2.7,7.1,5.5,11,7.5c-0.6,0.5-1,1.3-1.4,2c-0.8-0.8-1.5-1.4-2.5-1.9c1.2,2,1.8,3.9-0.1,5.5
								c-0.4-0.4-1-0.9-1.6-1.3v-0.2c5.3-2.9-4.2-8.2-6.8-9.7C200.5,169.2,201,168.5,201.4,167.8z M195.5,176.3
								c3.3,3,6.7,5.9,10.2,8.7c-0.6,0.5-1.2,1.2-1.5,1.8c-3.2-3-6.7-5.9-10.2-8.7C194.8,177.5,195.1,177.1,195.5,176.3z
								 M209.7,187.8c1.4,1.3-0.4,3.4-1.9,2.3C206.4,188.9,208.3,186.8,209.7,187.8z M190.4,191.1c1.2-1.6,3.7-4.6,1.8-6.5
								c-2.9-2.9-6.3,1.9-4.2,4L190.4,191.1z M186.7,187.2c-0.1-6,7.7-8.4,7.9-1.4c0.1,1.6-3.3,4.2-3.4,6.1c1.9,1.9,5.4,3.7,6.4,0
								c0.2-0.6,0-2,0.2-2.3l1,1c-0.1,1.6-0.9,3.2-2.2,4.3c-4.8,4.8-10.1-8.5-13.1-5.6l-0.5-0.2
								C183.9,187.5,184.8,185.8,186.7,187.2z M153.5,27.9c2.8-6.3,5.6-13.3,7.5-19.9c0.8,0.4,1.4,0.6,2.2,0.9
								c-2.8,6.4-5.4,13.3-7.5,19.8C155,28.2,154.3,28,153.5,27.9z M178,26.3c-4.7-3-11,6.9-6.4,9.7C176.4,39.1,182.8,29.3,178,26.3
								z M174.9,39c0.5-0.6,1-1.5,1.4-2.3c-3.3,1.9-7.7,0.2-8.2-3.7c-1.3-9.1,12.6-12.3,12.5-3.3c1.8-2.9,3.7-5.7,5.4-8.7
								c0.6,0.6,1.2,1,2,1.3c-4,5.7-7.7,11.9-11.2,18C176.3,39.7,175.6,39.2,174.9,39z M189.5,49.1c-5.9-0.8-9.4-7-4.8-11.7
								c6-6.4,15.7,1,9.1,8.2l-7.1-6.7c-4,4.2-1.6,9.4,4,9.2C190.2,48.6,189.7,48.8,189.5,49.1z M187.4,38.4l5.4,5
								C197.5,38.4,191.8,33.8,187.4,38.4z M38,197c-0.1-0.1-0.2-0.4-0.4-0.5c-0.1-0.1-0.2-0.4-0.4-0.5c-0.1-0.1-0.4-0.4-0.5-0.5
								s-0.2-0.2-0.5-0.4c1.9-1.5,3.4-3,4.8-4.3c1.4-1.2,2.5-2,2.9-2.5c1.3-1.3,2.2-2.2,2.7-2.9c0.5-0.8,0.9-1.5,0.9-2.3
								c0.1-0.8,0.1-1.6-0.2-2.5c-0.2-0.8-0.8-1.5-1.4-2.3c-0.6-0.8-1.4-1.3-2.2-1.6c-0.8-0.4-1.6-0.5-2.5-0.5
								c-0.8,0-1.6,0.4-2.6,0.8c-0.8,0.5-2.2,1.6-4,3.3c-1.2,1-2.3,2-3.4,3c-1,1-2,1.9-3,2.9c-0.1-0.1-0.1-0.2-0.2-0.4
								c0-0.1-0.1-0.2-0.2-0.4c-0.1-0.1-0.2-0.2-0.4-0.4c-0.1,0-0.2-0.1-0.4-0.2c0.9-0.6,1.6-1.4,2.5-1.9c0.8-0.6,1.3-1.2,1.5-1.4
								l0.5-0.5c2.7-2.5,4.6-4,5.7-4.7c1-0.8,2-1.3,2.8-1.4c1.3-0.2,2.6-0.1,3.7,0.4c1.3,0.4,2.5,1.3,3.4,2.6c1.9,2,2.8,4,2.7,5.9
								c-0.2,1.9-1.4,3.9-3.6,5.7c-0.1,0.1-0.6,0.5-1.6,1.4c-0.9,0.9-1.9,1.6-2.8,2.5c-0.6,0.6-1.6,1.6-3.3,3.2
								C38.2,196.7,38.1,196.8,38,197z M38.7,167.4c-0.5,0.2-1,0.5-1.6,0.9c-0.5,0.2-1.4,0.8-2.7,1.4l-1.8,0.9
								c-1.6,0.9-2.8,1.5-3.6,1.9c-0.8,0.5-1.4,0.9-2,1.3c0-0.2-0.1-0.4-0.1-0.5c-0.1-0.2-0.2-0.4-0.2-0.6c-0.1-0.1-0.2-0.4-0.4-0.5
								c-0.1-0.1-0.1-0.2-0.2-0.4c0,0,0,0,0.1,0c0.5-0.2,0.9-0.5,1.2-0.6c0.1,0,0.2-0.1,0.4-0.2c0.2-0.1,0.4-0.1,0.5-0.2
								c-1,0-2-0.2-2.7-0.6c-0.8-0.5-1.4-1.2-1.8-1.9c-0.8-1.4-0.9-2.6-0.5-3.7c0.4-1,1.3-1.9,2.8-2.7c0.4-0.2,1-0.6,1.8-1
								c0.9-0.4,1.4-0.8,1.8-0.9c0.6-0.4,1.3-0.8,1.9-1c0.6-0.4,1.4-0.8,2-1.2c0.1,0.1,0.1,0.4,0.2,0.5c0,0.2,0.1,0.4,0.1,0.5
								c0.1,0.1,0.2,0.4,0.4,0.5c0,0.1,0.1,0.2,0.4,0.5c-0.9,0.4-2,0.9-3.2,1.5s-2.6,1.3-4,2c-1.3,0.6-2,1.4-2.5,2.2
								c-0.4,0.9-0.2,1.6,0.1,2.7c0.4,0.5,0.6,0.9,1,1.2c0.4,0.2,0.9,0.5,1.4,0.6c0.5,0,1.2,0,1.6-0.1c0.6-0.1,1.5-0.5,2.7-1.2
								l1.2-0.6c1.4-0.8,2.5-1.3,3-1.6c0.5-0.2,1-0.6,1.5-0.9c0,0.2,0.1,0.5,0.1,0.6c0.1,0.1,0.2,0.4,0.2,0.5
								c0.1,0.1,0.2,0.2,0.2,0.5C38.4,167,38.5,167.1,38.7,167.4z M31.5,152.6c-1.3,0.5-2.5,0.9-3.4,1.3c-1,0.5-2.2,0.9-3,1.3
								s-1.9,0.8-2.8,1.2c-1,0.4-2,0.9-3,1.3c0-0.1-0.1-0.2-0.1-0.5c0-0.1-0.1-0.4-0.2-0.5c0-0.2-0.1-0.4-0.2-0.6
								c0-0.1-0.1-0.2-0.2-0.4c1.2-0.4,2.2-0.9,3.2-1.2c0.9-0.4,1.9-0.8,2.8-1.2c0.9-0.4,2-0.9,3-1.3c1-0.5,2.2-1,3.3-1.5
								c0,0.2,0.1,0.4,0.1,0.6c0.1,0.1,0.1,0.4,0.2,0.5c0,0.1,0.1,0.4,0.1,0.5C31.3,152.3,31.4,152.5,31.5,152.6z M14.7,159.8
								c-0.4,0.1-0.8,0.1-1.2,0c-0.2-0.1-0.5-0.4-0.8-0.8c-0.1-0.4-0.1-0.8,0-1.2c0.2-0.4,0.5-0.6,0.8-0.8c0.4-0.1,0.8-0.1,1.2,0
								s0.6,0.5,0.8,0.8c0.1,0.4,0.1,0.8,0,1.2S15,159.7,14.7,159.8z M28,142.1c-1.2,0.8-2.7,1.8-4.4,3.2c-1.8,1.4-4.2,3.3-7,5.6
								c0-0.2,0-0.4-0.1-0.6c0-0.1,0-0.4-0.1-0.6c0-0.2-0.1-0.5-0.1-0.6c-0.1-0.2-0.2-0.4-0.2-0.6c1-0.5,2.3-1.4,3.9-2.6
								c1.5-1.2,3.3-2.6,5.4-4.2c-1.9-0.4-3.9-0.8-5.7-0.9c-1.9-0.2-3.9-0.4-5.6-0.4c0-0.1,0-0.2-0.1-0.4c0-0.2,0-0.4,0-0.5
								c-0.3-0.3-0.3-0.4-0.3-0.6c-0.1-0.2-0.1-0.4-0.2-0.4c3.4,0.5,6.4,0.9,9.1,1.3c2.6,0.4,4.3,0.5,5.4,0.6c0,0.1,0,0.1,0,0.2
								s0,0.4,0.1,0.5c0,0.2,0.1,0.4,0.1,0.5C27.9,142,28,142.1,28,142.1z M23.2,122.1c0.6,0.8,1.2,1.4,1.4,2.2
								c0.4,0.8,0.6,1.6,0.6,2.6c0.2,1.9-0.2,3.6-1.4,5c-1.2,1.3-2.8,2-4.8,2.3c-2,0.1-3.9-0.2-5.3-1.4c-1.4-1-2.2-2.6-2.3-4.4
								c0-2.1,0.3-3.5,1.4-4.5c0.9-1.2,2.5-1.8,4.3-1.9c0.1,0,0.1,0,0.2,0c0.2,0,0.2,0,0.4,0l0.9,9.7c1.9-0.2,3.4-0.8,4.3-1.6
								c0.9-0.9,1.3-2,1.2-3.7c0-0.8-0.2-1.5-0.6-2.2c-0.4-0.8-0.9-1.4-1.6-1.9c0.4,0,0.5,0,0.8,0c0.1,0,0.2,0,0.4,0L23.2,122.1z
								 M17.6,131.7l-0.6-7.4h-0.6c-1.4,0.1-2.5,0.5-3.2,1.3c-0.8,0.6-1,1.5-0.9,2.7c0.1,1,0.6,1.9,1.5,2.6
								C14.9,131.5,16.1,131.8,17.6,131.7z M24.6,117.4c-0.9-0.1-2.2-0.1-3.6-0.1c-1.5,0-3.4,0-5.7,0c-1.2,0-2,0-2.6,0s-1,0-1.5,0.1
								c0.1-0.2,0.1-0.4,0.1-0.6c0-0.1,0-0.4,0-0.6s0-0.4,0-0.6c0-0.1,0-0.4-0.1-0.5c0.5,0,1,0.1,1.5,0.1s1,0,1.6,0
								c-1.2-0.5-1.9-1-2.6-1.6c-0.5-0.5-0.8-1.2-0.8-1.8c0-0.1,0-0.2,0-0.5c0.1-0.1,0.1-0.4,0.1-0.6c0.2,0,0.6,0.1,0.9,0.1
								c0.4,0,0.8,0,1.3,0l0.1,0.2c-0.1,0.2-0.1,0.5-0.2,0.6c0,0.2-0.1,0.5-0.1,0.8c0,1,0.5,1.8,1.4,2.2c0.9,0.5,2.3,0.8,4.3,0.8
								c1.2,0,2.3,0,3.2,0c1-0.1,1.9-0.1,2.6-0.1c0,0.1-0.1,0.4-0.1,0.5c0,0.2,0,0.4,0,0.6s0,0.4,0,0.5
								C24.5,117,24.6,117.1,24.6,117.4z M22.1,107.8c0.8-0.4,1.4-0.8,1.8-1.4c0.4-0.5,0.6-1,0.8-1.8c0.1-0.8,0-1.5-0.4-2
								c-0.5-0.5-1-0.9-1.8-1c-0.6,0-1.2,0.1-1.5,0.4c-0.4,0.2-0.8,0.8-1.2,1.6l-0.5,1.2c-0.4,1.2-0.9,1.8-1.5,2.2
								c-0.6,0.5-1.4,0.6-2.5,0.5c-1.2-0.1-2-0.6-2.7-1.5c-0.5-1-0.6-2-0.5-3.3c0-0.6,0.2-1.3,0.4-1.8c0.2-0.6,0.5-1.2,0.9-1.5
								c0.2,0.1,0.6,0.2,0.9,0.4c0.2,0.1,0.5,0.2,0.9,0.4c-0.8,0.5-1.3,0.9-1.6,1.4c-0.4,0.5-0.6,1-0.6,1.6c-0.1,0.6,0,1.3,0.4,1.8
								c0.3,0.4,1,0.6,1.6,0.8c0.6,0,1.2,0,1.5-0.4c0.4-0.2,0.8-0.8,1.2-1.5l0.8-1.8c0.4-0.9,0.9-1.5,1.4-1.9
								c0.6-0.4,1.3-0.5,2.2-0.4c1.3,0.1,2.3,0.8,2.9,1.8c0.8,1,1,2.3,0.9,3.7c-0.1,0.8-0.2,1.4-0.5,1.9c-0.2,0.6-0.6,1.2-1,1.5
								c-0.2-0.1-0.6-0.2-1-0.5C22.8,108.1,22.5,108,22.1,107.8z M27,96.6c-1.3-0.4-2.5-0.6-3.6-0.9c-1.2-0.2-2.3-0.5-3.3-0.8
								c-0.9-0.1-1.9-0.4-2.9-0.6c-1-0.1-2.2-0.4-3.2-0.5c0-0.1,0.1-0.4,0.1-0.5c0-0.2,0.1-0.4,0.1-0.6c0.1-0.2,0.1-0.4,0.1-0.6
								c0-0.1,0-0.4,0-0.5c1.2,0.2,2.3,0.5,3.3,0.8c1,0.2,1.9,0.5,2.9,0.6c1,0.2,2,0.5,3.2,0.8c1.2,0.1,2.5,0.4,3.7,0.6
								c-0.1,0.1-0.2,0.4-0.2,0.5c-0.1,0.3-0.1,0.4-0.1,0.5C27,95.6,27,95.8,27,96C27,96,27,96.3,27,96.6z M9,93
								c-0.4-0.1-0.6-0.2-0.9-0.6c-0.2-0.2-0.2-0.6-0.2-1C8,91,8.3,90.6,8.5,90.5c0.4-0.2,0.8-0.4,1.2-0.2c0.4,0.2,0.6,0.2,0.9,0.6
								c0.2,0.4,0.2,0.6,0.2,1c-0.1,0.4-0.4,0.8-0.6,0.9C9.7,93,9.3,93.1,9,93z M18.9,80.2c-0.5,1.3-0.4,2.5,0.4,3.4
								c0.8,1.2,2,1.9,3.9,2.6c1.8,0.5,3.2,0.8,4.3,0.4c1.2-0.2,2-1,2.5-2.2c0.4-1.4,0.2-2.6-0.5-3.6c-0.8-1-2.2-1.9-4.1-2.6
								c-1.6-0.6-3-0.6-4.1-0.4C20.1,78.3,19.3,79.1,18.9,80.2z M32.1,80.6c-0.5-0.1-0.8-0.2-1-0.4c-0.2,0-0.4-0.1-0.6-0.2
								c-0.2,0-0.5-0.1-0.6-0.1s-0.2-0.1-0.4-0.1c0.8,0.9,1.3,1.6,1.5,2.6c0.2,0.9,0.1,1.9-0.2,2.9c-0.5,1.6-1.5,2.8-3,3.3
								c-1.5,0.6-3.2,0.6-5.1,0c-2-0.8-3.4-1.8-4.3-3.3c-0.9-1.5-1-3-0.5-4.7c0.4-0.9,0.8-1.6,1.4-2.3c0.8-0.5,1.5-0.9,2.6-1.2
								l-4.8-1.6c-0.8-0.2-1.6-0.5-2.5-0.8c-0.9-0.2-1.6-0.5-2.5-0.8c0.1-0.2,0.2-0.5,0.4-0.6c0.1-0.1,0.1-0.2,0.1-0.5
								c0.1-0.1,0.1-0.2,0.1-0.5c0-0.2,0-0.5,0-0.7c1,0.4,2.2,0.8,3.6,1.3s3,1.2,5,1.8s3.9,1.3,5.7,1.9c1.9,0.6,3.9,1.3,5.7,1.9
								c0,0.1-0.1,0.4-0.2,0.5c0,0.1-0.1,0.4-0.1,0.5c-0.1,0.1-0.1,0.4-0.2,0.5C32.1,80.2,32.1,80.4,32.1,80.6z M32.1,64.7
								c-0.8,2.5-1.2,4-1.2,4.8c0.1,0.9,0.5,1.5,1.4,1.9c0.8,0.5,1.4,0.6,2,0.4c0.6-0.1,1.2-0.5,1.5-1.3c0.1-0.4,0.2-0.9,0.4-1.4
								c0-0.6,0-1.2-0.1-1.6C36,67.3,36,67.1,35.9,67c-0.1-0.1-0.4-0.4-0.6-0.5h-0.1L32.1,64.7z M36.8,67.3c0.2,0.9,0.4,1.6,0.2,2.5
								c0,0.8-0.2,1.5-0.6,2.2c-0.6,1.2-1.3,1.8-2.2,2c-0.9,0.4-1.8,0.2-2.8-0.2c-0.8-0.5-1.4-1.2-1.6-1.9c-0.2-0.8-0.2-1.6,0.1-2.8
								c0.1-0.4,0.2-1,0.5-1.8c0.5-1.6,0.8-2.7,0.6-3.2l-0.5-0.2c-1.2-0.6-2-0.9-2.8-0.6c-0.8,0.1-1.4,0.6-1.9,1.6
								c-0.4,0.6-0.5,1.3-0.5,2c0,0.6,0.1,1.4,0.5,2l-0.1,0.2l-1.3-0.8c-0.1-0.8-0.1-1.6,0-2.5c0.1-0.8,0.4-1.5,0.8-2.3
								c0.8-1.4,1.6-2.2,2.7-2.5c1-0.2,2.2,0,3.7,0.8l0.2,0.1l4.2,2.5l0.6,0.4c0.8,0.4,1.2,0.6,1.5,0.5c0.2,0,0.5-0.2,0.8-0.6
								c0-0.1,0.1-0.2,0.1-0.2c0-0.1,0-0.1,0.1-0.1l0.5,0.1v0.1c-0.2,0.9-0.5,1.6-0.8,2.2c-0.2,0.4-0.5,0.6-0.8,0.6
								C37.8,67.6,37.3,67.6,36.8,67.3z M36.2,49.4c-0.8,1-1.2,2.2-0.8,3.4c0.2,1.3,1.2,2.5,2.6,3.7c1.4,1.2,2.7,1.9,3.9,2
								c1.3,0.1,2.3-0.2,3-1.3c0.9-1,1.2-2.2,0.9-3.4c-0.4-1.3-1.3-2.6-2.8-3.9c-1.3-1.2-2.6-1.8-3.7-1.9
								C38.1,48.1,37,48.4,36.2,49.4z M48.3,54.5c-0.4-0.2-0.6-0.5-0.8-0.6s-0.4-0.2-0.5-0.5c-0.2-0.1-0.4-0.2-0.5-0.4
								s-0.1-0.1-0.2-0.2c0.4,1.2,0.5,2,0.4,3c-0.1,0.9-0.6,1.8-1.3,2.6c-1.2,1.3-2.6,1.9-4.2,1.9c-1.5,0-3-0.6-4.6-2
								C35,57,34,55.4,33.8,53.7c-0.2-1.6,0.1-3.2,1.3-4.6c0.6-0.8,1.4-1.3,2.2-1.5c0.9-0.2,1.8-0.2,2.8-0.1l-4-3.3
								c-0.6-0.6-1.3-1.2-1.9-1.8c-0.6-0.5-1.3-1-1.9-1.5c0.2-0.1,0.4-0.2,0.5-0.4c0.1-0.1,0.2-0.2,0.4-0.4c0.1-0.1,0.2-0.2,0.4-0.5
								c0-0.1,0.1-0.2,0.2-0.5c0.8,0.8,1.8,1.5,2.8,2.6c1,0.9,2.5,2,4,3.4c1.5,1.3,3,2.7,4.6,4c1.5,1.3,3.2,2.6,4.7,4
								c-0.2,0.1-0.4,0.2-0.5,0.4c-0.1,0.1-0.2,0.2-0.4,0.4c-0.1,0.1-0.2,0.2-0.4,0.4C48.4,54.3,48.4,54.4,48.3,54.5z M59.9,41.3
								c-0.1,0.9-0.5,1.6-0.9,2.5c-0.4,0.8-0.9,1.4-1.5,1.9c-1.5,1.4-3,1.9-4.8,1.8c-1.8,0-3.4-0.9-4.7-2.5c-1.4-1.5-2.2-3.2-2.2-5
								c0.1-1.6,0.8-3.2,2.3-4.6c1.3-1.2,2.7-1.6,4.2-1.5c1.4,0.1,2.8,0.9,4.1,2.3c0.1,0.1,0.1,0.1,0.2,0.2c0,0.1,0.1,0.2,0.1,0.2
								l-7.1,6.5v0.1c1.3,1.4,2.6,2.2,3.9,2.5c1.3,0.1,2.6-0.2,3.7-1.3c0.6-0.5,1-1.2,1.4-1.9c0.2-0.6,0.5-1.5,0.5-2.5
								c0.2,0.2,0.4,0.4,0.5,0.5c0,0.1,0.1,0.2,0.1,0.4L59.9,41.3z M48.9,42.5l5.5-5l-0.2-0.4c-1-1-1.9-1.5-2.9-1.8
								c-1-0.1-1.9,0.1-2.7,0.9c-0.9,0.8-1.3,1.6-1.2,2.8C47.5,40.1,48,41.3,48.9,42.5z M71.8,35c-0.4-0.9-0.9-1.9-1.4-2.9
								c-0.5-1-1-2.2-1.8-3.6c-0.9-1.8-1.9-3.4-2.9-5.2c-0.9-1.8-1.9-3.6-2.9-5.4c0.2-0.1,0.6-0.2,1.2-0.5c0.4-0.2,1.2-0.6,2.3-1.2
								c1.2-0.8,2.2-1.3,3-1.6c0.8-0.5,1.5-0.9,2.5-1.4c0,0.1,0.1,0.2,0.1,0.4c0.1,0.2,0.2,0.4,0.2,0.5c0,0,0.1,0.1,0.2,0.4
								c0,0.1,0.1,0.2,0.1,0.4c-0.5,0.1-1.4,0.5-2.3,0.9c-1,0.4-2.3,1-3.9,1.9l-0.6,0.2c0.2,0.5,0.5,1,0.8,1.5
								c0.2,0.5,0.6,1.3,1.2,2.3l0.9,1.6l0.4,0.9l2-1.2c0.8-0.4,1.5-0.8,2.2-1.2s1.3-0.9,1.9-1.3c0.1,0.1,0.1,0.1,0.1,0.2
								c0.1,0.1,0.1,0.2,0.2,0.5c0.1,0.2,0.2,0.4,0.2,0.4c0.1,0.1,0.1,0.2,0.1,0.2c-1.4,0.8-2.6,1.3-3.4,1.6
								c-0.9,0.5-1.5,0.9-2.2,1.2L69.4,25l3,5.7c0.5,0.9,0.8,1.5,1,1.9c0.2,0.2,0.4,0.6,0.5,0.8c-0.1,0.1-0.4,0.2-0.6,0.2
								c-0.1,0.1-0.4,0.2-0.6,0.4c-0.2,0.1-0.4,0.2-0.5,0.2C72,34.8,71.9,34.9,71.8,35z M92.9,24c-0.5,0.8-1.2,1.4-1.8,2
								c-0.6,0.5-1.3,0.9-2.2,1.3c-1.8,0.6-3.6,0.6-5.3-0.1c-1.5-0.8-2.7-2-3.4-4c-0.8-2-0.9-3.9-0.1-5.4c0.6-1.6,1.8-2.8,3.7-3.6
								c1.6-0.6,3.2-0.6,4.4,0c1.3,0.6,2.3,1.9,3,3.7c0,0.1,0,0.2,0,0.4c0.1,0.1,0.1,0.2,0.1,0.2l-9.1,3.4V22c0.8,1.8,1.6,3,2.8,3.7
								c1,0.6,2.3,0.6,3.9,0.1c0.8-0.2,1.4-0.8,1.9-1.3c0.6-0.5,1-1.3,1.4-2c0.1,0.2,0.1,0.5,0.2,0.6c0,0.1,0,0.2,0.1,0.4L92.9,24z
								 M82.3,21.2l6.9-2.7l-0.1-0.4c-0.5-1.3-1.2-2.3-2-2.8c-0.9-0.5-1.8-0.5-2.9-0.1c-1,0.4-1.6,1.2-2,2.3S81.7,19.8,82.3,21.2z
								 M100.9,11.1c-1.3,0.2-2.2,1-2.7,2.2s-0.6,2.6-0.2,4.6c0.4,1.8,0.9,3,1.8,4c0.9,0.8,1.9,1.2,3,0.9c1.4-0.2,2.3-1,2.8-2.2
								c0.5-1.3,0.6-2.8,0.2-4.8c-0.4-1.6-0.9-2.9-1.8-3.7C103.2,11.3,102.2,10.9,100.9,11.1z M107.2,22.7c0-0.5-0.1-0.8-0.1-1
								s0-0.5-0.1-0.6c0-0.4-0.1-0.5-0.1-0.6s0-0.2-0.1-0.4c-0.2,1-0.8,1.9-1.4,2.6c-0.8,0.6-1.6,1-2.7,1.3c-1.8,0.2-3.2,0-4.4-1
								c-1.3-1-2-2.6-2.5-4.4c-0.4-2.2-0.2-4,0.6-5.5c0.9-1.4,2.2-2.5,3.9-2.7c1-0.2,1.9-0.1,2.7,0.1c0.8,0.2,1.5,0.8,2.3,1.5l-1-5
								c-0.3-1-0.5-1.8-0.6-2.6c-0.1-0.9-0.4-1.6-0.5-2.5c0.2,0,0.5,0,0.6,0c0.2,0,0.4-0.1,0.5-0.1c0.2,0,0.4,0,0.5-0.1
								c0.2,0,0.4-0.1,0.6-0.2c0.2,1,0.3,2.3,0.5,3.7s0.6,3.2,1,5.3c0.4,2,0.8,4,1.2,6c0.5,1.9,0.9,4,1.3,5.9c-0.1,0-0.4,0-0.5,0
								c-0.2,0-0.4,0.1-0.6,0.1c-0.1,0-0.4,0-0.5,0.1C107.5,22.5,107.4,22.6,107.2,22.7z M125,20.5c-0.8,0.5-1.5,0.9-2.3,1.2
								c-0.8,0.2-1.6,0.4-2.6,0.4c-1.9,0-3.6-0.6-4.8-1.9s-1.8-2.9-1.8-5s0.5-3.7,1.8-5c1.2-1.3,2.7-1.9,4.7-1.9
								c1.8-0.1,3.2,0.5,4.2,1.5c0.9,1,1.4,2.6,1.4,4.6c0,0,0,0.1,0,0.2c0,0.1,0,0.2,0,0.4h-9.7c0,1.9,0.4,3.4,1.2,4.4
								c0.9,1,2,1.5,3.6,1.5c0.9,0,1.6-0.2,2.3-0.5c0.8-0.4,1.4-0.8,2-1.4c0,0.2,0,0.5,0,0.6s0,0.2,0,0.4
								C125,20.1,125,20.5,125,20.5z M115.8,13.9h7.5v-0.5c0-1.4-0.4-2.5-1-3.2c-0.6-0.9-1.4-1.3-2.6-1.3c-1.2,0-2,0.5-2.8,1.4
								C116.3,11.3,116,12.4,115.8,13.9z M129.9,22.5c0.1-0.9,0.2-2,0.5-3.6c0.1-1.4,0.4-3.3,0.6-5.5c0.1-1.3,0.2-2.2,0.4-2.7
								c0-0.5,0-1,0-1.4c0.2,0,0.4,0.1,0.6,0.1c0.1,0,0.4,0,0.6,0.1c0.1,0,0.4,0,0.5,0c0.2,0,0.5,0,0.6,0c-0.1,0.4-0.2,0.9-0.2,1.4
								c-0.1,0.5-0.2,1-0.2,1.6c0.6-1,1.3-1.8,1.9-2.3c0.6-0.4,1.3-0.6,1.9-0.5c0.1,0,0.2,0,0.5,0.1c0.1,0,0.2,0,0.5,0.1
								c0,0.2-0.1,0.5-0.1,0.9c-0.1,0.4-0.1,0.8-0.2,1.3l-0.1,0.1c-0.2-0.2-0.5-0.4-0.8-0.4c-0.1-0.1-0.4-0.1-0.6-0.2
								c-1-0.1-1.8,0.2-2.5,1.2c-0.5,0.8-0.9,2.2-1.2,4.2c-0.1,1.2-0.2,2.3-0.4,3.2c-0.1,1-0.1,1.8-0.2,2.6
								c-0.1-0.1-0.2-0.1-0.5-0.1c-0.2-0.1-0.4-0.1-0.6-0.1c-0.1,0-0.4-0.1-0.5-0.1C130.6,22.5,130,22.5,129.9,22.5z M148.1,18.7
								c-2.5-0.2-4.1-0.2-5,0c-0.8,0.2-1.3,0.9-1.5,1.8s-0.1,1.5,0.1,2c0.2,0.6,0.9,1,1.6,1.2c0.4,0.1,0.9,0.2,1.5,0.1
								c0.5-0.1,1-0.2,1.5-0.5c0.1-0.1,0.4-0.2,0.4-0.4c0.1-0.1,0.2-0.4,0.4-0.8V22L148.1,18.7z M146.7,23.9
								c-0.8,0.5-1.5,0.8-2.3,0.9s-1.5,0.1-2.3-0.1c-1.2-0.2-2-0.8-2.6-1.5c-0.5-0.8-0.5-1.6-0.2-2.8c0.2-0.9,0.6-1.6,1.4-2
								c0.6-0.5,1.5-0.6,2.7-0.6c0.5,0,1.2,0,1.9,0.1c1.8,0.1,2.8,0.1,3.2-0.1l0.1-0.6c0.4-1.2,0.4-2.2,0-2.8c-0.2-0.8-1-1.3-2-1.5
								c-0.8-0.1-1.5-0.2-2.2,0c-0.6,0.1-1.3,0.5-1.9,1l-0.2-0.1l0.5-1.4c0.8-0.2,1.5-0.5,2.3-0.5c0.8-0.1,1.6,0,2.6,0.1
								c1.4,0.5,2.5,1.2,2.9,2c0.5,0.9,0.5,2.2,0.1,3.7v0.2l-1.3,4.6l-0.2,0.8c-0.2,0.8-0.2,1.3-0.1,1.5c0.1,0.4,0.4,0.5,0.9,0.6
								c0.1,0,0.1,0,0.2,0.1h0.1V26h-0.1c-1,0.1-1.6,0-2.3-0.1c-0.4-0.1-0.6-0.4-0.9-0.6S146.7,24.6,146.7,23.9z M112.2,211.2
								c-0.9,0-1.5,0.4-2,1c-0.6,0.8-0.9,1.6-0.9,2.8c0,1,0.2,1.8,0.8,2.3c0.5,0.5,1.2,0.9,2,0.9c0.9,0,1.5-0.4,2-1
								c0.5-0.5,0.8-1.4,0.8-2.6c0-1-0.2-1.9-0.8-2.6C113.7,211.7,113,211.2,112.2,211.2z M108.8,224.4c0,0,0-0.1,0-0.2v-0.1
								c0-0.1,0-0.2,0-0.4c0-0.1,0-0.2,0-0.4c0.4,0.2,0.8,0.5,1.2,0.6c0.2,0.1,0.6,0.2,1,0.2c0.6,0,1-0.1,1.5-0.4
								c0.4-0.2,0.8-0.6,1.2-1.3c0.5-0.5,0.8-1.3,1-2.2c0.2-0.8,0.4-1.6,0.4-2.6c0-0.1,0-0.2,0-0.2c0-0.1-0.1-0.2-0.1-0.2
								c-0.2,0.5-0.8,1-1.3,1.3c-0.6,0.4-1.3,0.5-2.2,0.5c-1.2,0-2-0.4-2.7-1c-0.8-0.8-1.2-1.8-1.2-2.9c0-1.3,0.5-2.5,1.3-3.2
								c0.9-0.9,2-1.3,3.4-1.3s2.6,0.5,3.3,1.5s1.2,2.5,1.2,4.3c0,2.5-0.5,4.4-1.6,6c-1.2,1.5-2.6,2.3-4.3,2.3c-0.4,0-0.8,0-1-0.1
								C109.4,224.7,109.2,224.5,108.8,224.4z M121.1,220.6c0,1,0.2,1.9,0.8,2.6c0.5,0.6,1.2,1,1.9,1c0.9,0,1.5-0.4,2-1
								s0.8-1.5,0.8-2.7c0-1-0.2-1.9-0.6-2.5c-0.5-0.6-1.2-0.9-2-0.9s-1.4,0.2-2,0.9C121.3,218.7,121.1,219.5,121.1,220.6z
								 M121,218.1c0.5-0.6,1-1,1.6-1.4c0.5-0.2,1.2-0.4,1.9-0.4c1.2,0,2,0.4,2.8,1c0.6,0.6,1,1.6,1,2.8c0,1.4-0.4,2.6-1.3,3.3
								c-0.8,0.9-1.9,1.3-3.3,1.3c-1.4,0-2.6-0.5-3.3-1.5s-1.2-2.5-1.2-4.3c0-2.5,0.5-4.4,1.6-6c1.2-1.5,2.7-2.3,4.4-2.3
								c0.2,0,0.4,0,0.6,0c0.2,0.1,0.5,0.1,0.8,0.2c0,0,0,0.1,0,0.2c0,0,0,0.1,0,0.2v0.1c0,0.1,0,0.2,0,0.2
								c-0.2-0.1-0.5-0.2-0.8-0.4c-0.2,0-0.5-0.1-0.8-0.1c-1.2,0-2.2,0.6-2.9,1.9C121.6,214.3,121.2,216,121,218.1z M130.2,217.8
								c0-2.3,0.5-4.1,1.3-5.4c0.8-1.2,2-1.8,3.6-1.8s2.9,0.6,3.7,1.8s1.2,2.9,1.2,5.4c0,2.3-0.4,4.1-1.2,5.3
								c-0.9,1.2-2,1.8-3.7,1.8c-1.5,0-2.8-0.6-3.6-1.8C130.8,221.9,130.2,220.1,130.2,217.8z M132.1,217.8c0,2.2,0.2,3.9,0.8,4.8
								c0.6,0.9,1.3,1.5,2.3,1.5c1.2,0,1.9-0.5,2.5-1.4c0.5-1,0.8-2.8,0.8-5.3c0-2.2-0.2-3.7-0.8-4.7c-0.5-1-1.3-1.4-2.5-1.4
								c-1,0-1.8,0.4-2.3,1.4C132.3,213.8,132.1,215.4,132.1,217.8z"/>
						</g>
					</g>
				</g>
			</g>
		</g>
	</g>
	<path class="st3" d="M151.7,83.9h-1.5l-0.1,4h1.5L151.7,83.9z M146.1,161.9c-0.2,0.2-0.5,0.5-0.9,0.6l-0.4,8.9
		c0.2,0,0.5,0.1,0.9,0.1L146.1,161.9z M93.3,161.9c0.4,0.2,0.6,0.5,0.9,0.8l0.4,8.8c-0.2,0-0.5,0.1-0.8,0.1L93.3,161.9z M95,163.2
		c0.2,0.2,0.6,0.4,0.9,0.6l0.2,7.4c-0.2,0.1-0.5,0.1-0.8,0.1L95,163.2z M96.5,164.1c0.2,0.1,0.6,0.2,0.9,0.5l0.2,6.3
		c-0.2,0.1-0.5,0.1-0.9,0.1L96.5,164.1z M142.7,164.1c-0.2,0.1-0.5,0.2-0.8,0.4l-0.4,6.4c0.4,0.1,0.6,0.1,0.9,0.1L142.7,164.1z
		 M144.5,163.2c-0.4,0.2-0.6,0.4-0.9,0.5l-0.4,7.5c0.2,0,0.6,0.1,0.9,0.1L144.5,163.2z M87.8,83.8h1.5l0.1,4h-1.5L87.8,83.8z
		 M90.6,83.8h1.5l0.1,4h-1.5L90.6,83.8z M93.4,83.8H95l0.1,4h-1.5L93.4,83.8z M116.1,83.8h1.5l0.1,4h-1.6V83.8z M118.9,83.8h1.5v4
		h-1.5V83.8z M121.7,83.8h1.5v4h-1.5V83.8z M146,83.9h-1.5l-0.1,4h1.5L146,83.9z M148.9,83.9h-1.6l-0.1,4h1.5L148.9,83.9z"/>
	<path class="st4" d="M166,147.1c-2.3-0.1-4.6,0-6.9,0.5c-2.2,0.5-3.9,1.2-6,2.2l-0.4,3.6c0,0.1-0.2,0.8-0.4,1
		c2.5,1.3,5.1,2.2,8.2,3.2c0.4-1.3,0.6-2.5,1.8-4.2C163.4,151.3,165,149.1,166,147.1z M102,91c0.1-0.4,0.4-0.5,0.8-0.1
		c0.8,0.8,1.5,1.5,1.8,2.6c0.2,1.2-0.2,2.5-1.9,5.5c-0.6,1.5-0.8,2-0.9,2.8c0.4-0.8,1.6-1.8,2.7-2.7c0.4-0.5,0.8-1,1-1.8
		c0.1-0.6,0.5-0.9,0.9-0.2c2.3,2.7,1.6,4.3,1.5,5.4c-1,2.7-1.9,4.2-1.4,5.9c0.1,0.5-0.1,0.8-0.5,0.6c-1.6-0.5-2.6-1.8-2.9-3.3
		c-0.8,1.4-0.4,2.7,0.4,3.9c0.4,0.4,0.1,0.8-0.4,0.6c-2-0.4-3.3-1.6-4-3.2c-0.2,1.5,0.5,3.2,1.9,4.4c0.6,0.4,0.2,0.9-0.4,0.8
		c-2.2,0-3.4-0.9-4.1-1.4c0.2,1,0.8,2,2.6,2.9c0.1,0.1,0.1,0.1,0.2,0.1c0.2,0.1,0.2,0.5-0.2,0.8c-1.9,0.5-3.4,0.2-4.8-0.1
		c-3.6-1-5.6-2.9-6.8-5.5c-0.9-2.9-0.2-5.3,1.5-6.7c1.3-1,2.7-1,3.9-1.4s2.2-1.2,3-3c0.6-1.5,1.6-2.7,3-3.6c0.9-0.6,1.5-0.9,2-1.4
		C101.7,92.2,101.9,91.6,102,91z M110.3,108.4c-1-1.3-2.2-1-3.3,0l-3.7,3.4l-3.7,3.3c-1.2,1-1.5,2.2-0.2,3.3c-1,1.2-1.4,1.8-0.6,2.8
		c0.4,0.6,0.9,1.2,1.5,1.8c0.6,0.4,1.4,0.5,2.8-0.5c0.9,1,2,0.8,2.9-0.1l6.9,6.1c-2.2-0.8-3.7-1.2-6.1-1.6c-3.2-0.5-6.1-0.1-8.5,0.9
		c-3.7,1.6-6.1,3.7-6.8,5.8c-1,3.4,0.6,7.7,4.3,10.1c1.8,1.3,3.9,2.3,5.7,3.3c2.9,1.5,5.3,3.2,6.9,5.5c0.4,0.6,0.8,0,0.9-0.2
		c0.5-1.2,0.8-2.9,0.2-5.4c-0.2-1.3-0.6-1.9-1.2-2.5c-0.5-0.5-1-0.9-1.3-1.5c-0.4-0.9-0.6-1.9-0.4-3.2c0.6-2.8,3-3.3,5.5-2.9
		c3.6,0.6,6.8,2.6,9.4,4.2l0.9,4.2c0.1,0.4,0.1,0.4,0.5,0.4l4,1.3c0.4,0.5,1,1.3,1.2,2c0.1,0.5,0.4,0.9,0,2.2
		c-0.6,1.3-3.4,1.3-4.4,1.5c-0.5,0.1-0.9,0.2-1.3,0.4c-0.9,0.4-1.4,0.9-1.6,1.6c-0.2,0.6,0,1.5,0.4,2.7c0,0.1,0.4,0.4,0.6,0.1
		c0.2-0.6,0.9-1.3,1.5-1.4c1.3-0.2,2.2,0,2.7,0.2c2.3,0.9,4,1.8,5.5,1.8c0.9,0,1.6-0.2,2.3-0.8c0.6-0.5,1-1.2,1.3-1.9
		c1.2,0.8,2.3,1,4.6,1.5c1.5,0.1,3.2,0.2,4.7,0.4c0.4,0,0.5,0,0.5,0c0-0.1,0-0.1,0-0.1c0.1,0,0.1-0.1,0.1-0.5c0.1-1.5,0.1-3.2,0-4.7
		c-0.1-2.5-0.4-3.6-1-4.7c0.8-0.1,1.5-0.5,2-1.2c0.5-0.5,0.9-1.3,1-2.2c0.1-1.5-0.6-3.2-1.4-5.6c-0.1-0.5-0.4-1.4,0-2.7
		c0.2-0.6,1-1.2,1.5-1.4c0.4-0.2,0.2-0.6,0-0.6c-1-0.5-1.9-0.8-2.7-0.6c-0.8,0.1-1.3,0.6-1.8,1.4c-0.1,0.4-0.4,0.9-0.5,1.3
		c-0.2,1.2-0.8,4-1.9,4.3c-1.4,0.2-1.9,0-2.3-0.1c-0.8-0.2-1.4-0.9-1.8-1.3l-0.9-4.2c0-0.2,0-0.4-0.2-0.4l-4.2-1.4
		c-1.4-2.7-3-6.1-3.3-9.7c-0.1-2.5,0.5-4.7,3.4-5.1c1.3-0.2,2.3,0.1,3,0.6c0.8,0.2,0.9,0.9,1.5,1.4c0.4,0.5,1,1,2.2,1.4
		c2.5,0.8,4.2,0.6,5.5,0.2c0.2-0.1,0.9-0.5,0.2-0.9c-2.2-1.8-3.6-4.3-4.8-7.4c-0.9-1.9-1.6-4.1-2.7-6c-2.2-4-6.3-6-9.7-5.3
		c-2.2,0.4-4.4,2.7-6.5,6.3c-1.3,2.3-1.8,5.1-1.6,8.3c0.4,2.6,0.5,4.1,1,6.4l-5.4-7.5c1-0.9,1.3-1.9,0.4-2.9c1.2-1.3,1.2-2,0.8-2.7
		c-0.5-0.6-1-1.3-1.5-1.8C112.2,107.3,111.5,107.7,110.3,108.4z M118.5,88.9h39.9c-2.2,21.4-4.6,42.6-6.8,63.9
		c-2.2,4.6-5.6,7.9-9.8,10.2c-4,2.2-8.5,3.6-13.7,4.2c-3.4,0.4-4,0.5-7.1,0.5c-0.4,0-0.8,0-1.3,0c-0.4,0-0.8,0-1.2,0
		c-3.2,0-3.7-0.1-7.1-0.5c-5.3-0.6-9.7-2-13.7-4.2c-4.2-2.3-7.7-5.6-9.8-10.2c-2.2-21.3-4.6-42.4-6.8-63.9
		C81.1,88.9,118.5,88.9,118.5,88.9z M73.3,147.1c2.2-0.1,4.3-0.1,6.8,0.5c2.2,0.4,4.2,1.3,6.1,2.3l0.4,3.3c0,0.1,0.2,0.8,0.4,1.2
		c-2.5,1.3-5,2-8.1,3c-0.4-1.3-0.8-2.3-1.8-4.2C75.8,151.2,74.4,149.1,73.3,147.1z M69.5,169.2c2.5,1.6,5.1,2.9,7.9,3.7
		c3.3,0.8,7,1,10.2,0.5c7.1-0.8,9.8-1.3,16.7-2.3c5.7-0.9,10.8-1.4,15.3-1.4s9.6,0.5,15.3,1.4c6.9,1,9.7,1.5,16.8,2.3
		c3.2,0.5,6.8,0.2,10.2-0.5c2.7-0.8,5.5-2,7.8-3.7c-0.8,4.2-2,8.2-3.6,12.2c-1.2,2-1.6,2.7-2.6,4c-1.6,1.4-3.2,2.5-6,3.2
		c-3.3,0.8-6.7,0.8-10.8,0.1c-2.6-0.8-5.5-1.2-8.5-1.9c-4.1-0.6-8.1-1.2-12.2-1.4c-2.2-0.1-4.3-0.2-6.5-0.2h-0.2
		c-2.2,0-4.3,0.1-6.4,0.2c-4.1,0.2-8.2,0.8-12.2,1.4c-3.2,0.8-6.1,1.2-8.7,1.9c-4.3,0.6-7.5,0.5-10.9-0.1c-2.9-0.6-4.8-2-5.7-3
		c-1-1.2-2.3-3.3-3-4.8C71.2,176.6,70.2,173.3,69.5,169.2z"/>
	<path class="st5" d="M102.5,91.6c-0.6,1.6-1.8,2.2-3.7,3.6c-1.2,0.8-1.9,1.9-2.7,3.6c-0.9,1.6-2,2.6-3.4,2.8
		c-2.6,0.4-5.3,1.6-5,5.3c0.2,4.1,5.7,8.1,10.8,7.1c-1.5-0.8-2.6-2.2-2.6-4c0.1-0.5,0.5-0.4,0.6-0.1c0.4,0.5,1.9,1.5,3.9,1.6
		c-2.3-2.2-2-4.3-1.5-5.7c0.2-0.4,0.6-0.2,0.6,0c0.1,0.5,0.2,1,0.6,1.5c0.5,0.6,1.5,1.6,2.7,2c-0.9-1.5-0.9-3.2-0.1-4.6
		c0.2-0.6,0.8-0.4,0.8,0s0.5,2.6,2.5,3.3c-0.4-2,0.8-4.1,1-5.1c1.5-3.2-0.5-5-0.8-5.5c-0.4,1-1.2,2-2.6,3c-0.8,0.6-1.3,1.4-1.8,2.5
		c-0.1,0.5-0.8,0.4-0.8-0.1c0-2.2,0.8-3.4,1-4.1c0.2-0.6,0.6-1.4,1-2C104,94.9,104.5,93.2,102.5,91.6z M69.5,167.8
		c-0.8-3,0.8-4.8,2.7-6.1c2.6-1.4,5.5-2.6,8.8-3.6c2.3-0.8,4.6-1.6,6.8-2.7c1,1.8,2.5,3.6,4,5c-2.5,1.6-5,3.3-7.8,5.4
		c-2.8,2.2-4.1,4.3-4.3,6.4C77.5,171.8,74.3,171.1,69.5,167.8z M169.9,167.7c0.6-3.2-0.8-4.7-2.7-5.9c-2.5-1.4-5.4-2.7-8.8-3.7
		c-2.2-0.8-4.6-1.5-6.8-2.6c-1.2,1.6-2.5,3.4-4,5c2.6,1.5,5.1,3.2,7.7,5.1c2.8,2.3,4.2,4.2,4.6,6.5
		C161.9,171.8,165,171.1,169.9,167.7z M131.6,143.2l-1.4,1.3c1,1,1.9,2.8,2.7,5.7c0.9,2.8,1.3,4.8,4.3,5.6c2,0.5,4.3,0.8,6.9,0.9
		h0.1c0.1-2.7,0.1-5-0.4-7.1c-0.5-3-2.5-3.6-5.1-4.7c-2.9-1-4.7-2-5.6-3L131.6,143.2z M122.4,141l8.3-7.5l3.6,1.2l-11.1,10.1
		L122.4,141z M123.7,138.8l-1.4,1.3l-0.4,0.4c-3.6-2.5-6.8-3.9-9.4-4.2c-2.3-0.4-4.1,0-5.3,1.3c-1.3,1.3-1.4,3-1.2,4.6
		c0.4,1.2,1,2.2,1.6,2.7c0.8,0.6,1.2,1.5,1.4,3s0,2.9-0.2,4c-0.9-1-1.8-1.9-2.7-2.7c-0.8-0.6-1.6-1.2-2.5-1.6
		c-3.3-1.9-7.1-3.4-9.5-5.9c-0.5-0.5-1-1.3-1.5-2c-0.9-1.9-1.3-4.2-0.6-5.9c0.2-0.8,0.9-1.8,3.2-3.4c2-1.5,4.4-2.6,7.4-2.8
		c3.4-0.2,6.9,0.8,11.2,2C117.4,132.9,120.3,135.7,123.7,138.8z M106.6,122l6.5-5.9c4.7,6.4,9.6,12.7,14.7,18.8l-3.7,3.4
		C118.1,132.1,112.1,126.7,106.6,122z M128.5,134.4l1.6-1.5c-1.9-3.7-3.2-7.1-3.4-9.6c-0.2-2.6,0.5-4.2,1.8-5.4c1-0.6,2-0.9,2.9-0.9
		c0.9-0.1,1.6,0.1,2.6,0.5c0.8,0.4,1.4,0.9,1.8,1.5c0.9,0.8,1,1,3.2,1.6c1.4,0.4,2.7,0.4,3.7,0.1c-1-0.9-1.8-1.9-2.5-2.9
		c-0.6-0.8-1-1.6-1.5-2.6c-1.6-3.6-2.7-7.3-4.8-9.8c-0.5-0.5-1.3-1.2-2-1.6c-1.8-1-4-1.6-5.7-1c-0.8,0-1.9,0.5-3.7,2.8
		c-1.6,1.8-2.8,4.1-3.3,7c-0.5,3.4,0.1,7,1,11.5C123,127.7,125.4,130.8,128.5,134.4z M103.1,115.7c2-1.8,5.3-5.3,7.9-7
		c0.8-0.4,1.3-0.4,1.5-0.1c0.4,0.2,1.3,1.2,1.6,1.8c0.1,0.4,0.1,0.5-0.1,1c-0.5,0.6-1.4,1.5-2,2.2c-1.8,1.6-4.1,3.9-6,5.6
		c-1.3,1.2-2.6,2.3-3.6,2.9c-0.9,0.6-1.3,0.8-1.6,0.4c-0.6-0.5-1-1-1.4-1.4c-0.5-0.5-0.5-1,0.1-1.6
		C100,118.6,102.4,116.3,103.1,115.7z"/>
	<path class="st6" d="M127.5,146.9l2.2-2c0.6,0.8,1.4,1.6,2,4.1c0.6,2,1,4.3,2.6,6.1c0.1,0.8-0.9,2.2-2.3,2.5
		c-1.3,0.4-2.5-0.1-5.4-1.4c-2.2-1-4.3-0.8-5.3,0.6c-0.5-1.5-0.2-2.5,1-2.9c1.4-0.5,2.9-0.4,4.7-1c1.3-0.5,1.5-1,1.6-2.6
		C128.9,148.9,128.5,147.7,127.5,146.9z M113.6,114.7c-0.2,0.2-0.5,0.5-1.2,1c-1.8,1.8-5.3,4.8-6.7,6.1c-0.2,0.2-0.5,0.5-0.6,0.5
		c-0.9,0.5-1.4,0.1-1.6-0.2c0.1-0.1,0.6-0.6,1.9-1.5c1.3-1.3,3.2-3,5.9-5.6c0.8-0.6,1.4-1.3,2.2-1.9c0.1,0.1,0.2,0.2,0.2,0.5
		C114.2,114,114,114.3,113.6,114.7z M99.5,116.3c0.2-0.2,0.6-0.5,1.2-1c1.9-1.8,5.4-4.8,6.8-6.3c0.2-0.2,0.5-0.4,0.6-0.5
		c0.9-0.5,1.3,0,1.6,0.4c-0.1,0.1-0.6,0.6-1.9,1.5c-1.3,1.3-3.2,3-5.9,5.6c-0.8,0.5-1.4,1.3-2.2,2c-0.1-0.2-0.2-0.4-0.4-0.5
		C99.1,117,99.2,116.6,99.5,116.3z M135.5,138.7l-8.3,7.7l-3.6-1.2l11.1-10.2L135.5,138.7z M128.5,134.4l1.8-1.4
		c-2-3.9-3.3-7.3-3.4-9.8c-0.2-2.3,0.4-4.1,1.6-5.1c1.5-1.2,3.3-1.3,4.7-0.8c1.2,0.4,2,1.2,2.6,1.8c0.6,0.8,1.4,1.3,2.9,1.8
		c1.4,0.4,2.8,0.4,4,0.1l-0.1-0.1c-1-0.1-1.9-0.5-2.8-1s-1.8-1.2-2.6-1.9c-1.3-1.5-2.7-3.2-4.1-4.8c-0.6-0.8-1.5-2-2.3-2.3
		c-0.8-0.4-1.6-0.2-2.3-0.1c-1.5,0.4-3,1.4-4.3,4.6c-0.6,2-1.4,4.4-0.5,8.7C124,126.1,125.9,130.4,128.5,134.4z M123.7,138.8
		l-1.8,1.6c-3.6-2.3-6.8-3.9-9.4-4.2c-2.3-0.4-4.1,0.1-5.3,1.3c-1.3,1.4-1.4,3.2-1,4.6c0.1,1.3,0.9,2,1.5,2.6
		c0.6,0.8,1.2,1.6,1.4,3.2c0.2,1.6,0.1,3-0.2,4.1l-0.1-0.2c0-1-0.2-2-0.6-2.9c-0.4-0.9-0.9-1.8-1.6-2.6c-1.4-1.5-2.9-3-4.4-4.4
		c-0.8-0.8-1.9-1.8-2.2-2.6c-0.2-0.8-0.1-1.6,0.1-2.3c0.5-1.4,1.5-2.9,5-4c2-0.5,4.4-1,8.7,0.1C115.7,133.7,119.8,135.9,123.7,138.8
		z M135.7,139.3l-2.2,1.9c0.8,0.6,1.6,1.5,4,2.3c2,0.8,4.2,1.4,5.9,3c0.9,0.2,2.5-0.6,2.8-1.9c0.4-1.2,0-2.5-1-5.6
		c-0.8-2.2-0.5-4.2,1-5.1c-1.4-0.5-2.5-0.4-2.9,0.9c-0.8,1.4-0.8,2.8-1.5,4.6c-0.6,1.2-1.2,1.4-2.7,1.4
		C137.8,140.8,136.8,140.2,135.7,139.3z"/>
	<path class="st7" d="M158.9,45.4c-3,1-7,0.2-8.7,4.2c-0.6,1.4-1,2.5-2,3.9c-0.2,0.5-0.6,0.9-1.5,1.3c-2.5,1.4-7.3,3-7.7,5.7
		c-0.4,2.8,0.4,5.6,2.7,7.3c-0.4-1.3-0.4-4.2,1.5-6.5c0.4-0.6,1-0.2,1,0.1c-0.2,1-0.2,3.7,0.8,5.1c0.1-3.9,2.3-7.7,5-9.5
		c0.6-0.4,0.9,0.2,0.6,0.5c-0.2,0.8-0.5,1.4-0.8,2c-0.5,2.3-0.4,4.4,0.5,6.8c0.4-1.9,1.5-3.7,4.2-5.5c0.8-0.5,1,0.2,0.6,0.6
		c-1,2.2-1.9,5.3-0.8,6.8c2.3-0.5,2-2.5,2.6-4.4c0.4-1.3,0.4-1.3,2.2-4.2c0.8-2,0.2-3.2-0.1-6c-0.4,0.6-1.6,4-5.4,4.4
		c-0.9,0.1-1.5-0.1-0.9-0.9c1-1.5,1.9-2.6,2.5-4.3C155.6,49.7,157.2,47.9,158.9,45.4z M101.4,45.4c-3.2,1-7.1,0.2-8.7,4.2
		c-0.6,1.4-1,2.5-2,3.9c-0.4,0.5-0.6,0.9-1.5,1.3c-2.5,1.4-7.3,3-7.8,5.7c-0.2,2.8,0.4,5.6,2.7,7.3c-0.4-1.3-0.4-4.2,1.6-6.5
		c0.4-0.6,0.9-0.2,0.9,0.1c-0.1,1-0.1,3.7,0.9,5.1c0-3.9,2.3-7.7,4.8-9.5c0.6-0.4,0.9,0.2,0.6,0.5c-0.2,0.8-0.5,1.4-0.6,2
		c-0.6,2.3-0.5,4.4,0.4,6.8c0.5-1.9,1.5-3.7,4.3-5.5c0.6-0.5,0.9,0.2,0.6,0.6c-1.2,2.2-1.9,5.3-0.9,6.8c2.5-0.5,2-2.5,2.7-4.4
		c0.2-1.3,0.4-1.3,2-4.2c0.8-2,0.2-3.2-0.1-6c-0.4,0.6-1.5,4-5.4,4.4c-0.8,0.1-1.4-0.1-0.9-0.9c1-1.5,2-2.6,2.5-4.3
		C97.9,49.7,99.6,47.9,101.4,45.4z M129.8,45.4c-3,1-7,0.2-8.7,4.2c-0.6,1.4-1,2.5-2,3.9c-0.2,0.5-0.6,0.9-1.5,1.3
		c-2.5,1.4-7.3,3-7.7,5.7c-0.4,2.8,0.4,5.6,2.7,7.3c-0.4-1.3-0.4-4.2,1.5-6.5c0.4-0.6,1-0.2,0.9,0.1c-0.1,1-0.1,3.7,0.9,5.1
		c0.1-3.9,2.3-7.7,5-9.5c0.6-0.4,0.9,0.2,0.6,0.5c-0.2,0.8-0.5,1.4-0.8,2c-0.5,2.3-0.4,4.4,0.5,6.8c0.4-1.9,1.5-3.7,4.2-5.5
		c0.8-0.5,1,0.2,0.6,0.6c-1,2.2-1.9,5.3-0.8,6.8c2.3-0.5,2-2.5,2.6-4.4c0.4-1.3,0.4-1.3,2.2-4.2c0.8-2,0.2-3.2-0.2-6
		c-0.2,0.6-1.5,4-5.3,4.4c-0.9,0.1-1.5-0.1-0.9-0.9c1-1.5,1.9-2.6,2.3-4.3C126.5,49.7,128.1,47.9,129.8,45.4z"/>
	<path class="st5" d="M78.9,175.7l0.1,3.2l-0.2-0.2c-0.1-0.6-0.2-1.2-0.4-1.5c-0.2-0.4-0.4-0.6-0.8-0.9c-0.2-0.4-0.5-0.5-0.9-0.6
		c-0.4,0-0.6,0-0.8,0.2c-0.2,0.1-0.2,0.4-0.2,0.8c0,0.2,0.1,0.5,0.2,0.8c0.2,0.4,0.8,0.9,1.5,1.6c0.8,0.6,1.2,1,1.4,1.4
		c0.2,0.2,0.5,0.6,0.6,0.9c0.1,0.4,0.2,0.8,0.2,1.2c0.1,0.6-0.1,1.2-0.5,1.5c-0.4,0.4-0.8,0.5-1.4,0.4c-0.2-0.1-0.5-0.2-0.6-0.2
		c-0.1-0.1-0.4-0.2-0.8-0.5c-0.2-0.1-0.5-0.2-0.6-0.4c0,0-0.1,0-0.1,0.1c0,0,0,0.1,0,0.4l-0.4-0.1l-0.1-3l0.2,0.1
		c0.1,0.6,0.2,1.2,0.4,1.5c0.2,0.2,0.5,0.6,0.8,0.9c0.4,0.2,0.6,0.5,1,0.5c0.4,0.1,0.8,0.1,0.9-0.1c0.2-0.1,0.4-0.4,0.4-0.8
		c-0.1-0.2-0.1-0.5-0.2-0.8c-0.1-0.1-0.2-0.4-0.5-0.6c-0.1-0.2-0.5-0.5-1.2-1.2c-0.5-0.6-1-1-1.3-1.4c-0.2-0.2-0.5-0.6-0.6-0.9
		c-0.1-0.4-0.2-0.8-0.2-1.2c-0.1-0.6,0.1-1.2,0.5-1.4c0.4-0.4,0.8-0.5,1.4-0.2c0.4,0,0.8,0.2,1.2,0.6c0.2,0.1,0.4,0.2,0.4,0.2
		c0.1,0,0.1,0,0.2,0c0-0.1,0-0.2,0.1-0.4L78.9,175.7C78.9,175.6,78.9,175.7,78.9,175.7z M113.3,173l0.1,3H113c0-0.5-0.1-1-0.2-1.3
		c-0.2-0.4-0.5-0.6-0.8-0.8c-0.4-0.1-0.6-0.2-1-0.2c-0.4,0.1-0.6,0.2-0.9,0.5c-0.2,0.2-0.2,0.6-0.2,0.9c0,0.2,0,0.5,0.1,0.8
		c0.2,0.2,0.8,0.6,1.6,1c0.6,0.4,1.2,0.8,1.4,0.9c0.2,0.2,0.5,0.5,0.6,0.9c0.1,0.2,0.2,0.6,0.2,0.9c0,0.8-0.2,1.3-0.6,1.8
		c-0.5,0.5-1,0.9-1.8,0.9c-0.1,0-0.4,0-0.5,0s-0.4,0-0.8-0.1s-0.6-0.1-0.6-0.1c-0.1,0-0.1,0-0.2,0.1c0,0,0,0.1-0.1,0.4H109v-3h0.2
		c0.1,0.6,0.2,1,0.4,1.4c0.2,0.2,0.4,0.5,0.8,0.6c0.2,0.1,0.6,0.2,1,0.2c0.5-0.1,0.9-0.2,1.2-0.5c0.2-0.4,0.4-0.6,0.4-1
		c0-0.2-0.1-0.4-0.2-0.6c0-0.2-0.2-0.4-0.4-0.5c-0.1-0.1-0.6-0.4-1.3-0.8c-0.6-0.4-1-0.6-1.3-0.9c-0.2-0.2-0.5-0.5-0.6-0.8
		s-0.2-0.6-0.2-1c0-0.6,0.2-1.2,0.6-1.6c0.4-0.5,0.9-0.8,1.5-0.8c0.4-0.1,0.9,0,1.3,0.2c0.2,0,0.4,0,0.4,0c0.1,0,0.2,0,0.2,0
		c0.1-0.1,0.1-0.2,0.1-0.5L113.3,173L113.3,173z M123.9,177.9l-0.1,2.6c0,0.5,0,0.9,0.1,1s0.2,0.2,0.5,0.2h0.4v0.4l-3.2-0.2L119,182
		v-0.4c0.2,0,0.5,0,0.5-0.1c0.1-0.1,0.2-0.2,0.2-0.4c-0.1-0.1-0.1-0.4-0.2-0.9L119,179h-2.8l-0.5,1.4c-0.1,0.2-0.1,0.5-0.1,0.8
		c0,0.1,0,0.1,0.1,0.2c0.1,0.1,0.4,0.1,0.8,0.1v0.4H114v-0.2c0.2-0.1,0.5-0.1,0.6-0.2c0.1-0.2,0.2-0.6,0.5-1.3l2.6-7.1h0.2l2.7,7.1
		c0.2,0.6,0.4,0.9,0.6,1.2c0.1,0.1,0.4,0.2,0.6,0.2s0.4-0.1,0.5-0.2c0.1-0.1,0.1-0.5,0.1-0.9l0.1-5.7c0.1-0.5,0-0.8,0-0.9
		c-0.2-0.2-0.4-0.4-0.6-0.4h-0.4l0.1-0.2l2.7,0.1c0.6,0,1.2,0.1,1.5,0.2c0.4,0.2,0.8,0.5,1,0.9s0.4,0.9,0.4,1.4
		c0,0.8-0.2,1.3-0.6,1.8c-0.5,0.4-1,0.5-1.8,0.5c-0.1,0-0.4,0-0.6,0C124.3,178,124,178,123.9,177.9z M130.3,182.1l-0.1,0.4l-3.2-0.2
		v-0.4h0.4c0.2,0.1,0.4,0,0.6-0.1c0-0.1,0.1-0.5,0.1-1l0.6-5.6c0-0.5,0-0.8,0-0.9s-0.1-0.1-0.1-0.2c-0.2-0.1-0.4-0.1-0.5-0.2h-0.4
		l0.1-0.4l3.2,0.4v0.2h-0.3c-0.2,0-0.5,0.1-0.6,0.2c0,0.1-0.1,0.4-0.1,1l-0.6,5.6c0,0.4,0,0.8,0,0.9c0,0.1,0.1,0.1,0.2,0.2
		c0,0,0.1,0,0.1,0.1c0.1,0,0.1,0,0.2,0H130.3z M134.2,174.7L134,178l1.5,0.2c0.4,0.1,0.6,0.1,0.8,0c0.2-0.2,0.4-0.5,0.5-1h0.2
		l-0.4,3h-0.2c0-0.4,0-0.8,0-0.9c-0.1-0.1-0.1-0.2-0.4-0.4c-0.1-0.1-0.2-0.1-0.6-0.2l-1.5-0.2l-0.2,3c-0.1,0.4-0.1,0.5-0.1,0.6
		s0.1,0.1,0.1,0.2c0.1,0,0.2,0,0.4,0.1l1.3,0.2c0.4,0,0.6,0,0.9,0s0.4-0.4,0.6-0.5c0.2-0.2,0.5-0.5,0.8-1h0.2l-0.9,2.2l-5.7-0.9
		l0.1-0.4l0.2,0.1c0.2,0,0.4,0,0.5,0c0.1-0.1,0.1-0.1,0.2-0.2c0-0.1,0-0.4,0.1-0.9l0.6-5.7c0-0.6,0-0.9-0.1-1c0-0.2-0.2-0.4-0.5-0.4
		h-0.2v-0.4l5.7,1.2l-0.1,1.9h-0.4c0-0.5,0-0.9-0.1-1c0-0.2-0.1-0.4-0.2-0.5c-0.2,0-0.5-0.1-0.8-0.1L134.2,174.7z M152.2,185.5
		l0.1-0.4h0.2c0.2-0.1,0.5-0.1,0.6-0.4c0.1-0.1,0.2-0.5,0.2-1l0.6-5.9c0.1-0.5,0.1-0.8,0-0.9c0-0.1,0-0.2-0.1-0.2
		c-0.1-0.1-0.2-0.1-0.5-0.1h-0.2v-0.4l3.3-0.1v0.2l-0.4,0.1c-0.2,0-0.5,0.1-0.6,0.2c-0.1,0.1-0.1,0.5-0.2,1l-0.6,6
		c0,0.4,0,0.6,0,0.8c0,0.1,0.1,0.2,0.1,0.2c0.2,0.1,0.4,0.1,0.5,0.1h0.2c0.4,0,0.6-0.1,0.8-0.2c0.1-0.2,0.4-0.8,0.5-1.2l1.8-7.3
		l0.1-0.4l4.1-1.3l0.4,2h-0.2c-0.1-0.4-0.2-0.8-0.4-0.9c-0.1-0.1-0.1-0.2-0.2-0.2c-0.1,0-0.4,0-0.6,0.1l-1.4,0.4l0.5,3.3l1.2-0.4
		c0.2,0,0.4-0.1,0.5-0.4c0.1-0.1,0.1-0.5,0.1-1l0.2-0.1l0.4,3l-0.2,0.1c-0.1-0.4-0.1-0.8-0.2-0.8c0-0.1-0.1-0.2-0.2-0.2
		c-0.1-0.1-0.2-0.1-0.5,0l-1.2,0.4l0.4,2.7c0.1,0.4,0.1,0.5,0.2,0.6v0.1c0.1,0,0.1,0,0.4,0l0.9-0.2c0.2-0.1,0.4-0.1,0.6-0.4
		c0.1,0,0.1-0.2,0.2-0.4c0.1-0.4,0.2-0.9,0.4-1.4l0.2-0.1l-0.1,2.5l-4.3,1.3v-0.2h0.2c0.1-0.1,0.2-0.1,0.2-0.2
		c0.1-0.1,0.1-0.1,0.1-0.4c0-0.1,0-0.4,0-0.8l-0.4-2.7l-1.6,0.5l-0.9,3c-0.1,0.4-0.1,0.6,0,0.8c0.1,0.1,0.5,0.1,0.9,0.1v0.2
		C155.9,185.3,154.5,185.5,152.2,185.5z M138.9,175l1.9,0.2l3.3,6.9l0.5-4.8c0.1-0.5,0.1-0.9,0-1s-0.2-0.2-0.5-0.2l-0.2-0.1v-0.2
		l2.5,0.2v0.4l-0.2-0.1c-0.2,0-0.5,0.1-0.6,0.2c-0.1,0.1-0.1,0.4-0.1,0.9l-0.9,7.4h-0.2l-3.7-7.4l-0.5,5.1c0,0.6,0,0.9,0,1
		c0.1,0.2,0.2,0.4,0.5,0.4h0.2v0.4l-2.5-0.4v-0.4h0.2c0.4,0.1,0.5,0,0.6-0.1s0.2-0.4,0.2-0.9l0.6-6c-0.1-0.4-0.2-0.5-0.4-0.6
		c-0.1-0.1-0.2-0.2-0.4-0.4c-0.1,0-0.2,0-0.5,0L138.9,175z M152.9,176.1l-0.1,2.2h-0.2c0-0.4,0-0.6-0.1-0.8
		c-0.1-0.4-0.2-0.5-0.4-0.6c-0.1-0.1-0.4-0.1-0.8-0.1l-0.9-0.1l-0.4,6.9c-0.1,0.6,0,0.9,0,1c0.1,0.2,0.4,0.4,0.6,0.4h0.2v0.2
		l-3.2-0.1v-0.2h0.2c0.1,0,0.2,0,0.4,0c0.1-0.1,0.2-0.1,0.2-0.2c0.1-0.2,0.1-0.5,0.2-1l0.4-6.9h-0.9c-0.4,0-0.5,0-0.8,0
		c-0.1,0.1-0.2,0.2-0.5,0.5c-0.1,0.2-0.1,0.5-0.2,1l-0.2-0.1l0.2-2.2L152.9,176.1z M159.3,176.4l-0.5,1.6l-0.4,1.8l1.4-0.4l-0.4-2.3
		C159.6,176.7,159.6,176.5,159.3,176.4z M118.9,178.6l-1.3-3.4l-1.2,3.4H118.9z M123.9,177.5c0.1,0,0.2,0.1,0.4,0.1s0.2,0,0.4,0
		c0.4,0,0.8-0.1,1-0.4c0.2-0.4,0.4-0.8,0.4-1.4c0.1-0.4,0-0.6-0.1-1c-0.1-0.2-0.2-0.5-0.5-0.6c-0.2-0.2-0.5-0.2-0.8-0.4
		c-0.2,0-0.4,0.1-0.6,0.1L123.9,177.5z M104.4,174.5l0.4,3l-0.2,0.1c-0.1-0.6-0.4-1-0.5-1.4c-0.2-0.2-0.5-0.5-0.9-0.6
		c-0.2-0.1-0.6-0.1-0.9,0c-0.4,0-0.6,0.1-0.9,0.5c-0.1,0.4-0.2,0.6-0.2,1c0.1,0.2,0.1,0.4,0.4,0.6c0.3,0.2,0.8,0.5,1.6,0.9
		s1.3,0.5,1.5,0.8c0.2,0.1,0.5,0.4,0.8,0.6c0.1,0.4,0.2,0.6,0.2,1c0.1,0.6,0,1.3-0.4,1.9c-0.4,0.5-0.9,0.9-1.5,1c-0.2,0-0.5,0-0.6,0
		s-0.4,0-0.8,0c-0.4-0.1-0.5-0.1-0.6-0.1s-0.1,0.1-0.2,0.1c0,0.1,0,0.2,0,0.4l-0.2,0.1l-0.4-3h0.2c0.1,0.5,0.4,1,0.5,1.3
		c0.2,0.2,0.5,0.5,0.9,0.6c0.2,0.1,0.6,0.1,1,0.1c0.4-0.1,0.8-0.4,1-0.6c0.2-0.4,0.2-0.8,0.2-1.2c-0.1-0.1-0.1-0.4-0.2-0.5
		c-0.1-0.2-0.2-0.4-0.5-0.5c-0.1-0.1-0.6-0.2-1.3-0.6c-0.6-0.2-1.2-0.5-1.4-0.6c-0.4-0.2-0.5-0.5-0.8-0.8c-0.1-0.2-0.2-0.6-0.2-1
		c-0.1-0.5,0-1.2,0.4-1.6c0.2-0.5,0.8-0.9,1.4-1c0.4-0.1,0.9-0.1,1.3,0.1c0.2,0,0.4,0,0.5,0c0,0,0.1,0,0.1-0.1
		c0.1,0,0.1-0.2,0.1-0.4h0.2L104.4,174.5L104.4,174.5z M96.1,176.7l0.1,3.3l1.6-0.2c0.4,0,0.6-0.1,0.8-0.2c0.1-0.2,0.2-0.6,0.2-1.2
		H99l0.1,3h-0.2c0-0.4-0.1-0.6-0.1-0.8c-0.1-0.1-0.2-0.2-0.4-0.2c-0.1-0.1-0.4-0.1-0.6,0l-1.6,0.2l0.1,2.8c0.1,0.4,0.1,0.6,0.1,0.6
		c0,0.1,0.1,0.1,0.1,0.1c0.1,0.1,0.2,0.1,0.4,0l1.3-0.1c0.4-0.1,0.8-0.1,0.9-0.2c0.1-0.1,0.4-0.2,0.5-0.5c0.2-0.2,0.4-0.8,0.6-1.3
		l0.2-0.1l-0.5,2.5l-5.7,0.9v-0.2l0.2-0.1c0.1,0,0.4,0,0.5-0.1s0.1-0.2,0.1-0.4c0.1-0.1,0.1-0.4,0.1-0.8l-0.4-5.6c0-0.6,0-0.9-0.1-1
		s-0.2-0.2-0.6-0.1l0,0v-0.2l5.7-1l0.1,2h-0.2c-0.1-0.4-0.2-0.8-0.2-0.9c-0.1-0.1-0.2-0.2-0.5-0.4c-0.1,0-0.4,0-0.6,0.1L96.1,176.7z
		 M87,186.4l-0.1-0.4h0.4c0.2-0.1,0.5-0.2,0.5-0.4c0.1-0.2,0.1-0.5,0.1-1l-0.4-5.6c0-0.5,0-0.8-0.1-0.9c-0.1-0.2-0.4-0.2-0.6-0.2
		l-0.2,0.1v-0.3l2.9-0.4c1-0.2,1.8-0.1,2.3,0c0.6,0.2,1,0.8,1.4,1.4c0.4,0.6,0.6,1.4,0.6,2.3c0.1,1.2-0.1,2.3-0.8,3.2
		c-0.5,1-1.5,1.6-2.9,1.8L87,186.4z M89.1,185.5c0.4,0,0.8,0,1,0c0.8-0.1,1.4-0.6,1.9-1.4c0.4-0.8,0.6-1.6,0.5-2.8
		c0-1.2-0.4-2.2-0.9-2.7c-0.5-0.6-1.2-0.9-2-0.8c-0.2,0-0.6,0.1-1,0.4L89.1,185.5z M81.8,177.7L82,181l1.5,0.2c0.5,0,0.8,0,0.9-0.1
		c0.1-0.1,0.2-0.5,0.1-1h0.4l0.2,3.2h-0.4c0-0.5-0.1-0.8-0.1-0.9c-0.1-0.1-0.2-0.2-0.4-0.4c-0.1-0.1-0.4-0.1-0.6-0.2l-1.6-0.1
		l0.2,2.8c0,0.4,0,0.5,0,0.6c0.1,0.1,0.1,0.1,0.2,0.2c0,0,0.1,0,0.4,0l1.3,0.2c0.4,0,0.6,0,0.9,0c0.1,0,0.2-0.1,0.5-0.4
		c0.1-0.1,0.4-0.5,0.5-1h0.4l-0.5,2.2l-5.9-0.8v-0.4l0.2,0.1c0.2,0,0.4,0,0.5-0.1c0.1,0,0.1-0.1,0.1-0.2c0.1-0.1,0.1-0.4,0-0.8
		l-0.4-5.6c0-0.6,0-0.9-0.1-1c-0.1-0.2-0.4-0.4-0.6-0.4h-0.4v-0.4l5.9,0.8l0.2,2h-0.1c0-0.5-0.1-0.9-0.2-1c-0.1-0.1-0.2-0.2-0.4-0.4
		c-0.1-0.1-0.5-0.1-0.8-0.2L81.8,177.7z"/>
</g>
<g>
	<g>
		
			<linearGradient id="SVGID_3_" gradientUnits="userSpaceOnUse" x1="548.3276" y1="-562.1868" x2="740.6277" y2="-562.1868" gradientTransform="matrix(1 0 0 -1 0 -448.0762)">
			<stop  offset="0" style="stop-color:#7AC943;stop-opacity:0.1"/>
			<stop  offset="0.99" style="stop-color:#8CC63F"/>
		</linearGradient>
		<polygon class="st8" points="548.3,169.5 548.3,58.5 644.4,3.1 740.6,58.5 740.6,169.5 644.4,225.1 		"/>
		<g class="st9">
			
				<linearGradient id="SVGID_4_" gradientUnits="userSpaceOnUse" x1="555.3276" y1="-562.1868" x2="733.7277" y2="-562.1868" gradientTransform="matrix(1 0 0 -1 0 -448.0762)">
				<stop  offset="0" style="stop-color:#FFFFFF"/>
				<stop  offset="0.99" style="stop-color:#8CC63F"/>
			</linearGradient>
			<path class="st10" d="M733.7,165.6L733.7,165.6l-89.2,51.5l0,0l-89.2-51.5v-103l0,0l89.1-51.5l0,0l89.2,51.5l0,0L733.7,165.6z"/>
			
				<linearGradient id="SVGID_5_" gradientUnits="userSpaceOnUse" x1="554.4277" y1="-562.2369" x2="734.7081" y2="-562.2369" gradientTransform="matrix(1 0 0 -1 0 -448.0762)">
				<stop  offset="0" style="stop-color:#000000"/>
				<stop  offset="8.000000e-02" style="stop-color:#090909"/>
				<stop  offset="0.22" style="stop-color:#232323"/>
				<stop  offset="0.4" style="stop-color:#4D4D4D"/>
				<stop  offset="0.62" style="stop-color:#868686"/>
				<stop  offset="0.85" style="stop-color:#CFCFCF"/>
				<stop  offset="0.99" style="stop-color:#FFFFFF"/>
			</linearGradient>
			<path class="st11" d="M644.4,11.1L644.4,11.1l89.2,51.5l0,0v103l-89.2,51.5l0,0l-89.2-51.5v-103l0,0L644.4,11.1L644.4,11.1
				 M644.4,10.2h-0.2l-0.2,0.1l-89.2,51.5l-0.4,0.2v104.2l0.4,0.3L644,218l0.2,0.1h0.5l0.2-0.1l89.2-51.5l0.4-0.2V62.1l-0.4-0.3
				l-89.2-51.5l-0.2-0.1H644.4z"/>
		</g>
		<path class="st12" d="M601.5,43c0.1,0.7,3,0.7,3.1,0c-0.1,0.7-0.1,21.5,0,22.1c-0.1-0.7-3-0.7-3.1,0
			C601.6,64.3,601.6,43.6,601.5,43z M605.9,58.2c-0.4-0.8-1-1.4-1.6-2c0.2-0.3,0.4-3.4,0.2-3.3c0.2,0.5,0.4,1.1,0.3,1.8
			c0.4,0.2,0.9,0.7,1.1,1.1c0.5-0.1,1.2,0.1,1.6,0.3c0.9-0.2,1.6-0.5,2.4-1c0.4-0.8,0.8-1.8,0.9-2.6c-0.1-1.1-0.1-2.3,0-3.4
			c-0.1-1-0.3-1.9-0.9-2.6c-0.8-0.4-1.5-0.8-2.4-1c-0.5,0.3-1.1,0.4-1.6,0.3c-0.2,0.4-0.5,0.9-1,1.1c0,0.5-0.1,1.2-0.3,1.6
			c0.2,0.1,0-2.7-0.3-3.1c0.8-0.5,1.4-1.3,1.9-2.1c0.9,0,1.8-0.3,2.5-0.8c0.9,0.4,1.9,0.7,2.8,0.8c0.5,0.8,1.1,1.5,1.8,2.2
			c0.1,1.2,0.3,2.3,0.7,3.5c-0.3,0.1-0.3,3.3,0,3.4c-0.3,1.1-0.4,2.3-0.7,3.4c-0.7,0.7-1.3,1.4-1.9,2.2c-1,0.1-2,0.3-3,0.8
			C607.6,58.5,606.7,58.3,605.9,58.2z"/>
		<path class="st12" d="M621,54.8c0,0,0.1,0.2,0.2,0.9c0.1-0.2,0.3-0.1,0.7,0.3c-0.1-0.4,1.3-0.4,1.4,0c-0.1-0.4-0.1,2.3,0,3
			c-0.1-0.7-1.9-0.7-1.9,0c-0.9-0.5-1.8-0.9-2.7-1.1c-0.4-1-0.8-2-1-3.1c0.1-0.4,0.1-17.3,0-17.9c0.1,0.7,3.1,0.7,3.1,0
			C621,37.5,621,54.4,621,54.8z"/>
		<path class="st12" d="M626.6,37c1,0.1,2.1,0.1,3.1,0c-0.1,1-0.1,2.1,0,3.1c-1-0.1-2.1-0.1-3.1,0C626.7,39.1,626.7,38.1,626.6,37z
			 M626.6,43c0.1,0.4,3,0.4,3.1,0c-0.1,0.4-0.1,15.2,0,15.7c-0.1-0.4-3-0.4-3.1,0C626.7,58.3,626.7,43.5,626.6,43z"/>
		<path class="st12" d="M634.1,43c0.1,0.4,3,0.4,3.1,0c-0.1,0.4-0.1,15.2,0,15.7c-0.1-0.4-3-0.4-3.1,0
			C634.3,58.3,634.3,43.5,634.1,43z M643.4,49.2c-0.1-0.9-0.3-1.8-0.8-2.6c-0.8-0.4-1.5-0.8-2.3-1l-2.3,0.8
			c-0.3,0.8-0.5,1.4-0.9,2.3c0.2,0.1,0-2.7-0.3-3.1c0.8-0.7,1.4-1.3,1.9-2.2c0.9-0.1,1.8-0.3,2.6-0.8c0.9,0.4,1.9,0.7,2.8,0.8
			c0.5,0.8,1.1,1.5,1.8,2.2c0.1,1.2,0.3,2.3,0.7,3.5c-0.3,0.1-0.3,9.1,0,9.5c-0.3-0.4-3.2-0.4-3.1,0
			C643.2,58.3,643.2,49.3,643.4,49.2z M652.4,49.2c-0.1-0.9-0.4-1.8-0.9-2.6c-0.8-0.4-1.5-0.8-2.4-1c-0.9,0.3-1.5,0.5-2.2,0.9
			c-0.3,0.8-0.5,1.5-0.8,2.5c0.2,0.1-0.3-2.7-0.7-3.1c0.8-0.7,1.4-1.5,2-2.4c1-0.1,1.9-0.4,2.7-0.9c0.9,0.4,1.9,0.7,2.8,0.8
			c0.5,0.8,1.2,1.5,1.9,2.2c0.1,1.2,0.3,2.3,0.7,3.5c-0.3,0.1-0.3,9.1,0,9.5c-0.3-0.4-3.2-0.4-3.1,0
			C652.3,58.3,652.3,49.3,652.4,49.2z"/>
		<path class="st12" d="M660.6,57.7c-0.8-1.1-1.2-2.3-1.4-3.6c0.2-1.2,0.7-2.4,1.3-3.5c1.2-0.5,2.6-1,3.9-1.2c0,0.2,4.2,0.2,4.5,0
			c-0.3,0.2-0.1,2.6,0.2,2.5c-1.5,0.1-3.1,0.1-4.6,0c-0.7,0.1-1.2,0.2-1.9,0.5c-0.3,0.5-0.5,1.1-0.5,1.6c0.1,0.7,0.3,1.3,0.8,1.8
			c0.8,0.3,1.5,0.5,2.4,0.5c1.1-0.1,1.9-0.2,2.6-0.4c0.3-0.3,0.7-0.8,0.9-1.2c-0.2,0,0,2.1,0.3,2.2c-0.4,0.2-0.9,0.5-1,1.1
			c-0.5,0-1,0.2-1.4,0.7c-0.5-0.1-1.2-0.1-1.8,0.2C663.4,58.6,662,58.3,660.6,57.7z M668.7,48.8c-0.2-0.9-0.4-1.6-0.9-2.4
			c-0.8-0.3-1.5-0.7-2.3-0.9c-0.5,0.3-1.2,0.4-1.9,0.3c-0.4,0.4-1,0.8-1.6,0.8c-0.8-0.4-1.5-1-2.3-1.5c0.9-0.3,1.8-0.9,2.3-1.6
			c1.1,0.1,2.2-0.1,3.3-0.5c1.1,0.4,2.2,0.7,3.4,0.7c0.5,0.8,1.3,1.4,2.1,2c0.1,1.1,0.4,2.1,0.8,3.2c-0.3,0.1-0.3,9.6,0,10.1
			c-0.3-0.4-3.1-0.4-3,0C668.6,55.5,668.6,52.1,668.7,48.8z"/>
		<path class="st12" d="M676,43c0.1,0.4,3,0.4,3.1,0c-0.1,0.4-0.1,15.2,0,15.7c-0.1-0.4-3-0.4-3.1,0C676,58.3,676,43.5,676,43z
			 M685.3,49.2c-0.1-0.9-0.4-1.8-0.9-2.6c-0.8-0.4-1.5-0.8-2.4-1l-2.3,0.8c-0.3,0.8-0.5,1.4-0.9,2.3c0.2,0.1,0-2.7-0.3-3.1
			c0.8-0.7,1.4-1.3,1.9-2.2c0.9-0.1,1.8-0.3,2.6-0.8c1.4,0.3,2.7,0.9,3.9,1.6c0.7,1.5,1.2,3.1,1.4,4.7c-0.3,0.1-0.3,9.1,0,9.5
			c-0.3-0.4-3.2-0.4-3.1,0C685.2,58.3,685.2,49.3,685.3,49.2z"/>
		<g id="path3513">
			
				<linearGradient id="SVGID_6_" gradientUnits="userSpaceOnUse" x1="-431.101" y1="232.4938" x2="-430.6024" y2="232.3905" gradientTransform="matrix(457.96 56.37 -35.42 287.73 206223.3906 -42474.5352)">
				<stop  offset="0" style="stop-color:#009245"/>
				<stop  offset="0.13" style="stop-color:#1A9241"/>
				<stop  offset="0.42" style="stop-color:#5D9236"/>
				<stop  offset="0.82" style="stop-color:#C79326"/>
				<stop  offset="1" style="stop-color:#F7931E"/>
			</linearGradient>
			<path class="st13" d="M729.3,99.1C611.5,48.8,567,98.2,598.3,129C596.4,163.2,663,189.7,729.3,99.1z"/>
			<path class="st14" d="M729.2,99.1L724,97l-5.3-2.1l-5.4-2l-5.4-1.9c-7.1-2.5-14.4-4.7-21.7-6.6c-7.3-2-14.8-3.5-22.2-4.6
				c-3.7-0.5-7.6-1-11.3-1.3s-7.6-0.4-11.3-0.4c-7.6-0.1-15.1,0.8-22.5,2.4c-7.2,1.8-14.5,4.6-20.2,9.4c-2.8,2.3-5.3,5.2-7,8.4
				s-2.5,6.9-2.4,10.6c0.1,3.7,1.1,7.3,2.8,10.5c0.9,1.6,1.9,3.2,3,4.7c1.1,1.4,2.4,2.8,3.7,4.2c0.1,0.1,0.2,0.3,0.2,0.5
				c-0.2,7,2.3,13.8,7.1,18.9c0.5,0.7,1.2,1.3,1.9,1.9c0.7,0.7,1.3,1.2,2,1.6c0.7,0.5,1.4,1.1,2.1,1.5l2.2,1.3l0.5,0.3l0.5,0.3
				l1.2,0.5c0.8,0.4,1.5,0.8,2.4,1.1l2.4,1c0.9,0.2,1.6,0.4,2.5,0.8c6.8,1.8,13.9,2.2,20.8,1.2c7-1,13.8-2.8,20.3-5.6
				c3.3-1.3,6.5-3,9.5-4.6l4.6-2.6c1.5-0.9,3-1.9,4.5-2.8l2.2-1.4l2.1-1.5c1.4-1.1,2.8-2.1,4.3-3.2c2.7-2.3,5.6-4.4,8.1-6.9
				c1.3-1.2,2.6-2.4,3.9-3.6l3.7-3.7l1.9-1.9l1.9-2l3.6-3.9c1.2-1.3,2.3-2.6,3.5-4.1l3.5-4.1L729.2,99.1z M729.4,99.1
				c-2.1,2.8-4.2,5.8-6.4,8.7l-3.4,4.2c-1.1,1.4-2.2,2.8-3.4,4.2l-3.5,4.1l-1.8,2l-1.9,1.9l-3.7,3.8c-1.3,1.3-2.6,2.4-3.9,3.7
				c-2.5,2.5-5.4,4.7-8.1,7.1c-1.4,1.1-2.8,2.2-4.3,3.3l-2.1,1.6l-2.2,1.5c-1.5,1-3,2.1-4.5,3l-4.6,2.7c-3.2,1.6-6.4,3.4-9.6,4.7
				c-6.6,2.8-13.6,4.8-20.8,5.8c-7.2,1-14.6,0.5-21.6-1.2c-7.1-1.8-13.6-5.6-18.6-11c-5-5.5-7.8-12.7-7.3-20.2l0.2,0.5
				c-1.4-1.3-2.6-2.8-3.8-4.4c-1.2-1.5-2.2-3.2-3.1-4.9c-1.9-3.5-2.8-7.3-3-11.2c-0.1-3.9,0.9-7.8,2.7-11.3c1.9-3.4,4.4-6.5,7.5-8.9
				c6-4.9,13.4-7.8,20.7-9.5c7.5-1.6,15.1-2.4,22.7-2.3c3.7,0,7.6,0.2,11.4,0.5c3.8,0.3,7.6,0.8,11.3,1.4c7.5,1.2,14.9,2.8,22.2,4.8
				s14.6,4.3,21.7,6.8l5.4,2l5.3,2.1l5.3,2.2L729.4,99.1z"/>
		</g>
		<path class="st14" d="M594.5,129c1.6-2.6,3.8-4.7,6.6-6.2c2.4-1.4,5-2.7,7.7-3.8c5.2-2.2,10.5-4.1,16-5.5
			c5.5-1.3,10.8-2.6,16.3-3.7s11.1-1.8,16.5-2.4c5.6-0.8,11.2-0.9,16.8-0.5c5.6,0.4,11.1,1.2,16.7,1.5c2.7,0.2,5.5,0,8.2-0.3
			c2.7-0.4,5.5-0.9,8.2-1.2c1.4-0.2,2.7-0.3,4.2-0.7c1.3-0.3,2.7-0.7,3.9-1.1c1.3-0.3,2.6-1,3.6-2l3.2-2.6l-3.2,2.7l-0.8,0.7
			c-0.3,0.2-0.7,0.4-1,0.5c-0.7,0.3-1.3,0.5-2,0.8c-1.3,0.5-2.6,0.9-3.9,1.3c-1.3,0.3-2.7,0.5-4.2,0.8c-2.7,0.4-5.5,1-8.2,1.4
			c-2.7,0.5-5.6,0.7-8.4,0.5c-5.6-0.1-11.2-0.9-16.7-1.1s-11.1,0.1-16.5,1c-5.5,0.8-11,1.6-16.4,2.8c-5.4,1.2-10.8,2.6-16.1,4.1
			c-2.6,0.8-5.3,1.5-7.9,2.5c-2.5,1-5.2,2-7.7,3.2c-2.5,1.1-4.8,2.4-7.1,3.8c-1.1,0.7-2.2,1.4-3.1,2.3c-0.4,0.4-0.9,0.9-1.2,1.4
			l-1,1.5L594.5,129z"/>
		<path class="st14" d="M608.5,120.3c1.4-0.3,3-0.2,4.4,0.1c1.3,0.3,2.6,0.8,3.8,1.2c1.3,0.4,2.5,1,3.7,1.5c1.2,0.5,2.4,1.2,3.5,1.9
			c4.7,2.4,9.2,5.3,13.6,8.3c2.2,1.5,4.3,3.2,6.1,5c1.9,1.9,3.6,3.8,5.6,5.6c1.9,1.8,4.2,3.1,6.4,4.6l1.6,1.1c0.5,0.3,1.2,0.7,1.8,1
			c1.2,0.7,2.5,0.5,3.8,0.8c-1.3,0-2.6-0.2-3.8-0.7c-0.7-0.2-1.2-0.5-1.8-0.9l-1.6-1l-3.4-2.1c-1.1-0.7-2.2-1.5-3.2-2.4
			c-2-1.8-3.7-3.7-5.7-5.5s-4.1-3.4-6.2-4.8c-4.4-3-8.9-5.6-13.7-7.8c-1.2-0.5-2.3-1.2-3.5-1.6s-2.4-1-3.6-1.4
			c-1.2-0.4-2.4-0.8-3.7-1.1c-1.1-0.3-2.3-0.3-3.5-0.1c-0.5,0.1-1-0.2-1.1-0.8C607.7,121.1,608.1,120.6,608.5,120.3L608.5,120.3z"/>
		<path class="st14" d="M630.1,113c1.2-0.3,2.5-0.3,3.7,0c1.1,0.2,2.3,0.5,3.4,1c2.2,0.8,4.3,1.8,6.2,2.8c4.1,2.1,8,4.4,11.7,7
			c1.9,1.3,3.7,2.7,5.4,4.3c1.6,1.6,3.2,3.3,4.8,4.8c1.8,1.5,3.5,2.8,5.5,3.9l1.4,1c0.4,0.3,1,0.5,1.5,0.8c1.1,0.4,2.2,0.5,3.3,0.5
			c-1.1,0.1-2.3-0.1-3.4-0.4c-0.5-0.2-1.1-0.4-1.5-0.8l-1.4-0.9c-2-1.1-3.9-2.4-5.6-3.8c-1.8-1.5-3.3-3.2-4.9-4.7
			c-1.6-1.5-3.5-2.8-5.4-4.2c-3.7-2.5-7.7-4.7-11.8-6.7c-2-1-4.1-1.9-6.2-2.6c-1.1-0.3-2.1-0.7-3.2-0.9c-1-0.2-2.1-0.2-3.1,0
			c-0.3,0.1-0.8-0.1-0.9-0.4C629.5,113.4,629.8,113.1,630.1,113L630.1,113z"/>
		<path class="st14" d="M658.7,107.5c0.9-0.2,1.9-0.3,2.7-0.2c0.9,0.1,1.8,0.3,2.5,0.5c0.9,0.2,1.6,0.5,2.4,0.9
			c0.4,0.1,0.8,0.3,1.2,0.5l1.1,0.5c3.1,1.5,5.9,3.4,8.7,5.5c1.4,1,2.6,2.2,3.7,3.5s2,2.7,3.1,4.1c1.1,1.3,2.6,2.1,3.9,3.2
			c0.7,0.5,1.4,1,2.2,1.2c0.4,0.1,0.8,0.2,1.2,0.2h1.3h-1.2c-0.4,0-0.9,0-1.3-0.2c-0.8-0.3-1.5-0.7-2.3-1.2c-1.3-1-3-1.8-4.1-3.1
			c-1.1-1.3-2.1-2.7-3.2-3.9c-1.1-1.2-2.4-2.4-3.7-3.3c-2.7-2-5.6-3.7-8.7-5.2c-1.5-0.8-3.1-1.4-4.7-1.8s-3.3-0.8-4.7-0.2
			c-0.2,0.1-0.5,0-0.5-0.3C658.3,107.8,658.4,107.6,658.7,107.5L658.7,107.5L658.7,107.5L658.7,107.5z"/>
		<path class="st14" d="M685.2,108c0.4-0.1,0.8-0.1,1.2,0c0.3,0.1,0.8,0.2,1.1,0.3c0.7,0.2,1.4,0.7,2,1.1c1.2,0.9,2.4,1.9,3.4,3
			c0.5,0.5,1,1.2,1.3,1.9c0.3,0.7,0.4,1.4,0.8,2.1c0.3,0.7,0.9,1.2,1.4,1.6c0.2,0.3,0.5,0.5,0.9,0.7c0.3,0.1,0.8,0.1,1.1,0.2
			c-0.3,0-0.8,0-1.1-0.1s-0.7-0.3-1-0.7l-0.8-0.8c-0.3-0.2-0.5-0.5-0.7-0.9c-0.3-0.7-0.5-1.4-0.9-2.1c-0.3-0.7-0.8-1.2-1.3-1.8
			c-1-1.1-2.2-2-3.4-2.7c-0.7-0.4-1.2-0.7-2-1c-0.7-0.2-1.3-0.3-2-0.2c-0.2,0-0.4-0.1-0.4-0.2l0,0C684.8,108.3,685,108.1,685.2,108
			L685.2,108z"/>
		<path class="st14" d="M619.4,115.6c0.7-0.1,1.3-0.4,1.9-0.8c0.7-0.4,1.2-0.9,1.8-1.3c1.1-1,2.1-2.1,3-3.4c0.9-1.3,1.6-2.6,2.3-3.9
			s1.3-2.7,1.8-4.3c0.5-1.4,0.9-2.8,1-4.4c0-1.5-0.3-3.1-0.2-4.7c0-0.4,0-0.8,0.1-1.2c0.1-0.4,0.2-0.8,0.4-1.1
			c0.3-0.8,0.5-1.4,0.9-2.2c0.3-0.8,0.8-1.4,1.3-2c0.3-0.2,0.7-0.4,1-0.5l1-0.5l-1,0.5c-0.3,0.2-0.7,0.4-1,0.7
			c-0.5,0.5-0.9,1.2-1.1,2s-0.4,1.5-0.8,2.2c-0.3,0.7-0.4,1.4-0.3,2.2c0,1.5,0.4,3.1,0.5,4.6c0,1.6-0.2,3.2-0.8,4.7
			c-0.4,1.5-1,3.1-1.6,4.5c-0.7,1.4-1.4,2.8-2.2,4.2c-0.9,1.3-1.9,2.6-3.1,3.7c-0.5,0.5-1.2,1.1-1.9,1.6c-0.8,0.4-1.5,0.9-2.4,1.1
			c-0.5,0.1-1-0.1-1.2-0.7C618.5,116.3,618.7,115.7,619.4,115.6C619.2,115.6,619.2,115.6,619.4,115.6L619.4,115.6L619.4,115.6z"/>
		<path class="st14" d="M645,109.2c2-0.2,3.7-1.5,5.3-3c0.8-0.8,1.4-1.5,2.1-2.4c0.7-0.9,1.2-1.8,1.6-2.7c0.5-0.9,0.9-2,1-3
			c0-1-0.3-2.1-0.3-3.2c0-0.3,0-0.5,0.1-0.9c0.1-0.2,0.2-0.5,0.3-0.8c0.2-0.4,0.4-1,0.8-1.4c0.3-0.4,0.7-0.9,1.1-1.1
			c0.5-0.2,1-0.4,1.5-0.5c-0.4,0.2-1,0.4-1.4,0.7c-0.4,0.3-0.8,0.7-1.1,1.1c-0.2,0.4-0.4,1-0.7,1.5c-0.2,0.4-0.4,1-0.3,1.5
			c0,1.1,0.4,2.1,0.4,3.3c0,1.1-0.3,2.2-0.8,3.3c-0.4,1-0.9,2.1-1.5,3c-0.5,1-1.3,1.9-2,2.6c-0.8,0.8-1.6,1.5-2.5,2.2
			c-1,0.7-2.1,1.1-3.2,1.3l0,0c-0.3,0.1-0.8-0.2-0.8-0.5l0,0C644.3,109.6,644.6,109.2,645,109.2L645,109.2L645,109.2z"/>
		<path class="st14" d="M669.9,106.9c1,0.1,2,0,2.8-0.3c1-0.3,1.9-0.8,2.7-1.3c1.6-1.1,3.2-2.4,4.5-3.9c0.7-0.8,1.2-1.6,1.5-2.5
			c0.3-1,0.3-2,0.5-3c0.1-0.5,0.4-1,0.8-1.3c0.3-0.3,0.7-0.8,1-1.2c0.3-0.3,0.8-0.7,1.3-0.8s1-0.1,1.5-0.2c-0.5,0.1-1,0.1-1.5,0.2
			c-0.4,0.2-0.9,0.4-1.2,0.9c-0.3,0.4-0.7,0.8-1,1.2c-0.3,0.3-0.7,0.8-0.8,1.3c-0.2,1-0.2,2-0.4,3.1c-0.3,1-0.9,1.9-1.5,2.7
			c-1.3,1.6-2.7,3.1-4.5,4.3c-0.9,0.5-1.9,1-2.8,1.4c-1,0.4-2.1,0.5-3.2,0.5l0,0c-0.2,0-0.3-0.2-0.3-0.4
			C669.4,107,669.5,106.8,669.9,106.9L669.9,106.9z"/>
		<path class="st14" d="M601.5,123.3c0.7-0.2,1.2-0.5,1.6-1.1c0.5-0.5,1-1.1,1.4-1.8c0.4-0.7,0.9-1.3,1.3-2c0.2-0.3,0.4-0.7,0.5-1
			l0.4-1.1c1.4-2.8,2.4-5.9,3.2-9c0.4-1.5,0.7-3.1,0.8-4.7c0-1.5-0.1-3.2-0.1-4.8c0-0.9,0.1-1.6,0.4-2.4c0.2-0.8,0.4-1.5,0.7-2.3
			c0.2-0.8,0.5-1.5,1-2.3c0.2-0.3,0.4-0.7,0.9-1l1-0.8l-1,0.8c-0.3,0.2-0.5,0.5-0.8,1c-0.3,0.7-0.7,1.4-0.8,2.3
			c-0.3,1.6-1,3.1-0.9,4.7c0.1,1.6,0.2,3.2,0.3,4.8c0,1.6-0.1,3.3-0.5,4.9c-0.7,3.2-1.5,6.4-2.8,9.3l-0.4,1.1
			c-0.2,0.4-0.3,0.8-0.5,1.1c-0.4,0.8-0.8,1.4-1.2,2.2c-0.4,0.8-1,1.4-1.5,2.1c-0.7,0.7-1.4,1.2-2.3,1.6c-0.4,0.2-1,0-1.2-0.5
			C600.8,124,601,123.4,601.5,123.3L601.5,123.3L601.5,123.3z"/>
		<path class="st14" d="M599.6,127c0.9-0.2,1.9-0.2,2.7-0.1c0.9,0.1,1.8,0.3,2.5,0.7c1.6,0.5,3.2,1.3,4.6,2.2c1.4,1,2.8,1.9,4.2,2.8
			c1.3,1,2.6,2.2,3.7,3.4c1.2,1.2,2.3,2.5,3.1,3.9c0.8,1.5,1.2,3.1,2,4.5c0.3,0.8,0.9,1.3,1.5,1.9c0.7,0.5,1.2,1.1,1.8,1.8
			c0.5,0.5,1.3,1,2.1,1.3c0.3,0.1,0.8,0.2,1.2,0.2l1.2,0.1H629c-0.4,0-0.9,0-1.2-0.1c-0.8-0.2-1.5-0.7-2.2-1.2
			c-0.5-0.5-1.2-1.1-1.9-1.6s-1.2-1.1-1.6-1.9c-0.9-1.4-1.4-3.1-2.2-4.4c-0.9-1.3-1.9-2.6-3.2-3.6c-1.2-1.1-2.4-2.2-3.7-3.1
			c-1.3-1-2.7-1.8-4.2-2.6c-1.4-0.8-2.8-1.4-4.4-1.9c-0.8-0.2-1.5-0.3-2.3-0.4c-0.8-0.1-1.4,0-2.1,0.2l0,0c-0.5,0.1-1-0.2-1.1-0.7
			l0,0C598.9,127.7,599.2,127.1,599.6,127L599.6,127z"/>
		<path id="path3511" class="st14" d="M597.9,126.3c-1.5,0.3-3.1,0.7-4.5,1.1c-4.8,1.6-8.7,2.8-10.8,3.5
			c-14.2,4.5-19.1,5.7-22.6,10.3c-1.3,1.8-2.3,3.7-2.8,5.8c0,0.4,0.2,1,0.5,1.3c1.2,1.1,4.2-0.1,6-1.5c0.7-0.5,1.3-1.2,1.9-1.9
			c2-2.5,4.2-3.9,8.4-6.6c2.8-2,6-3.6,9.4-4.7c2.7-1,5.6-1.6,8.4-1.9c1.9-0.1,4.6-0.2,6.6-1.9c1-0.8,1.1-1.4,1-1.8
			C599.5,127.2,598.7,126,597.9,126.3z"/>
		<path class="st14" d="M699.5,108.2c0.4,0,0.9-0.1,1.3-0.4c0.4-0.2,0.8-0.5,1.2-0.9c0.3-0.3,0.8-0.7,1-1c0.3-0.3,0.7-0.7,1-1.1
			c0.3-0.3,0.5-0.8,0.8-1.2c0.2-0.4,0.3-1,0.5-1.3c0.2-0.4,0.5-0.9,0.9-1.2c0.3-0.4,0.8-0.7,1.2-0.8c-0.4,0.1-0.9,0.3-1.2,0.8
			c-0.3,0.3-0.7,0.8-0.9,1.2c-0.2,0.4-0.3,1-0.4,1.3c-0.2,0.4-0.4,0.9-0.8,1.3c-0.3,0.4-0.7,0.8-1,1.1c-0.3,0.3-0.7,0.8-1,1.1
			c-0.3,0.3-0.8,0.7-1.2,0.9c-0.4,0.3-0.9,0.4-1.4,0.4C699.4,108.4,699.4,108.3,699.5,108.2C699.2,108.3,699.4,108.2,699.5,108.2
			L699.5,108.2z"/>
		<g class="st15">
			<path class="st16" d="M691.7,103.4L691.7,103.4c-1-0.4-1.4,0.2-1.2,1.1c-0.8-0.4-1.6-0.8-2.5-0.8c-0.2-1-0.1-1.3-1-1.4
				c0.2-0.1-0.2,0-1.2,0l0,0c1,0,0.2-0.4-1.2-1.1c1.3,0,2.1-0.3,1.2-1.1c1.1,0.7,1.6,0.4,1.5-0.1c0.4,0.8,0.7,1,0.7,0.7
				c0.5,1,0.5,1,0.7,0.7c0.2,0.5,0.7,0.4,1.3,0c0.1,0.1,0.1-0.4,1.3-1.3c-0.5,0.8,0,1.2,1.3,1.3c-1.3,0.7-1.5,0.7-0.7,1.3
				C690.8,102.6,690.7,103,691.7,103.4z"/>
			<path class="st17" d="M691.7,103.4L691.7,103.4c-1-0.4-1.4,0.2-1.2,1.1c-0.8-0.4-1.6-0.8-2.5-0.8c-0.2-1-0.1-1.3-1-1.4
				c0.2-0.1-0.2,0-1.2,0l0,0c1,0,0.2-0.4-1.2-1.1c1.3,0,2.1-0.3,1.2-1.1c1.1,0.7,1.6,0.4,1.5-0.1c0.4,0.8,0.7,1,0.7,0.7
				c0.5,1,0.5,1,0.7,0.7c0.2,0.5,0.7,0.4,1.3,0c0.1,0.1,0.1-0.4,1.3-1.3c-0.5,0.8,0,1.2,1.3,1.3c-1.3,0.7-1.5,0.7-0.7,1.3
				C690.8,102.6,690.7,103,691.7,103.4z"/>
		</g>
		<g class="st18">
			<path class="st19" d="M705.2,110.4c-0.5,1.2-0.2,1.5,0,1.1c-0.5,0.8-0.9,0.5-1.1,0c-0.5,0.8-0.7,1.2-1.1,1.1c-0.7,1-2.1,0-3.4,0
				c0.8,0.8,2.1,2.8,3.4,3.3c0.7-0.4,1.3-0.8,1.8,0c-0.2-0.3-0.4-0.1,0,1.1c-0.2-0.4,0.1,0.1,1.1,1.1c-0.1-1.1,0.2-1.8,1.1-1.1
				c-1-0.8-1-0.8,0,0c-0.9-0.9-0.5-1.4,0.1-1.4c-1.1-0.7-1.4-0.9-0.7-0.7c-0.8-0.2-0.9-0.2-0.1-0.1c-0.8-0.2-0.8-0.2,0,0
				c-1-0.4-0.8-1,0-1.1c-0.8,0.1-0.8,0.1,0,0c-0.5-0.3-0.3-1,0.8-1.9c-0.7,0-0.5-0.3,0.3-1.4C706.1,110.8,704.9,110.8,705.2,110.4z"
				/>
			<path class="st17" d="M705.2,110.4c-0.5,1.2-0.2,1.5,0,1.1c-0.5,0.8-0.9,0.5-1.1,0c-0.5,0.8-0.7,1.2-1.1,1.1c-0.7,1-2.1,0-3.4,0
				c0.8,0.8,2.1,2.8,3.4,3.3c0.7-0.4,1.3-0.8,1.8,0c-0.2-0.3-0.4-0.1,0,1.1c-0.2-0.4,0.1,0.1,1.1,1.1c-0.1-1.1,0.2-1.8,1.1-1.1
				c-1-0.8-1-0.8,0,0c-0.9-0.9-0.5-1.4,0.1-1.4c-1.1-0.7-1.4-0.9-0.7-0.7c-0.8-0.2-0.9-0.2-0.1-0.1c-0.8-0.2-0.8-0.2,0,0
				c-1-0.4-0.8-1,0-1.1c-0.8,0.1-0.8,0.1,0,0c-0.5-0.3-0.3-1,0.8-1.9c-0.7,0-0.5-0.3,0.3-1.4C706.1,110.8,704.9,110.8,705.2,110.4z"
				/>
		</g>
		<g class="st20">
			<path class="st21" d="M703.4,104.1c1.4-0.1,1.4,0,0.2,1c1.5-0.4,2-0.2,1.3,1c2.3-0.7,2.2-2.4,5.6-2.6c1-0.7,1-0.2,2.8-0.1
				c1.1-1,1.6-2.3,3.2-2.6c-1.2-0.4-1-1.4,0.4-3.2c-1.5,0.8-1.8,0.1-1.1-1.1c-1.6,1-1.9,1-1.1,0c-2.5,1.1-3.1,0.9-3.3-0.1
				c-0.4,1.1-0.7,1.1-1.1,0.5c-0.9,1.4-1,1.5-1.3,1c-0.5,1-1.4,1-2.6,0.1c-0.4,0.2,0.1-0.5-1.6-1.6c0.2,0.9-0.8,2-2.1,2.2
				c1.5,1.1,1.9,1.2,0.4,2.1c1.4,0.1,1.4,0.1,0,1.2C704.7,103.6,704.7,103.4,703.4,104.1z"/>
			<path class="st22" d="M703.4,104.1h0.7h0.3c0.1,0,0.2,0.1,0.2,0.2c-0.1,0.2-0.2,0.3-0.4,0.4l-0.4,0.4l0,0
				c0.4-0.1,0.9-0.2,1.3-0.2c0.1,0,0.2,0.1,0.3,0.2c0,0.1,0,0.2,0,0.3c-0.1,0.2-0.1,0.4-0.3,0.7V106c0.5-0.1,1-0.4,1.4-0.7
				c0.4-0.3,0.8-0.7,1.2-1c0.9-0.5,2-0.9,3.1-1l0,0c0.2-0.1,0.4-0.2,0.7-0.3c0.2,0,0.5,0,0.8,0c0.4,0.1,1,0.2,1.4,0.2h-0.2
				c0.5-0.4,1-1,1.4-1.5c0.4-0.5,1.1-1,1.8-1.1v0.1c-0.3-0.1-0.7-0.3-0.8-0.7c-0.1-0.3,0-0.7,0.1-1c0.3-0.5,0.7-1.1,1.1-1.6l0.1,0.1
				c-0.2,0.1-0.4,0.2-0.7,0.2c-0.2,0.1-0.5,0.1-0.8-0.1c-0.1-0.2-0.2-0.5-0.1-0.8c0.1-0.2,0.2-0.4,0.3-0.7l0.1,0.1
				c-0.3,0.2-0.8,0.4-1.1,0.7c-0.1,0.1-0.2,0.1-0.3,0.1h-0.1c0,0,0-0.1-0.1-0.1c0,0,0,0,0-0.1s0-0.1,0.1-0.2
				c0.1-0.2,0.2-0.3,0.3-0.5l0.1,0.1c-0.5,0.2-1.2,0.4-1.9,0.7c-0.3,0.1-0.7,0.1-1,0c-0.3-0.1-0.5-0.4-0.7-0.8h0.1
				c-0.1,0.3-0.2,0.5-0.4,0.8c0,0.1-0.1,0.1-0.2,0.1s-0.2,0-0.2,0c-0.1-0.1-0.2-0.2-0.3-0.3h0.1c-0.2,0.3-0.3,0.7-0.5,1
				c-0.1,0.1-0.2,0.3-0.4,0.4c-0.1,0-0.2,0-0.3-0.1c-0.1-0.1-0.1-0.1-0.2-0.2h0.1c-0.1,0.2-0.3,0.4-0.5,0.7
				c-0.2,0.1-0.5,0.2-0.8,0.2c-0.5-0.1-1-0.3-1.4-0.7h0.1c-0.1,0-0.1,0-0.2,0c-0.1,0-0.1-0.1-0.1-0.1c0-0.1-0.1-0.2-0.1-0.2
				c-0.1-0.2-0.2-0.3-0.3-0.4c-0.3-0.3-0.5-0.5-1-0.8l0.1-0.1c0.1,0.3,0,0.5-0.1,0.9c-0.1,0.2-0.3,0.4-0.5,0.7
				c-0.4,0.3-1,0.7-1.5,0.8v-0.1l0.7,0.4c0.2,0.1,0.4,0.3,0.5,0.5c0.1,0.1,0.1,0.2,0.1,0.4c-0.1,0.1-0.1,0.2-0.2,0.3
				c-0.2,0.2-0.4,0.3-0.7,0.4v-0.1l0.7,0.1c0.1,0,0.2,0,0.3,0.1c0,0,0.1,0,0.1,0.1s0,0.1-0.1,0.2c-0.3,0.3-0.7,0.5-1,0.8l0,0
				c0.3,0.4,0.8,0.8,1.1,1.2c0.1,0.1,0.1,0.2,0.1,0.4c-0.1,0.1-0.2,0.2-0.3,0.3C703.8,103.9,703.6,104,703.4,104.1z M703.4,104.1
				c0.2-0.1,0.4-0.2,0.7-0.4c0.1-0.1,0.2-0.1,0.3-0.3c0-0.1,0-0.2-0.1-0.3c-0.3-0.4-0.8-0.8-1.1-1.2l0,0l0,0c0.3-0.2,0.7-0.5,1-0.8
				c0.2-0.2-0.2-0.2-0.3-0.2l-0.7-0.1h-0.1l0.1-0.1c0.2-0.1,0.4-0.3,0.7-0.4c0.1-0.1,0.2-0.2,0.2-0.3s0-0.2-0.1-0.3
				c-0.2-0.2-0.3-0.3-0.5-0.5l-0.7-0.4l-0.1-0.1h0.1c0.5-0.1,1.1-0.3,1.5-0.8c0.4-0.3,0.7-0.9,0.5-1.4v-0.1l0.1,0.1
				c0.3,0.2,0.7,0.4,1,0.8c0.1,0.1,0.2,0.3,0.3,0.5c0.1,0.1,0.1,0.4,0.2,0.3l0,0l0,0c0.4,0.3,0.9,0.5,1.4,0.7c0.2,0,0.5,0,0.7-0.1
				s0.3-0.3,0.4-0.5l0.1-0.1l0.1,0.1c0.1,0.1,0.2,0.3,0.3,0.3c0.1,0,0.2-0.2,0.3-0.3c0.2-0.3,0.3-0.7,0.5-1l0.1-0.1l0.1,0.1
				c0.1,0.1,0.2,0.2,0.3,0.2c0.1,0.1,0.2,0,0.2-0.1c0.1-0.2,0.2-0.4,0.3-0.8l0.1-0.2l0.1,0.2c0,0.3,0.2,0.5,0.5,0.7
				c0.3,0.1,0.7,0.1,1,0c0.7-0.1,1.2-0.3,1.8-0.7l0.3-0.1l-0.2,0.2c-0.1,0.1-0.2,0.3-0.3,0.5v0.1l0,0l0,0l0,0c0.1,0,0.2-0.1,0.2-0.1
				c0.3-0.2,0.8-0.4,1.1-0.5l0.2-0.1l-0.1,0.3c-0.1,0.2-0.2,0.4-0.2,0.7c-0.1,0.2-0.1,0.4,0,0.5c0.1,0.1,0.3,0.1,0.5,0
				c0.2-0.1,0.4-0.1,0.7-0.2l0.3-0.1l-0.2,0.2c-0.4,0.5-0.8,1.1-1,1.6c-0.1,0.2-0.2,0.5-0.1,0.9s0.3,0.4,0.7,0.5l0.2,0.1l-0.2,0.1
				c-0.7,0.2-1.3,0.5-1.8,1.1s-1,1.1-1.4,1.5l0,0l0,0c-0.4-0.1-1-0.1-1.4-0.2c-0.2,0-0.4,0-0.7,0c-0.2,0.1-0.4,0.2-0.7,0.3l0,0
				c-1.1,0-2.1,0.3-3,1c-0.4,0.3-0.8,0.7-1.3,1c-0.4,0.3-0.9,0.5-1.4,0.7h-0.1v-0.3c0.1-0.2,0.2-0.4,0.2-0.5c0.1-0.2,0-0.3-0.2-0.4
				h-0.1c-0.4,0-0.9,0-1.3,0.2l0,0l0.4-0.4c0.2-0.1,0.3-0.2,0.4-0.4c0.1-0.1-0.1-0.2-0.1-0.2h-0.3L703.4,104.1z"/>
		</g>
		<path class="st12" d="M599.3,175.4c0,0.2,1,0.2,1,0c0,0.2,0,6.7,0,6.9c0-0.2-1-0.2-1,0C599.3,182,599.3,175.6,599.3,175.4z
			 M599.7,178.6c0.8-0.1,1.4-0.1,2.2,0c0.2-0.1,0.3-0.1,0.5-0.1c0.1-0.1,0.2-0.3,0.3-0.4c0-0.2,0.1-0.4,0.1-0.7
			c-0.1-0.2-0.1-0.4-0.1-0.7c-0.1-0.1-0.2-0.2-0.3-0.4c-0.2,0-0.3-0.1-0.5-0.1c-0.8,0.1-1.4,0.1-2.2,0c0.1,0.1,0.1-0.8,0-1
			c0.8,0.1,1.4,0.1,2.2,0c0.3,0.1,0.8,0.2,1.1,0.2c0.2,0.2,0.4,0.5,0.8,0.8c0,0.3,0.1,0.8,0.2,1.1c-0.1,0.3-0.2,0.8-0.2,1.1
			c-0.2,0.2-0.5,0.4-0.8,0.8c-0.3,0.1-0.8,0.1-1.1,0.2c-0.8-0.1-1.4-0.1-2.2,0C599.8,179.5,599.8,178.6,599.7,178.6L599.7,178.6z"/>
		<path class="st12" d="M605,175.4c0,0.2,1,0.2,1,0c0,0.2,0,6.7,0,6.9c0-0.2-1-0.2-1,0C605.1,182,605.1,175.6,605,175.4z
			 M605.4,181.2c0.1,0,3.8,0,3.9,0c-0.1,0-0.1,0.9,0,1c-0.1,0-3.8,0-3.9,0C605.5,182.2,605.5,181.3,605.4,181.2z"/>
		<path class="st12" d="M610.5,181.8c-0.2-0.3-0.4-0.8-0.4-1.1c0.1-0.4,0.2-0.8,0.4-1.1c0.4-0.2,0.8-0.3,1.2-0.3
			c0.4,0.1,1,0.1,1.4,0c-0.1,0.1,0,0.8,0.1,0.8c-0.4,0-1,0-1.4,0c-0.2,0-0.4,0.1-0.5,0.2c-0.1,0.1-0.1,0.3-0.2,0.5
			c0,0.2,0.1,0.4,0.2,0.5c0.2,0.1,0.5,0.1,0.8,0.2c0.3,0,0.5-0.1,0.9-0.1c0.1-0.1,0.2-0.2,0.2-0.3c-0.1,0,0,0.7,0.1,0.7
			c-0.1,0.1-0.2,0.2-0.3,0.3c-0.2,0-0.3,0.1-0.4,0.2c-0.2,0-0.3,0-0.5,0.1C611.4,182.2,610.9,182,610.5,181.8z M613.1,179.1
			c-0.1-0.2-0.1-0.5-0.2-0.8c-0.2-0.1-0.4-0.2-0.8-0.2c-0.2,0.1-0.3,0.1-0.5,0.1c-0.1,0.1-0.3,0.2-0.5,0.2c-0.2-0.1-0.4-0.3-0.7-0.4
			c0.3-0.1,0.5-0.3,0.8-0.5c0.3,0,0.7,0,1-0.2c0.3,0.1,0.7,0.2,1.1,0.2c0.2,0.2,0.4,0.4,0.7,0.7c0,0.3,0.1,0.7,0.2,1
			c-0.1,1.1-0.1,2.1,0,3.2c-0.1-0.1-1-0.1-1,0C613,181.2,613,180.1,613.1,179.1z"/>
		<path class="st12" d="M615.3,177.3c0,0.1,1,0.1,1,0c0,0.1,0,4.8,0,4.9c0-0.1-1-0.1-1,0C615.4,182,615.4,177.4,615.3,177.3z
			 M618.3,179.2c0-0.3-0.1-0.5-0.2-0.8c-0.2-0.1-0.4-0.2-0.8-0.3l-0.8,0.2c-0.1,0.2-0.2,0.4-0.2,0.7c0.1,0,0-0.9-0.1-1
			c0.2-0.2,0.4-0.4,0.5-0.7c0.3,0,0.5-0.1,0.8-0.2c0.4,0.1,0.9,0.3,1.2,0.5c0.2,0.4,0.3,1,0.4,1.4c-0.1,1-0.1,2,0,3
			c-0.1-0.1-1-0.1-1,0C618.3,182,618.3,179.2,618.3,179.2L618.3,179.2z"/>
		<path class="st12" d="M620.2,177.3c0.1,0,2.2,0,2.2,0c-0.1,0.3-0.1,0.5,0,0.9c-0.1,0-2.2,0-2.2,0
			C620.2,177.9,620.2,177.7,620.2,177.3z M621,181.9c-0.1-0.3-0.2-0.7-0.2-1c0-0.1,0-4.8,0-5c0,0.2,1,0.2,1,0v5c0,0.1,0,0.2,0.1,0.3
			c0-0.1,0.1,0,0.2,0.1c0-0.1,0.4-0.1,0.4,0c0,0.3,0,0.7,0,1c0-0.2-0.5-0.2-0.5,0C621.5,182.2,621.2,182,621,181.9L621,181.9z"/>
		<path class="st12" d="M627.2,182.3c0-0.2-1-0.2-1,0c0-0.2,0-6.7,0-6.9c0,0.2,1,0.2,1,0C627.2,175.6,627.2,182,627.2,182.3z"/>
		<path class="st12" d="M633.7,175.4c-0.1,0.2,0.8,0.2,1,0c-0.2,2.3-0.2,4.6,0,6.9c-0.2-0.2-1.1-0.2-1,0c-0.1-1.8-0.1-3.4,0-5.2
			c-0.1,0.1-0.1,0.4,0,0.3c-0.7,1.3-1.2,2.5-1.6,3.8c0-0.1-0.7-0.1-0.7,0c-0.5-1.3-1.1-2.5-1.6-3.7c0.1,0.1,0.2-0.3,0-0.4
			c0.1,1.8,0.1,3.4,0,5.2c0.1-0.2-0.8-0.2-1,0c0.2-2.3,0.2-4.6,0-6.9c0.2,0.2,1,0.2,1,0c0.1,0.2,2,4.5,2,4.5
			S633.6,175.6,633.7,175.4z"/>
		<path class="st12" d="M636.2,181.8c-0.2-0.3-0.4-0.8-0.4-1.1c0.1-0.4,0.2-0.8,0.4-1.1c0.4-0.2,0.8-0.3,1.2-0.3
			c0.4,0.1,1,0.1,1.4,0c-0.1,0.1,0,0.8,0.1,0.8c-0.4,0-1,0-1.4,0c-0.2,0-0.4,0.1-0.5,0.2c-0.1,0.1-0.1,0.3-0.2,0.5
			c0,0.2,0.1,0.4,0.2,0.5c0.2,0.1,0.5,0.1,0.8,0.2c0.3,0,0.5-0.1,0.8-0.1c0.1-0.1,0.2-0.2,0.2-0.3c-0.1,0,0,0.7,0.1,0.7
			c-0.1,0.1-0.2,0.2-0.3,0.3c-0.2,0-0.3,0.1-0.4,0.2c-0.2,0-0.3,0-0.5,0.1C637.2,182.2,636.7,182,636.2,181.8z M638.9,179.1
			c-0.1-0.2-0.1-0.5-0.2-0.8c-0.2-0.1-0.4-0.2-0.8-0.2c-0.2,0.1-0.3,0.1-0.5,0.1c-0.1,0.1-0.3,0.2-0.5,0.2c-0.2-0.1-0.4-0.3-0.7-0.4
			c0.3-0.1,0.5-0.3,0.8-0.5c0.3,0,0.7,0,1-0.2c0.3,0.1,0.7,0.2,1.1,0.2c0.2,0.2,0.4,0.4,0.7,0.7c0,0.3,0.1,0.7,0.2,1
			c-0.1,1.1-0.1,2.1,0,3.2c-0.1-0.1-1-0.1-1,0C638.7,181.2,638.7,180.1,638.9,179.1z"/>
		<path class="st12" d="M641.7,182c-0.1-0.2-0.3-0.4-0.5-0.7c0-0.3-0.1-0.8-0.2-1.1c0.1-0.3,0.1-0.8,0-1.1c0.1-0.3,0.1-0.8,0.2-1.1
			c0.2-0.2,0.4-0.4,0.5-0.7c0.3,0,0.7-0.1,1-0.2c0.2,0.1,0.5,0.2,0.8,0.2c0.1,0.2,0.3,0.4,0.5,0.7c-0.1,0.3-0.1,0.7-0.1,1
			c-0.1-0.2-0.1-0.3-0.1-0.5c-0.1-0.1-0.2-0.2-0.3-0.3c-0.2,0-0.3,0-0.5-0.1c-0.2,0.1-0.5,0.2-0.8,0.3c-0.1,0.2-0.2,0.5-0.2,0.9
			s0,0.8,0,1.1s0.1,0.5,0.2,0.9c0.2,0.1,0.4,0.2,0.8,0.3c0.1-0.1,0.3-0.1,0.5-0.1c0.1-0.1,0.2-0.2,0.3-0.3c0-0.2,0-0.3,0.1-0.5
			c-0.1,0.3,0,0.7,0.1,1c-0.2,0.2-0.3,0.3-0.4,0.7c-0.3,0-0.5,0.1-0.8,0.2C642.4,182.2,642,182,641.7,182z M642.1,184.1
			c0-0.2-0.1-0.2-0.4-0.2c-0.1-0.2-0.4-0.4-0.7-0.5c0.1-0.1,0.8-0.8,0.7-0.5c0.2,0,0.3,0.2,0.4,0.4c0.2-0.1,0.4,0,0.5,0.1
			c0.3-0.1,0.5-0.2,0.9-0.3c0.1-0.3,0.2-0.5,0.3-0.9c-0.1-0.1-0.1-4.7,0-4.9c-0.1,0.2,0.9,0.2,1,0c-0.1,1.5-0.1,3.2,0,4.7
			c-0.1,0.3-0.2,0.8-0.2,1.2c-0.3,0.2-0.5,0.4-0.8,0.8c-0.4,0-0.8,0.1-1.1,0.2C642.4,183.9,642.1,183.9,642.1,184.1z"/>
		<path class="st12" d="M647.5,182.3c0-0.1-0.1-0.2-0.4-0.2c-0.2-0.2-0.4-0.5-0.8-0.8c0-0.4-0.1-0.8-0.2-1.2c0.1,0,0.1-0.5,0-0.5
			c0.1-0.4,0.2-0.9,0.2-1.2c0.2-0.2,0.4-0.5,0.7-0.8c0.3,0,0.8-0.1,1.1-0.2c0.3,0.1,0.7,0.2,1.1,0.3c0.2,0.3,0.4,0.7,0.7,0.9
			c0,0.4,0.1,1,0.2,1.4c-0.1,0-0.1,0.3,0,0.3c-0.1,0-3.3,0-3.3,0c0.1-0.2,0.1-0.5,0-0.8c0.1,0,2.3,0,2.4,0c-0.1-0.3-0.2-0.7-0.3-1
			c-0.2-0.1-0.4-0.2-0.8-0.3c-0.3,0.1-0.5,0.2-0.9,0.3c-0.1,0.3-0.2,0.7-0.3,1c0.1,0.2,0.1,0.4,0,0.7c0,0.3,0.1,0.7,0.3,1
			c0.3,0.1,0.7,0.2,1,0.3c0.2-0.1,0.3-0.1,0.5-0.1c0.1-0.1,0.3-0.2,0.5-0.3c-0.1-0.1,0.5,0.5,0.7,0.7c-0.3,0.1-0.5,0.3-0.8,0.5
			c-0.3,0-0.7,0-1,0.2C647.7,182.2,647.5,182.2,647.5,182.3z"/>
		<path class="st12" d="M655.6,175.4c0,0.2,0.8,0.2,0.8,0c0,0.2,2.4,6.7,2.5,6.9c-0.2-0.2-1.2-0.2-1.1,0c-0.1-0.2-1.9-5.5-1.9-5.6
			c0,0.1-1.8,5.4-1.9,5.6c0.1-0.2-0.9-0.2-1.1,0C653.3,182,655.6,175.6,655.6,175.4z M654.3,179.7c0.1,0,3.5,0,3.6,0
			c-0.1,0-0.1,0.9,0,1c-0.1,0-3.5,0-3.6,0C654.4,180.6,654.4,179.7,654.3,179.7z"/>
		<path class="st12" d="M659.9,175.4c0.1,0.2,1,0.2,0.9,0c0.1,0.2,3.3,5.2,3.4,5.3c-0.1-0.1-0.2,0-0.1,0.1c-0.1-1.9-0.1-3.6,0-5.5
			c-0.1,0.2,0.8,0.2,1,0c-0.1,2.3-0.1,4.6,0,6.9c-0.1-0.2-1-0.2-0.9,0c-0.1-0.2-3.3-5.2-3.4-5.3c0.1,0.1,0.2,0,0.1-0.1
			c0.1,1.8,0.1,3.6,0,5.4c0.1-0.2-0.8-0.2-1,0C660,180,660,177.7,659.9,175.4z"/>
		<path class="st12" d="M666.6,181.8c-0.2-0.3-0.4-0.8-0.4-1.1c0.1-0.4,0.2-0.8,0.4-1.1c0.4-0.2,0.8-0.3,1.2-0.3
			c0.4,0.1,1,0.1,1.4,0c-0.1,0.1,0,0.8,0.1,0.8c-0.4,0-1,0-1.4,0c-0.2,0-0.4,0.1-0.5,0.2c-0.1,0.1-0.1,0.3-0.2,0.5
			c0,0.2,0.1,0.4,0.2,0.5c0.2,0.1,0.5,0.1,0.8,0.2c0.3,0,0.5-0.1,0.9-0.1c0.1-0.1,0.2-0.2,0.2-0.3c-0.1,0,0,0.7,0.1,0.7
			c-0.1,0-0.2,0.2-0.3,0.3c-0.2,0-0.3,0.1-0.4,0.2c-0.2,0-0.3,0-0.5,0.1C667.5,182.2,667,182,666.6,181.8z M669.1,179.1
			c0-0.2-0.1-0.5-0.2-0.8c-0.2-0.1-0.4-0.2-0.8-0.2c-0.2,0.1-0.3,0.1-0.5,0.1c-0.1,0.1-0.3,0.2-0.5,0.2c-0.2-0.1-0.4-0.3-0.7-0.4
			c0.3-0.1,0.5-0.3,0.8-0.5c0.3,0,0.7,0,1-0.2c0.3,0.1,0.7,0.2,1.1,0.2c0.2,0.2,0.4,0.4,0.7,0.7c0,0.3,0.1,0.7,0.2,1
			c-0.1,1.1-0.1,2.1,0,3.2c-0.1-0.1-1-0.1-1,0C669.1,182,669.1,179.1,669.1,179.1z"/>
		<path class="st12" d="M672.4,180.9c0,0.1,0,0.2,0.1,0.3c0-0.1,0.1-0.1,0.2,0.1c0-0.1,0.4-0.1,0.4,0c-0.1-0.1-0.1,0.8,0,1
			c-0.1-0.2-0.5-0.2-0.5,0c-0.2-0.1-0.5-0.3-0.9-0.3c-0.1-0.3-0.2-0.7-0.3-1c0-0.1,0-5.4,0-5.6c0,0.2,1,0.2,1,0
			C672.4,175.6,672.4,180.8,672.4,180.9z"/>
		<path class="st12" d="M673.6,177.2c0.1,0.1,1,0.1,1,0c0,0.1,1.4,4.2,1.5,4.3c-0.1-0.1-0.5,0.9-0.5,1.1
			C675.6,182.5,673.7,177.4,673.6,177.2z M678,177.2c-0.1,0.2-2.1,5.9-2.1,6c-0.1,0.2-0.2,0.3-0.3,0.5c-0.1-0.1-0.2,0-0.4,0.3
			c-0.1-0.1-0.3-0.1-0.7,0.1c0.1-0.2-0.1-0.2-0.2,0c0.1-0.2,0.1-1.1,0-1c0.1-0.1,0.3-0.1,0.2,0c0.2-0.1,0.4-0.2,0.4-0.1
			c0.1-0.1,0.2-0.2,0.2-0.3c0.1-0.1,1.8-5.4,1.9-5.6C676.9,177.4,677.9,177.4,678,177.2L678,177.2z"/>
		<path class="st12" d="M680,182.3c0-0.1-0.1-0.2-0.3-0.1c-0.2-0.2-0.4-0.3-0.8-0.2c-0.1-0.2-0.3-0.4-0.7-0.4
			c0.2-0.2,0.4-0.4,0.5-0.7c0.3,0.1,0.5,0.2,0.8,0.4c0.2,0,0.5,0.1,0.8,0.1c0.3-0.1,0.5-0.1,0.9-0.2c0.1-0.2,0.2-0.3,0.3-0.5
			c0-0.1-0.1-0.2-0.1-0.3c-0.1-0.1-0.2-0.1-0.4-0.1c-0.2-0.1-0.4-0.1-0.7-0.1c0,0,0,0-0.1,0c0,0,0,0-0.1,0l0,0l0,0l0,0
			c-0.3,0-0.5-0.1-0.8-0.1c-0.2-0.1-0.4-0.2-0.5-0.3l-0.3-0.9c0.1-0.3,0.2-0.5,0.2-0.9c0.2-0.1,0.4-0.3,0.7-0.5c0.3,0,0.8,0,1.1-0.2
			c0.2,0.1,0.4,0.2,0.8,0.1c0.1,0.2,0.4,0.2,0.7,0.2c0.1,0.2,0.3,0.3,0.7,0.3c-0.2,0.2-0.4,0.4-0.5,0.7c-0.2-0.1-0.5-0.2-0.8-0.3
			c-0.2,0-0.4,0-0.7-0.1c-0.2,0.1-0.4,0.1-0.8,0.2c-0.1,0.1-0.2,0.3-0.2,0.5c0,0.1,0.1,0.2,0.1,0.3c0.1,0.1,0.2,0.1,0.3,0.1
			c0.2,0,0.4,0.1,0.5,0.1c0,0,0,0,0.1,0c0.1,0,0,0,0.1,0c0.1,0,0,0,0,0l0,0l0.9,0.1c0.2,0.1,0.4,0.2,0.7,0.4c0,0.2,0.1,0.4,0.2,0.9
			c-0.1,0.3-0.2,0.5-0.2,0.9c-0.2,0.1-0.5,0.3-0.7,0.5c-0.4,0-0.8,0-1.1,0.2C680.1,182.2,680,182.2,680,182.3z"/>
		<path class="st12" d="M683.6,175.5c0.3,0,0.7,0,1,0c0,0.3,0,0.7,0,1c-0.3,0-0.7,0-1,0C683.6,176,683.6,175.7,683.6,175.5z
			 M683.6,177.3c0,0.1,1,0.1,1,0c0,0.1,0,4.8,0,4.9c0-0.1-1-0.1-1,0C683.6,182,683.6,177.4,683.6,177.3L683.6,177.3z"/>
		<path class="st12" d="M687.2,182.3c0-0.1-0.1-0.2-0.4-0.1c-0.2-0.2-0.4-0.3-0.7-0.2c-0.1-0.2-0.3-0.4-0.7-0.4
			c0.2-0.2,0.4-0.4,0.5-0.7c0.3,0.1,0.5,0.2,0.8,0.4c0.2,0,0.5,0.1,0.8,0.1c0.3-0.1,0.5-0.1,0.9-0.2c0.1-0.2,0.2-0.3,0.3-0.5
			c0-0.1-0.1-0.2-0.1-0.3c-0.1-0.1-0.2-0.1-0.4-0.1c-0.2-0.1-0.4-0.1-0.7-0.1c0,0,0,0-0.1,0c-0.1,0,0,0-0.1,0c-0.1,0,0,0,0,0l0,0
			l-0.8-0.1c-0.2-0.1-0.3-0.2-0.5-0.3c0-0.2-0.1-0.4-0.2-0.8c0.1-0.3,0.2-0.5,0.2-0.9c0.2-0.1,0.4-0.3,0.7-0.5c0.3,0,0.8,0,1.1-0.2
			c0.2,0.1,0.4,0.2,0.8,0.1c0.2,0.2,0.4,0.2,0.7,0.2c0.1,0.2,0.3,0.3,0.7,0.3c-0.2,0.2-0.4,0.4-0.5,0.7c-0.2-0.1-0.5-0.2-0.8-0.3
			c-0.2,0-0.4,0-0.7-0.1c-0.2,0.1-0.4,0.1-0.8,0.2c-0.1,0.1-0.2,0.3-0.2,0.5s0.1,0.2,0.1,0.3c0.1,0.1,0.2,0.1,0.3,0.1
			c0.2,0,0.4,0.1,0.7,0.1c0,0,0,0,0.1,0c0.1,0,0,0,0.1,0c0.1,0,0,0,0,0l0,0l0.9,0.1c0.2,0.1,0.4,0.2,0.7,0.4c0,0.2,0.1,0.4,0.2,0.9
			c-0.1,0.3-0.2,0.5-0.2,0.9c-0.2,0.1-0.5,0.3-0.7,0.5c-0.4,0-0.8,0-1.1,0.2C687.4,182.2,687.2,182.2,687.2,182.3z"/>
	</g>
</g>
<image style="overflow:visible;" width="267" height="238" xlink:href="../../../../../../../Downloads/geea.png"  transform="matrix(0.6175 0 0 0.6175 241.0915 87.4636)">
</image>
<image style="overflow:visible;" width="4096" height="1206" xlink:href="../../../../../../../Downloads/ufmg-logo-1-1.png"  transform="matrix(6.286265e-02 0 0 6.286265e-02 257.2976 3.1491)">
</image>
<image style="overflow:visible;" width="197" height="220" xlink:href="../../../../../../../Downloads/gepv.png"  transform="matrix(0.6244 0 0 0.6244 400.9128 91.0649)">
</image>
</svg>
