<?xml version="1.0" encoding="utf-8"?>
<!-- Generator: Adobe Illustrator 23.0.5, SVG Export Plug-In . SVG Version: 6.00 Build 0)  -->
<svg version="1.1" id="Camada_1" xmlns="http://www.w3.org/2000/svg" xmlns:xlink="http://www.w3.org/1999/xlink" x="0px" y="0px"
	 viewBox="0 0 192.3 222" style="enable-background:new 0 0 192.3 222;" xml:space="preserve">
<style type="text/css">
	.st0{fill-rule:evenodd;clip-rule:evenodd;fill:#1B1918;}
	.st1{fill-rule:evenodd;clip-rule:evenodd;fill:#D49D00;}
	.st2{clip-path:url(#SVGID_2_);}
	.st3{fill-rule:evenodd;clip-rule:evenodd;fill:#AA7500;}
	.st4{fill-rule:evenodd;clip-rule:evenodd;fill:#005487;}
	.st5{fill-rule:evenodd;clip-rule:evenodd;fill:#ECEDED;}
	.st6{fill-rule:evenodd;clip-rule:evenodd;fill:#C5C7C8;}
	.st7{fill-rule:evenodd;clip-rule:evenodd;fill:#F07C00;}
	.st8{fill:url(#SVGID_3_);}
	.st9{opacity:0.5;}
	.st10{opacity:0.2;fill:url(#SVGID_4_);enable-background:new    ;}
	.st11{fill:url(#SVGID_5_);}
	.st12{fill:#FFFFFF;}
	.st13{fill:url(#SVGID_6_);}
	.st14{fill:#195600;}
	.st15{opacity:0.8;}
	.st16{fill:#754C24;}
	.st17{fill:none;stroke:#333333;stroke-width:0.1;stroke-miterlimit:10;}
	.st18{opacity:0.9;}
	.st19{fill:#8C6239;}
	.st20{opacity:0.6;}
	.st21{fill:#603813;}
	.st22{fill:#333333;}
</style>
<g id="surface1">
	<path class="st0" d="M-776.2,186.5l-0.1,3.7c-0.2-0.2-0.8-0.5-1.2-0.6c-0.8-0.1-1.8-0.1-2.9-0.2c-0.5,1.2-0.4,2.2,1.5,2.9
		c0.9,0.4,1.5,1.3,1.2,2.7c-0.1,0.2-0.1,0.8,0,1c0.4,0.5,0.8,0.8,1.6,0.9c0.2,1,1,2.2,2.8,2.3c1.8,0,2.7-1,2.9-1.9
		c1.4,0,1.9-0.5,1.9-1.5c0-0.6-0.1-0.9,0-1.4c0.2-0.5,0.5-0.9,1-1.2c0.4-0.2,0.6-0.4,0.9-0.5c1.4-0.4,1.8-1.6,1.3-2.6
		c-0.5,0-2.5-0.1-2.9-0.1c-0.8,0.1-0.9,0.4-1.2,0.5V188c0.1,0,0.1,0,0.1,0c7.5,1.4,13.9,0.6,18-3.3c5.7-6.8,6.7-17.9,6.9-19.5
		c0.6-4.4-4.2-7.1-9.8-8.9c0.4-2.8,4.7-8.3,6.1-11.5c-6-1.4-13.4,1.4-14.4,2.3l6.5-60.9h-6.3l0.4-4.6h1.2c0.9-0.1,1.2-0.8,1.3-1.2
		v-1.1c0.5,0,1-0.1,1.4-0.2c0.8-0.1,1.4-0.5,1.6-1.3c0.2-0.9,0.2-2.6,0.1-3.4c-0.1-0.6-0.5-1.2-1.2-1.5c-0.5-0.2-1.2-0.4-2-0.5v-1.2
		c0-0.1-0.1-1.3-1.8-1.3c-4.3,0-8.7,0-13,0c-0.9,0.1-1.5,0.5-1.5,1.5v0.9c-0.9,0.1-1.6,0.2-2.3,0.5c-0.6,0.4-1.2,0.9-1.2,1.8
		c-0.1,0.9-0.1,1.8,0,2.9c0.2,0.8,0.6,1.3,1.8,1.5c0.6,0.2,1,0.2,1.6,0.4v1.3c0.1,0.6,0.6,1.2,1.3,1.2h1.2l-0.1,4.6h-16.8v-4.6h1
		c0.9-0.1,1.2-0.8,1.2-1.2v-1.4c0.6,0,1.3-0.1,1.8-0.2c0.8-0.1,1.3-0.5,1.5-1.3c0.4-0.9,0.2-2.6,0.1-3.4c-0.1-0.6-0.5-1.2-1-1.5
		c-0.6-0.2-1.4-0.4-2.3-0.5v-1.2c0-0.1-0.1-1.3-1.8-1.3c-1.9,0-4.1,0-6.1,0c-0.1,0-0.1,0-0.2,0c-2,0-4.2,0-6.1,0
		c-1.6,0-1.8,1.2-1.8,1.3v1.2c-0.9,0.1-1.6,0.2-2.3,0.5c-0.5,0.4-0.9,0.9-1,1.5c-0.1,0.9-0.2,2.6,0.1,3.4c0.2,0.8,0.8,1.2,1.5,1.3
		c0.5,0.1,1.2,0.2,1.8,0.2v1.4c0,0.4,0.2,1,1.2,1.2h1v4.6h-17l-0.1-4.6h1.2c0.6,0,1.2-0.5,1.3-1.2v-1.3c0.6-0.1,1-0.1,1.6-0.4
		c1.2-0.2,1.5-0.8,1.8-1.5c0.1-1.2,0.1-2,0-2.9c0-0.9-0.5-1.4-1.2-1.8c-0.6-0.2-1.4-0.4-2.3-0.5v-0.9c0-1-0.6-1.4-1.5-1.5
		c-4.3,0-8.7,0-13,0c-1.6,0-1.8,1.2-1.8,1.3v1.2c-0.9,0.1-1.5,0.2-2,0.5c-0.6,0.4-1,0.9-1.2,1.5c-0.1,0.9-0.1,2.6,0.1,3.4
		c0.2,0.8,0.9,1.2,1.6,1.3c0.4,0.1,0.9,0.2,1.4,0.2v1.4c0.1,0.4,0.4,1,1.3,1.2h1.2l0.4,4.6h-6.3l6.5,60.9c-1-0.9-8.4-3.7-14.4-2.3
		c1.4,3.2,5.7,8.7,6.1,11.5c-5.6,1.8-10.5,4.4-9.8,8.9c0.2,1.6,1.2,12.7,6.9,19.5c4.1,4,10.5,4.7,18,3.3c0,0,0,0,0.1,0v2.5
		c-0.2-0.1-0.4-0.4-1.2-0.5c-0.5,0-2.5,0.1-2.9,0.1c-0.5,0.9-0.1,2.2,1.3,2.6c0.2,0.1,0.5,0.2,0.9,0.5c0.5,0.2,0.8,0.6,1,1.2
		c0.1,0.5,0,0.8,0,1.4c0,1,0.5,1.5,1.9,1.5c0.2,0.9,1.2,1.9,2.9,1.9c1.8-0.1,2.6-1.3,2.8-2.3c0.9-0.1,1.3-0.4,1.6-0.9
		c0.1-0.2,0.1-0.8,0-1c-0.4-1.4,0.2-2.3,1.2-2.7c1.9-0.8,2-1.8,1.5-2.9c-1.2,0.1-2.2,0.1-2.9,0.2c-0.4,0.1-0.9,0.4-1.2,0.6l-0.1-3.7
		c6.7-1.3,10.9-1.6,16.2-1.8v3.3c0-0.2-0.2-0.5-1.2-0.8c-0.5,0-2.5,0-2.9-0.1c-0.6,0.9-0.4,2.2,0.9,2.7c0.4,0.1,0.5,0.2,1,0.5
		c0.4,0.2,0.8,0.6,0.9,1.2c0.1,0.5,0,0.8,0,1.4c-0.1,1,0.5,1.5,1.9,1.6c0,0.2,0.2,0.6,0.5,1c0.4,0.5,1.2,1,2.2,1c0.1,0,0.1,0,0.2,0
		c0.1,0,0.1,0,0.2,0c1,0,1.8-0.5,2.2-1c0.2-0.4,0.5-0.8,0.5-1c1.4-0.1,2-0.6,1.9-1.6c0-0.6-0.1-0.9,0-1.4c0.1-0.5,0.5-0.9,0.9-1.2
		c0.5-0.2,0.6-0.4,1-0.5c1.3-0.5,1.5-1.8,0.9-2.7c-0.5,0.1-2.5,0.1-2.9,0.1c-0.9,0.2-1.2,0.5-1.2,0.8V185
		C-787.1,184.7-782.9,185.2-776.2,186.5z M-767.2,160.8l-0.6,9.4c4.7,0.6,8.7,0.9,10.8,0.5c-0.1-1.5-1.5-3.7-3.2-5
		C-762.8,163.4-765.7,161.7-767.2,160.8z M-824.8,160.8l0.6,9.4c-4.7,0.6-8.7,0.9-10.8,0.5c0.1-1.5,1.5-3.7,3.2-5
		C-829.2,163.4-826.3,161.7-824.8,160.8z M-816.5,163.8l0.1,5.1c4.2-0.6,8.4-1.3,13.1-1.8C-808,166.6-812.3,165.8-816.5,163.8z
		 M-775.5,163.8l-0.1,5.1c-4.2-0.6-8.4-1.3-13.1-1.8C-784.1,166.6-779.9,165.8-775.5,163.8z M-756,42.5c-3,1.5-7,0.1-9.4,3.3
		c-1.4,1.9-2,5.5-4.2,6.5c-2.7,1.4-7.5,3-8.1,6.3c-0.5,3.2,0.6,7.1,4,8.8c0.2,0.2,0.9-0.1,0.6-0.6c-0.6-1.8-0.5-4.1,0.4-5.6
		c0.2,2.5,0.8,4,2.2,5.3c0.1,0.1,0.2,0.1,0.5,0c0.1-0.1,0.2-0.2,0.1-0.5c-0.2-2,0.2-5.9,3.3-8.8c-1,3.9-0.6,6.4,0.9,9.2
		c0.2,0.4,0.8,0.4,0.9-0.1c0,0,0-0.2,0-0.4c0.1-1.6,0.9-3.4,2.8-5.1c-0.4,1-1.5,4.1-0.1,6.4c0,0.1,0,0.2,0.2,0.4
		c0.1,0.1,0.5,0,0.8-0.1c1.5-0.4,2.5-1.3,2.7-2.7c0.5-1.9,0.5-3,2-5.5c1.9-3.4,0.6-5.7,0.1-9.2c0-0.5-0.8-0.6-0.9,0
		c-0.1,0.4-1,4.7-4.8,5.4c1.4-1.8,1.9-2.5,2.3-4.4c0.6-3.2,2.6-5,4.2-7.5C-754.7,42.4-755.5,42-756,42.5z M-813.7,42.5
		c-3,1.5-7,0.1-9.4,3.3c-1.4,1.9-1.9,5.5-4.2,6.5c-2.7,1.4-7.5,3-8.1,6.3c-0.5,3.2,0.6,7.1,4.1,8.8c0.1,0.2,0.8-0.1,0.5-0.6
		c-0.6-1.8-0.5-4.1,0.5-5.6c0.1,2.5,0.6,4,2,5.3c0.1,0.1,0.4,0.1,0.5,0c0.2-0.1,0.2-0.2,0.2-0.5c-0.2-2,0.1-5.9,3.2-8.8
		c-1,3.9-0.5,6.4,1,9.2c0.1,0.4,0.6,0.4,0.8-0.1c0,0,0-0.2,0-0.4c0.1-1.6,0.9-3.4,2.8-5.1c-0.3,1.1-1.4,4.1,0,6.5
		c0.1,0.1,0.1,0.2,0.4,0.4c0.1,0.1,0.5,0,0.8-0.1c1.4-0.4,2.3-1.3,2.6-2.7c0.5-1.9,0.5-3,2.2-5.5c1.8-3.4,0.5-5.7,0-9.2
		c0-0.5-0.6-0.6-0.9,0c-0.1,0.4-0.9,4.7-4.7,5.4c1.3-1.8,1.9-2.5,2.2-4.4c0.6-3.2,2.6-5,4.2-7.5C-812.4,42.4-813.2,42-813.7,42.5z
		 M-785.1,42.5c-3,1.5-7,0.1-9.4,3.3c-1.4,1.9-2,5.5-4.2,6.5c-2.7,1.4-7.5,3-8.1,6.3c-0.5,3.2,0.6,7.1,4,8.8
		c0.2,0.2,0.9-0.1,0.6-0.6c-0.6-1.8-0.5-4.1,0.4-5.6c0.2,2.5,0.8,4,2.2,5.3c0.1,0.1,0.2,0.1,0.5,0c0.1-0.1,0.2-0.2,0.1-0.5
		c-0.2-2,0.2-5.9,3.2-8.8c-0.9,3.9-0.5,6.4,1,9.2c0.1,0.4,0.8,0.4,0.9-0.1c0,0,0-0.2,0-0.4c0.1-1.6,0.9-3.4,2.8-5.1
		c-0.4,1-1.6,4.1-0.1,6.4c0,0.1,0,0.2,0.2,0.4c0.1,0.1,0.5,0,0.8-0.1c1.5-0.4,2.5-1.3,2.7-2.7c0.5-1.9,0.5-3,2-5.5
		c1.9-3.4,0.6-5.7,0.1-9.2c0-0.5-0.8-0.6-0.9,0c-0.1,0.4-1,4.7-4.8,5.4c1.3-1.8,1.9-2.5,2.3-4.4c0.6-3.2,2.6-5,4.1-7.5
		C-783.8,42.4-784.7,42-785.1,42.5z"/>
	<path class="st0" d="M-813.7,89.3c0.1-0.4,0.4-0.5,0.8-0.1c0.8,0.8,1.5,1.5,1.8,2.6c0.2,1.2-0.2,2.5-1.9,5.5
		c-0.6,1.5-0.8,2-0.9,2.8c0.4-0.8,1.6-1.8,2.7-2.7c0.4-0.5,0.8-1,1-1.8c0.1-0.6,0.5-0.9,0.9-0.2c2.3,2.7,1.6,4.3,1.5,5.4
		c-1,2.7-1.9,4.2-1.4,5.9c0.1,0.5-0.1,0.8-0.5,0.6c-1.6-0.5-2.6-1.8-2.9-3.3c-0.8,1.4-0.4,2.7,0.4,3.9c0.4,0.4,0.1,0.8-0.4,0.6
		c-2-0.4-3.3-1.6-4-3.2c-0.2,1.5,0.5,3.2,1.9,4.4c0.6,0.4,0.2,0.9-0.4,0.8c-2.2,0-3.4-0.9-4.1-1.4c0.2,1,0.8,2,2.6,2.9
		c0.1,0.1,0.1,0.1,0.2,0.1c0.2,0.1,0.2,0.5-0.2,0.8c-1.9,0.5-3.4,0.2-4.8-0.1c-3.6-1-5.6-2.9-6.8-5.5c-0.9-2.9-0.2-5.3,1.5-6.7
		c1.3-1,2.7-1,3.9-1.4c1.2-0.4,2.2-1.2,3-3c0.6-1.5,1.6-2.7,3-3.6c0.9-0.6,1.5-0.9,2-1.4C-814,90.5-813.8,89.9-813.7,89.3z
		 M-805.4,106.7c-1-1.3-2.2-1-3.3,0l-3.7,3.4l-3.7,3.3c-1.2,1-1.5,2.2-0.2,3.3c-1,1.2-1.4,1.8-0.6,2.8c0.4,0.6,0.9,1.2,1.5,1.8
		c0.6,0.4,1.4,0.5,2.8-0.5c0.9,1,2,0.8,2.9-0.1l6.9,6.1c-2.2-0.8-3.7-1.2-6.1-1.6c-3.2-0.5-6.1-0.1-8.5,0.9
		c-3.7,1.6-6.1,3.7-6.8,5.8c-1,3.4,0.6,7.7,4.3,10.1c1.8,1.3,3.9,2.3,5.7,3.3c2.9,1.5,5.3,3.2,6.9,5.5c0.4,0.6,0.8,0,0.9-0.2
		c0.5-1.2,0.8-2.9,0.2-5.4c-0.2-1.3-0.6-1.9-1.2-2.5c-0.5-0.5-1-0.9-1.3-1.5c-0.4-0.9-0.6-1.9-0.4-3.2c0.6-2.8,3-3.3,5.5-2.9
		c3.6,0.6,6.8,2.6,9.4,4.2l0.9,4.2c0.1,0.4,0.1,0.4,0.5,0.4l4,1.3c0.4,0.5,1,1.3,1.2,2c0.1,0.5,0.4,0.9,0,2.2
		c-0.6,1.3-3.4,1.3-4.4,1.5c-0.5,0.1-0.9,0.2-1.3,0.4c-0.9,0.4-1.4,0.9-1.6,1.6c-0.2,0.6,0,1.5,0.4,2.7c0,0.1,0.4,0.4,0.6,0.1
		c0.2-0.6,0.9-1.3,1.5-1.4c1.3-0.2,2.2,0,2.7,0.2c2.3,0.9,4,1.8,5.5,1.8c0.9,0,1.6-0.2,2.3-0.8c0.6-0.5,1-1.2,1.3-1.9
		c1.2,0.8,2.3,1,4.6,1.5c1.5,0.1,3.2,0.2,4.7,0.4c0.4,0,0.5,0,0.5,0c0-0.1,0-0.1,0-0.1c0.1,0,0.1-0.1,0.1-0.5c0.1-1.5,0.1-3.2,0-4.7
		c-0.1-2.5-0.4-3.6-1-4.7c0.8-0.1,1.5-0.5,2-1.2c0.5-0.5,0.9-1.3,1-2.2c0.1-1.5-0.6-3.2-1.4-5.6c-0.1-0.5-0.4-1.4,0-2.7
		c0.2-0.6,1-1.2,1.5-1.4c0.4-0.2,0.2-0.6,0-0.6c-1-0.5-1.9-0.8-2.7-0.6c-0.8,0.1-1.3,0.6-1.8,1.4c-0.1,0.4-0.4,0.9-0.5,1.3
		c-0.2,1.2-0.8,4-1.9,4.3c-1.4,0.2-1.9,0-2.3-0.1c-0.8-0.2-1.4-0.9-1.8-1.3l-0.9-4.2c0-0.2,0-0.4-0.2-0.4l-4.2-1.4
		c-1.4-2.7-3-6.1-3.3-9.7c-0.1-2.5,0.5-4.7,3.4-5.1c1.3-0.2,2.3,0.1,3,0.6c0.8,0.2,0.9,0.9,1.5,1.4c0.4,0.5,1,1,2.2,1.4
		c2.5,0.8,4.2,0.6,5.5,0.2c0.2-0.1,0.9-0.5,0.2-0.9c-2.2-1.8-3.6-4.3-4.8-7.4c-0.9-1.9-1.6-4.1-2.7-6c-2.2-4-6.3-6-9.7-5.3
		c-2.2,0.4-4.4,2.7-6.5,6.3c-1.3,2.3-1.8,5.1-1.6,8.3c0.4,2.6,0.5,4.1,1,6.4l-5.4-7.5c1-0.9,1.3-1.9,0.4-2.9c1.2-1.3,1.2-2,0.8-2.7
		c-0.5-0.6-1-1.3-1.5-1.8C-803.5,105.6-804.2,106-805.4,106.7z"/>
	<path class="st1" d="M-760.8,70.7h-13.6c-0.1,0-0.1,0.1-0.1,0.1v1c4.2-0.1,9.2-0.1,13.8,0L-760.8,70.7
		C-760.7,70.7-760.7,70.7-760.8,70.7z M-773.3,198.4c-1.2-0.1-2.2-1-2-2c0-1,1-1.8,2.3-1.8c1.3,0.1,2.2,1,2,2
		C-771,197.7-772,198.5-773.3,198.4z M-796,195.8c-1.3,0-2.5-0.9-2.5-1.9s1.2-1.9,2.5-1.9c1.3,0,2.3,0.9,2.3,1.9
		C-793.8,195-794.7,195.8-796,195.8z M-818.8,198.4c1.3-0.1,2.2-1,2.2-2c-0.1-1-1.2-1.9-2.5-1.8c-1.2,0-2,1-2,2
		C-820.9,197.7-820,198.5-818.8,198.4z M-812.1,189.9c0,0-0.2,0-0.8,0c-0.2,0-0.5,0.1-0.8,0.1c-0.5,0-0.9,0.1-1.2,0.1
		c-0.2,0.1-0.5,0.4-0.6,0.4c-0.2,0.5-0.6,0.9-0.9,1.3c-0.4,0.5-0.6,0.9-1,1.2l-0.5-0.4c0.2-0.9,0.8-2.2,0.9-3
		c-0.2-0.4-0.6-0.6-1.2-0.9c-0.4-0.2-0.8-0.4-1.2-0.5c-0.5,0.2-0.9,0.4-1.3,0.6c-0.4,0.5-0.6,0.6-0.8,1.2c0.1,0.9,0.6,1.9,1,2.8
		l-0.4,0.4c-0.4-0.1-0.8-0.5-1.3-0.9c-0.2-0.4-0.6-0.8-0.9-1.2c-0.1-0.1-0.4-0.2-0.6-0.4c-0.4,0-0.6,0-1.3,0c-0.2,0-0.5,0-0.6,0
		c-0.6,0-0.9,0.1-0.9,0c-0.1,0.9,0.9,1.4,1,1.4c0.6,0.1,1.3,0.5,1.5,0.8c0.9,0.8,1,1.6,0.9,2.8c0,0.2,0,0.6,0.5,0.8
		c0.1,0.1,0.4,0.1,0.6,0.1c0-0.5,0.2-1,0.5-1.4c0.5-0.6,1.3-1.2,2.2-1.2c1,0,1.8,0.2,2.3,0.9c0.4,0.2,0.6,0.8,0.8,1.4
		c0.2-0.1,0.5-0.1,0.6-0.2c0.5-0.2,0.4-0.6,0.4-0.9c-0.2-1.2-0.2-2,0.5-2.8c0.2-0.2,0.9-0.8,1.4-0.9
		C-812.7,191.3-811.9,190.7-812.1,189.9z M-816.9,186.7l0.1,1.9c-0.4-0.4-0.8-0.6-1.3-0.8c-0.4-0.1-0.8-0.2-1.2-0.4h-0.1
		c-0.4,0.1-0.8,0.2-1.2,0.5c-0.4,0.2-0.8,0.5-1,0.9v-1.1C-820.1,187.3-818.5,187.1-816.9,186.7z M-803.4,187.9c0,0,0.6,0,1.2,0
		c0.2,0,0.5,0,0.8,0c0.5,0,0.9,0.1,1.2,0.2c0.2,0.1,0.4,0.4,0.5,0.5c0.4,0.4,0.5,0.6,0.9,1c0.4,0.4,0.6,0.8,1,0.9l0.4-0.4
		c-0.4-0.8-0.6-1.8-0.9-2.7c0.2-0.2,0.5-0.6,1-1c0.4-0.2,0.8-0.5,1.3-0.6c0.5,0.1,1,0.4,1.4,0.6c0.4,0.2,0.8,0.6,0.9,1.2
		c-0.1,0.8-0.5,1.8-0.9,2.6l0.4,0.4c0.4-0.1,0.8-0.5,1.2-1c0.4-0.4,0.6-0.8,1-1.2c0.1-0.1,0.4-0.2,0.6-0.4c0.2,0,0.6-0.1,1.2-0.1
		c0.2,0,0.5,0,0.8,0c0.5,0,0.8,0,0.8,0c0.2,0.8-0.8,1.4-1,1.4c-0.5,0.2-1.2,0.6-1.4,0.9c-0.8,0.8-0.9,1.6-0.6,2.8
		c0,0.2,0,0.5-0.5,0.8c-0.1,0-0.4,0.1-0.6,0.1c-0.1-0.6-0.2-0.9-0.6-1.3c-0.5-0.6-1.4-1-2.3-1c-0.8,0-1.6,0.1-2.5,0.9
		c-0.2,0.2-0.5,0.6-0.6,1.3c-0.4,0-0.6-0.1-0.8-0.1c-0.5-0.2-0.4-0.5-0.4-0.9c0.1-1.2,0-1.8-0.8-2.6c-0.1-0.2-0.6-0.6-1.3-0.9
		C-802.3,189.3-803.6,188.6-803.4,187.9z M-798.5,184.6c0.8,0,1.5-0.1,2.5-0.1c0.9,0,1.6,0.1,2.5,0.1v1.9c-0.6-0.8-1.2-1-2.5-1.4
		c-1.3,0.4-1.8,0.8-2.5,1.4V184.6z M-780,189.9c0,0,0.4,0,0.9,0c0.1,0,0.4,0.1,0.8,0.1c0.5,0,0.9,0.1,1.2,0.1
		c0.2,0.1,0.5,0.4,0.6,0.4c0.2,0.5,0.5,0.9,0.8,1.3c0.4,0.5,0.8,0.9,1.2,1.2l0.4-0.4c-0.2-0.9-0.6-2.2-0.8-3c0.1-0.4,0.5-0.6,1-0.9
		s0.8-0.4,1.3-0.5c0.4,0.2,0.8,0.4,1.2,0.6c0.5,0.5,0.6,0.6,0.9,1.2c-0.2,0.9-0.8,1.9-1.2,2.8l0.4,0.4c0.4-0.1,0.9-0.5,1.3-0.9
		c0.2-0.4,0.6-0.8,0.9-1.2c0.1-0.1,0.5-0.2,0.8-0.4c0.2,0,0.6,0,1.2,0c0.2,0,0.5,0,0.8,0c0.5,0,0.8,0.1,0.8,0c0.2,0.9-0.9,1.4-1,1.4
		c-0.6,0.1-1.3,0.5-1.5,0.8c-0.8,0.8-1,1.6-0.9,2.8c0,0.2,0.1,0.6-0.5,0.8c-0.1,0.1-0.2,0.1-0.6,0.1c0-0.5-0.1-1-0.5-1.4
		c-0.5-0.6-1.3-1.2-2.2-1.2c-0.9,0-1.8,0.2-2.3,0.9c-0.4,0.2-0.6,0.8-0.6,1.4c-0.4-0.1-0.5-0.1-0.6-0.2c-0.5-0.2-0.5-0.6-0.5-0.9
		c0.4-1.2,0.2-2-0.5-2.8c-0.1-0.2-0.8-0.8-1.4-0.9C-779.2,191.3-780.2,190.7-780,189.9z M-775.1,186.7v2c0.1-0.1,0.6-0.5,1.3-0.9
		c0.2-0.1,0.6-0.2,1-0.4h0.2c0.4,0.1,0.8,0.2,1,0.5c0.4,0.2,0.8,0.5,1,0.9l0.1-1.2C-772,187.3-773.6,187.1-775.1,186.7z M-769,159.6
		l0.6,0.5l-0.8,9.8c-1.8-0.2-3.6-0.5-5.5-0.8l0.2-6C-772.4,162.2-770.7,161.1-769,159.6z M-823.1,159.6l-0.5,0.4l0.8,9.9
		c1.8-0.2,3.6-0.5,5.4-0.8l-0.1-6c-1.6-0.9-3.3-1.8-4.8-3C-822.8,159.8-822.9,159.7-823.1,159.6z M-762.9,81.5h-9.2l-0.1,4.7h8.9
		L-762.9,81.5z M-800.6,81.5h9.2l-0.1,4.6h-8.9L-800.6,81.5z M-829.1,81.5h9.1l0.1,4.6h-8.9L-829.1,81.5z M-831.1,80.2h13.7V79
		c-4.3,0.1-9.2,0.1-13.9,0v1C-831.3,80.2-831.2,80.2-831.1,80.2z M-802.8,80.2h13.7V79c-4.3,0.1-9.2,0.1-13.9,0v1
		C-803,80.2-802.9,80.2-802.8,80.2z M-760.8,80.2h-13.7V79c4.2,0.1,9.2,0.1,13.9,0.1v1C-760.6,80.2-760.7,80.2-760.8,80.2z
		 M-764.1,73h-7.4c-0.6,0-4.4,0-5.6,0.4c-0.9,0.1-0.9,0.9-0.9,1.3c0,0.8,0,1.2,0,1.8c0.1,0.8,0.5,1,1.4,1.3c1.3,0.1,3.7,0.2,5.1,0.2
		h7.5c1,0,4-0.1,5.3-0.2c1.3-0.2,1.4-0.5,1.5-1.2c0-0.8,0-1.4,0-2c-0.1-0.8-0.4-1.2-1.3-1.3C-759.6,73-763.4,73-764.1,73z
		 M-799.5,72.9h7.3c0.8,0,4.4,0,5.6,0.5c0.9,0.1,0.9,0.8,0.9,1.3c0,0.6,0,1.2,0,1.8c0,0.8-0.4,1-1.4,1.2c-1.3,0.2-3.7,0.2-5,0.2
		h-7.7c-1,0-3.9,0-5.3-0.2c-1.3-0.2-1.4-0.4-1.4-1.2c-0.1-0.6-0.1-1.3,0-2c0-0.8,0.2-1,1.3-1.2C-804.1,73-800.3,72.9-799.5,72.9z
		 M-827.8,72.9h7.3c0.8,0,4.4,0,5.6,0.5c0.9,0.1,0.9,0.8,0.9,1.3c0,0.6,0,1.2,0,1.8c0,0.8-0.5,1-1.4,1.2c-1.3,0.2-3.7,0.2-5,0.2
		h-7.6c-1,0-3.9,0-5.3-0.2c-1.3-0.2-1.4-0.4-1.4-1.2c-0.1-0.6-0.1-1.3,0-2c0-0.8,0.2-1,1.3-1.2C-832.5,73-828.7,72.9-827.8,72.9z
		 M-831.1,70.7h13.6c0,0,0.1,0,0.1,0.1v1c-4.3-0.1-9.2-0.1-13.9,0v-1C-831.3,70.7-831.2,70.7-831.1,70.7z M-802.8,70.7h13.6
		c0.1,0,0.1,0,0.1,0.1v1c-4.2-0.1-9.2-0.1-13.8,0L-802.8,70.7C-802.9,70.7-802.9,70.7-802.8,70.7z"/>
	<g>
		<g>
			<g>
				<g>
					<defs>
						<rect id="SVGID_1_" x="-908" y="-0.2" width="226.2" height="223.4"/>
					</defs>
					<clipPath id="SVGID_2_">
						<use xlink:href="#SVGID_1_"  style="overflow:visible;"/>
					</clipPath>
					<g class="st2">
						<path class="st0" d="M-812.8,223.1c0-1.5,0.1-3.2,0.1-4.7c0-1.6,0-3.2,0-4.7c0-0.5,0-1,0-1.5s0-1,0-1.5l-3.2,1.8
							c-0.1-0.1-0.1-0.4-0.2-0.5c-0.1-0.1-0.2-0.2-0.4-0.4c0.8-0.2,1.5-0.6,2.5-1c0.9-0.4,2-1,3.3-1.6c-0.1,1.3-0.1,2.8-0.1,4.4
							c-0.1,1.6-0.1,3.7-0.1,6.3c0,0.9,0,1.5,0,2.2c0,0.5,0,0.9,0.1,1.4c-0.2,0-0.4,0-0.5,0c-0.1,0-0.2,0-0.5,0c-0.1,0-0.2,0-0.5,0
							C-812.6,223.1-812.7,223.1-812.8,223.1z M-719.1,55.4c1-0.2,1.9-0.5,2.8-1c-2.8,4,0.8,9.8,5.4,6.9c4.3-2.8-2.2-9.2,3-12.5
							c4.7-3,8.8,1.8,9.2,6.3c-0.8,0.1-1.5,0.2-2.2,0.5c2.8-6.8-7.7-8.7-6.5-1.2c0.5,3,1.5,6.3-1.6,8.3
							C-714,65.9-719.5,60.7-719.1,55.4z M-702.2,72.4c-1.3-1.6-3-5-5.6-3.9c-3.7,1.8-0.2,6.5,2.5,5.4L-702.2,72.4z M-707,74.7
							c-3.3-1.2-6.3-6-2.2-8.1c4.7-2.2,5.3,4.1,8.1,5.3c2.2-1,3.9-2.2,2.6-4.7c-0.9-1.8-3.3-2.2-3.4-2.6l1.3-0.6
							c1.5,0.8,2.7,1.9,3.4,3.4c3.7,7.7-10.8,6.8-8.7,11l-0.5,0.2C-707.7,77.4-708.9,76-707,74.7z M-705.5,81.8
							c4.3-0.9,8.8-2.3,12.9-3.6c0,0.6,0.2,1.5,0.6,2.2c-0.8,0.1-1.6,0.4-2.5,0.6c5.1,1.3,5.7,7.7,0.2,9.2c-2.8,0.8-5.6,1.5-8.3,2.5
							c0-0.9-0.2-1.5-0.6-2.3c2.6-0.5,5.3-1.3,7.8-2c5-1.3,3.9-6.9-0.5-6.7c-2.6,0-6.5,1.5-9.1,2.5
							C-704.9,83.2-705.1,82.6-705.5,81.8z M-689.7,94c0.4,0,0.8-0.1,1.2-0.1c0.1,0.5,0.1,1.2,0.2,1.8c1-0.2,2.2-0.4,3.2-0.6
							c0.2,0.8,0.6,1.5,1,2.2c-1.3,0.1-2.7,0.4-4.1,0.5c0.2,1.3,0.5,2.5,0.8,3.7c-0.4,0-0.8,0-1.2,0c-0.1-1.2-0.2-2.5-0.5-3.6
							c-2.6,0.2-5.3,0.6-7.9,1c-6.1,1-1,4.2-2.8,5.1c-2.5-2.6-2.3-6.4,1.8-7c2.9-0.5,5.7-0.8,8.7-1.2
							C-689.4,95.1-689.5,94.5-689.7,94z M-692.7,113c-0.5-2-1-5.9-3.9-5.6c-4.1,0.2-2.6,6,0.2,5.7L-692.7,113z M-698.1,113.3
							c-2.7-2.2-3.6-7.9,1-8.2c5.1-0.4,3.3,5.7,5.5,7.8c2.3-0.1,4.2-0.5,4.1-3.3c-0.1-2-2.2-3.2-2.3-3.9h1.5
							c1.2,1.3,1.8,2.8,1.9,4.4c0.5,8.4-12.5,2.3-12.2,6.9l-0.6,0.1C-699.8,115.5-700.4,113.7-698.1,113.3z M-700,127.3
							c5.9,3,12.3,5.5,18.2,8.1l-0.1,0.5c-5.6,1-11.2,2.2-16.8,3.6c4.1,4.1,8.3,8.2,12.5,12.2v0.4c-6.5-1.2-13.1-2-19.6-3
							c0.4-0.8,0.6-1.5,0.6-2.5c4.6,0.9,9.5,1.9,14,2.3c-3.6-3.7-7.4-7.8-11.6-10.8l0.1-0.4c4.8-0.1,10.6-2,15.4-3.2
							c-4.3-1.8-8.8-3.7-13.3-5C-700.1,128.7-700,128-700,127.3z M-704.4,163.1c0.5-1.9,2-6.4-0.6-7.7c-4.1-1.9-5.1,5-2.6,6.3
							L-704.4,163.1z M-709.3,160.8c-1.3-3.2,0.2-9.8,4.8-7.7c4.7,2.2,0.1,7.5,1,10.6c3.7,1.6,7-2.8,5-6.1l0.1-0.2l1.3,0.6
							c1,4.1-2.5,9.8-7,7.7c-0.6-0.4-5.4-3-6.5-2.9c-0.5,0.1-0.8,0.8-0.9,1.3l-0.5-0.2C-711.9,162-711.5,160.2-709.3,160.8z
							 M-714.3,166.1c3.4,2.7,7.1,5.5,11,7.5c-0.6,0.5-1,1.3-1.4,2c-0.8-0.8-1.5-1.4-2.5-1.9c1.2,2,1.8,3.9-0.1,5.5
							c-0.4-0.4-1-0.9-1.6-1.3v-0.2c5.3-2.9-4.2-8.2-6.8-9.7C-715.2,167.5-714.7,166.8-714.3,166.1z M-720.2,174.6
							c3.3,3,6.7,5.9,10.2,8.7c-0.6,0.5-1.2,1.2-1.5,1.8c-3.2-3-6.7-5.9-10.2-8.7C-720.9,175.8-720.6,175.4-720.2,174.6z
							 M-706,186.1c1.4,1.3-0.4,3.4-1.9,2.3C-709.3,187.2-707.4,185.1-706,186.1z M-725.3,189.4c1.2-1.6,3.7-4.6,1.8-6.5
							c-2.9-2.9-6.3,1.9-4.2,4L-725.3,189.4z M-729,185.5c-0.1-6,7.7-8.4,7.9-1.4c0.1,1.6-3.3,4.2-3.4,6.1c1.9,1.9,5.4,3.7,6.4,0
							c0.2-0.6,0-2,0.2-2.3l1,1c-0.1,1.6-0.9,3.2-2.2,4.3c-4.8,4.8-10.1-8.5-13.1-5.6l-0.5-0.2C-731.8,185.8-730.9,184.1-729,185.5z
							 M-762.2,26.2c2.8-6.3,5.6-13.3,7.5-19.9c0.8,0.4,1.4,0.6,2.2,0.9c-2.8,6.4-5.4,13.3-7.5,19.8
							C-760.7,26.5-761.4,26.3-762.2,26.2z M-737.7,24.6c-4.7-3-11,6.9-6.4,9.7C-739.3,37.4-732.9,27.6-737.7,24.6z M-740.8,37.3
							c0.5-0.6,1-1.5,1.4-2.3c-3.3,1.9-7.7,0.2-8.2-3.7c-1.3-9.1,12.6-12.3,12.5-3.3c1.8-2.9,3.7-5.7,5.4-8.7c0.6,0.6,1.2,1,2,1.3
							c-4,5.7-7.7,11.9-11.2,18C-739.4,38-740.1,37.5-740.8,37.3z M-726.2,47.4c-5.9-0.8-9.4-7-4.8-11.7c6-6.4,15.7,1,9.1,8.2
							l-7.1-6.7c-4,4.2-1.6,9.4,4,9.2C-725.5,46.9-726,47.1-726.2,47.4z M-728.3,36.7l5.4,5C-718.2,36.7-723.9,32.1-728.3,36.7z
							 M-877.7,195.3c-0.1-0.1-0.2-0.4-0.4-0.5c-0.1-0.1-0.2-0.4-0.4-0.5c-0.1-0.1-0.4-0.4-0.5-0.5c-0.1-0.1-0.2-0.2-0.5-0.4
							c1.9-1.5,3.4-3,4.8-4.3c1.4-1.2,2.5-2,2.9-2.5c1.3-1.3,2.2-2.2,2.7-2.9c0.5-0.8,0.9-1.5,0.9-2.3c0.1-0.8,0.1-1.6-0.2-2.5
							c-0.2-0.8-0.8-1.5-1.4-2.3c-0.6-0.8-1.4-1.3-2.2-1.6c-0.8-0.4-1.6-0.5-2.5-0.5c-0.8,0-1.6,0.4-2.6,0.8c-0.8,0.5-2.2,1.6-4,3.3
							c-1.2,1-2.3,2-3.4,3c-1,1-2,1.9-3,2.9c-0.1-0.1-0.1-0.2-0.2-0.4c0-0.1-0.1-0.2-0.2-0.4c-0.1-0.1-0.2-0.2-0.4-0.4
							c-0.1,0-0.2-0.1-0.4-0.2c0.9-0.6,1.6-1.4,2.5-1.9c0.8-0.6,1.3-1.2,1.5-1.4l0.5-0.5c2.7-2.5,4.6-4,5.7-4.7c1-0.8,2-1.3,2.8-1.4
							c1.3-0.2,2.6-0.1,3.7,0.4c1.3,0.4,2.5,1.3,3.4,2.6c1.9,2,2.8,4,2.7,5.9c-0.2,1.9-1.4,3.9-3.6,5.7c-0.1,0.1-0.6,0.5-1.6,1.4
							c-0.9,0.9-1.9,1.6-2.8,2.5c-0.6,0.6-1.6,1.6-3.3,3.2C-877.5,195-877.6,195.1-877.7,195.3z M-877,165.7c-0.5,0.2-1,0.5-1.6,0.9
							c-0.5,0.2-1.4,0.8-2.7,1.4l-1.8,0.9c-1.6,0.9-2.8,1.5-3.6,1.9c-0.8,0.5-1.4,0.9-2,1.3c0-0.2-0.1-0.4-0.1-0.5
							c-0.1-0.2-0.2-0.4-0.2-0.6c-0.1-0.1-0.2-0.4-0.4-0.5c-0.1-0.1-0.1-0.2-0.2-0.4c0,0,0,0,0.1,0c0.5-0.2,0.9-0.5,1.2-0.6
							c0.1,0,0.2-0.1,0.4-0.2c0.2-0.1,0.4-0.1,0.5-0.2c-1,0-2-0.2-2.7-0.6c-0.8-0.5-1.4-1.2-1.8-1.9c-0.8-1.4-0.9-2.6-0.5-3.7
							c0.4-1,1.3-1.9,2.8-2.7c0.4-0.2,1-0.6,1.8-1c0.9-0.4,1.4-0.8,1.8-0.9c0.6-0.4,1.3-0.8,1.9-1c0.6-0.4,1.4-0.8,2-1.2
							c0.1,0.1,0.1,0.4,0.2,0.5c0,0.2,0.1,0.4,0.1,0.5c0.1,0.1,0.2,0.4,0.4,0.5c0,0.1,0.1,0.2,0.4,0.5c-0.9,0.4-2,0.9-3.2,1.5
							s-2.6,1.3-4,2c-1.3,0.6-2,1.4-2.5,2.2c-0.4,0.9-0.2,1.6,0.1,2.7c0.4,0.5,0.6,0.9,1,1.2c0.4,0.2,0.9,0.5,1.4,0.6
							c0.5,0,1.2,0,1.6-0.1c0.6-0.1,1.5-0.5,2.7-1.2l1.2-0.6c1.4-0.8,2.5-1.3,3-1.6c0.5-0.2,1-0.6,1.5-0.9c0,0.2,0.1,0.5,0.1,0.6
							c0.1,0.1,0.2,0.4,0.2,0.5c0.1,0.1,0.2,0.2,0.2,0.5C-877.3,165.3-877.2,165.4-877,165.7z M-884.2,150.9
							c-1.3,0.5-2.5,0.9-3.4,1.3c-1,0.5-2.2,0.9-3,1.3s-1.9,0.8-2.8,1.2c-1,0.4-2,0.9-3,1.3c0-0.1-0.1-0.2-0.1-0.5
							c0-0.1-0.1-0.4-0.2-0.5c0-0.2-0.1-0.4-0.2-0.6c0-0.1-0.1-0.2-0.2-0.4c1.2-0.4,2.2-0.9,3.2-1.2c0.9-0.4,1.9-0.8,2.8-1.2
							c0.9-0.4,2-0.9,3-1.3c1-0.5,2.2-1,3.3-1.5c0,0.2,0.1,0.4,0.1,0.6c0.1,0.1,0.1,0.4,0.2,0.5c0,0.1,0.1,0.4,0.1,0.5
							C-884.4,150.6-884.3,150.8-884.2,150.9z M-901,158.1c-0.4,0.1-0.8,0.1-1.2,0c-0.2-0.1-0.5-0.4-0.8-0.8c-0.1-0.4-0.1-0.8,0-1.2
							c0.2-0.4,0.5-0.6,0.8-0.8c0.4-0.1,0.8-0.1,1.2,0c0.4,0.1,0.6,0.5,0.8,0.8c0.1,0.4,0.1,0.8,0,1.2
							C-900.3,157.7-900.7,158-901,158.1z M-887.7,140.4c-1.2,0.8-2.7,1.8-4.4,3.2c-1.8,1.4-4.2,3.3-7,5.6c0-0.2,0-0.4-0.1-0.6
							c0-0.1,0-0.4-0.1-0.6c0-0.2-0.1-0.5-0.1-0.6c-0.1-0.2-0.2-0.4-0.2-0.6c1-0.5,2.3-1.4,3.9-2.6c1.5-1.2,3.3-2.6,5.4-4.2
							c-1.9-0.4-3.9-0.8-5.7-0.9c-1.9-0.2-3.9-0.4-5.6-0.4c0-0.1,0-0.2-0.1-0.4c0-0.2,0-0.4,0-0.5c-0.3-0.3-0.3-0.4-0.3-0.6
							c-0.1-0.2-0.1-0.4-0.2-0.4c3.4,0.5,6.4,0.9,9.1,1.3c2.6,0.4,4.3,0.5,5.4,0.6c0,0.1,0,0.1,0,0.2s0,0.4,0.1,0.5
							c0,0.2,0.1,0.4,0.1,0.5C-887.8,140.3-887.7,140.4-887.7,140.4z M-892.5,120.4c0.6,0.8,1.2,1.4,1.4,2.2
							c0.4,0.8,0.6,1.6,0.6,2.6c0.2,1.9-0.2,3.6-1.4,5c-1.2,1.3-2.8,2-4.8,2.3c-2,0.1-3.9-0.2-5.3-1.4c-1.4-1-2.2-2.6-2.3-4.4
							c0-2.1,0.3-3.5,1.4-4.5c0.9-1.2,2.5-1.8,4.3-1.9c0.1,0,0.1,0,0.2,0c0.2,0,0.2,0,0.4,0l0.9,9.7c1.9-0.2,3.4-0.8,4.3-1.6
							c0.9-0.9,1.3-2,1.2-3.7c0-0.8-0.2-1.5-0.6-2.2c-0.4-0.8-0.9-1.4-1.6-1.9c0.4,0,0.5,0,0.8,0c0.1,0,0.2,0,0.4,0L-892.5,120.4z
							 M-898.1,130l-0.6-7.4h-0.6c-1.4,0.1-2.5,0.5-3.2,1.3c-0.8,0.6-1,1.5-0.9,2.7c0.1,1,0.6,1.9,1.5,2.6
							C-900.8,129.8-899.6,130.1-898.1,130z M-891.1,115.7c-0.9-0.1-2.2-0.1-3.6-0.1c-1.5,0-3.4,0-5.7,0c-1.2,0-2,0-2.6,0
							c-0.6,0-1,0-1.5,0.1c0.1-0.2,0.1-0.4,0.1-0.6c0-0.1,0-0.4,0-0.6s0-0.4,0-0.6c0-0.1,0-0.4-0.1-0.5c0.5,0,1,0.1,1.5,0.1
							s1,0,1.6,0c-1.2-0.5-1.9-1-2.6-1.6c-0.5-0.5-0.8-1.2-0.8-1.8c0-0.1,0-0.2,0-0.5c0.1-0.1,0.1-0.4,0.1-0.6
							c0.2,0,0.6,0.1,0.9,0.1c0.4,0,0.8,0,1.3,0l0.1,0.2c-0.1,0.2-0.1,0.5-0.2,0.6c0,0.2-0.1,0.5-0.1,0.8c0,1,0.5,1.8,1.4,2.2
							c0.9,0.5,2.3,0.8,4.3,0.8c1.2,0,2.3,0,3.2,0c1-0.1,1.9-0.1,2.6-0.1c0,0.1-0.1,0.4-0.1,0.5c0,0.2,0,0.4,0,0.6s0,0.4,0,0.5
							C-891.2,115.3-891.1,115.4-891.1,115.7z M-893.6,106.1c0.8-0.4,1.4-0.8,1.8-1.4c0.4-0.5,0.6-1,0.8-1.8c0.1-0.8,0-1.5-0.4-2
							c-0.5-0.5-1-0.9-1.8-1c-0.6,0-1.2,0.1-1.5,0.4c-0.4,0.2-0.8,0.8-1.2,1.6l-0.5,1.2c-0.4,1.2-0.9,1.8-1.5,2.2
							c-0.6,0.5-1.4,0.6-2.5,0.5c-1.2-0.1-2-0.6-2.7-1.5c-0.5-1-0.6-2-0.5-3.3c0-0.6,0.2-1.3,0.4-1.8c0.2-0.6,0.5-1.2,0.9-1.5
							c0.2,0.1,0.6,0.2,0.9,0.4c0.2,0.1,0.5,0.2,0.9,0.4c-0.8,0.5-1.3,0.9-1.6,1.4c-0.4,0.5-0.6,1-0.6,1.6c-0.1,0.6,0,1.3,0.4,1.8
							c0.3,0.4,1,0.6,1.6,0.8c0.6,0,1.2,0,1.5-0.4c0.4-0.2,0.8-0.8,1.2-1.5l0.8-1.8c0.4-0.9,0.9-1.5,1.4-1.9
							c0.6-0.4,1.3-0.5,2.2-0.4c1.3,0.1,2.3,0.8,2.9,1.8c0.8,1,1,2.3,0.9,3.7c-0.1,0.8-0.2,1.4-0.5,1.9c-0.2,0.6-0.6,1.2-1,1.5
							c-0.2-0.1-0.6-0.2-1-0.5C-892.9,106.4-893.2,106.3-893.6,106.1z M-888.7,94.9c-1.3-0.4-2.5-0.6-3.6-0.9
							c-1.2-0.2-2.3-0.5-3.3-0.8c-0.9-0.1-1.9-0.4-2.9-0.6c-1-0.1-2.2-0.4-3.2-0.5c0-0.1,0.1-0.4,0.1-0.5c0-0.2,0.1-0.4,0.1-0.6
							c0.1-0.2,0.1-0.4,0.1-0.6c0-0.1,0-0.4,0-0.5c1.2,0.2,2.3,0.5,3.3,0.8c1,0.2,1.9,0.5,2.9,0.6c1,0.2,2,0.5,3.2,0.8
							c1.2,0.1,2.5,0.4,3.7,0.6c-0.1,0.1-0.2,0.4-0.2,0.5c-0.1,0.3-0.1,0.4-0.1,0.5c-0.1,0.2-0.1,0.4-0.1,0.6
							C-888.7,94.3-888.7,94.6-888.7,94.9z M-906.7,91.3c-0.4-0.1-0.6-0.2-0.9-0.6c-0.2-0.2-0.2-0.6-0.2-1c0.1-0.4,0.4-0.8,0.6-0.9
							c0.4-0.2,0.8-0.4,1.2-0.2c0.4,0.2,0.6,0.2,0.9,0.6c0.2,0.4,0.2,0.6,0.2,1c-0.1,0.4-0.4,0.8-0.6,0.9
							C-906,91.3-906.4,91.4-906.7,91.3z M-896.8,78.5c-0.5,1.3-0.4,2.5,0.4,3.4c0.8,1.2,2,1.9,3.9,2.6c1.8,0.5,3.2,0.8,4.3,0.4
							c1.2-0.2,2-1,2.5-2.2c0.4-1.4,0.2-2.6-0.5-3.6c-0.8-1-2.2-1.9-4.1-2.6c-1.6-0.6-3-0.6-4.1-0.4
							C-895.6,76.6-896.4,77.4-896.8,78.5z M-883.6,78.9c-0.5-0.1-0.8-0.2-1-0.4c-0.2,0-0.4-0.1-0.6-0.2c-0.2,0-0.5-0.1-0.6-0.1
							c-0.1,0-0.2-0.1-0.4-0.1c0.8,0.9,1.3,1.6,1.5,2.6c0.2,0.9,0.1,1.9-0.2,2.9c-0.5,1.6-1.5,2.8-3,3.3c-1.5,0.6-3.2,0.6-5.1,0
							c-2-0.8-3.4-1.8-4.3-3.3c-0.9-1.5-1-3-0.5-4.7c0.4-0.9,0.8-1.6,1.4-2.3c0.8-0.5,1.5-0.9,2.6-1.2l-4.8-1.6
							c-0.8-0.2-1.6-0.5-2.5-0.8c-0.9-0.2-1.6-0.5-2.5-0.8c0.1-0.2,0.2-0.5,0.4-0.6c0.1-0.1,0.1-0.2,0.1-0.5
							c0.1-0.1,0.1-0.2,0.1-0.5c0-0.2,0-0.5,0-0.7c1,0.4,2.2,0.8,3.6,1.3s3,1.2,5,1.8s3.9,1.3,5.7,1.9c1.9,0.6,3.9,1.3,5.7,1.9
							c0,0.1-0.1,0.4-0.2,0.5c0,0.1-0.1,0.4-0.1,0.5c-0.1,0.1-0.1,0.4-0.2,0.5C-883.6,78.5-883.6,78.7-883.6,78.9z M-883.6,63
							c-0.8,2.5-1.2,4-1.2,4.8c0.1,0.9,0.5,1.5,1.4,1.9c0.8,0.5,1.4,0.6,2,0.4c0.6-0.1,1.2-0.5,1.5-1.3c0.1-0.4,0.2-0.9,0.4-1.4
							c0-0.6,0-1.2-0.1-1.6c-0.1-0.2-0.1-0.4-0.2-0.5c-0.1-0.1-0.4-0.4-0.6-0.5h-0.1L-883.6,63z M-878.9,65.6
							c0.2,0.9,0.4,1.6,0.2,2.5c0,0.8-0.2,1.5-0.6,2.2c-0.6,1.2-1.3,1.8-2.2,2c-0.9,0.4-1.8,0.2-2.8-0.2c-0.8-0.5-1.4-1.2-1.6-1.9
							c-0.2-0.8-0.2-1.6,0.1-2.8c0.1-0.4,0.2-1,0.5-1.8c0.5-1.6,0.8-2.7,0.6-3.2l-0.5-0.2c-1.2-0.6-2-0.9-2.8-0.6
							c-0.8,0.1-1.4,0.6-1.9,1.6c-0.4,0.6-0.5,1.3-0.5,2c0,0.6,0.1,1.4,0.5,2l-0.1,0.2l-1.3-0.8c-0.1-0.8-0.1-1.6,0-2.5
							c0.1-0.8,0.4-1.5,0.8-2.3c0.8-1.4,1.6-2.2,2.7-2.5c1-0.2,2.2,0,3.7,0.8l0.2,0.1l4.2,2.5l0.6,0.4c0.8,0.4,1.2,0.6,1.5,0.5
							c0.2,0,0.5-0.2,0.8-0.6c0-0.1,0.1-0.2,0.1-0.2c0-0.1,0-0.1,0.1-0.1l0.5,0.1v0.1c-0.2,0.9-0.5,1.6-0.8,2.2
							c-0.2,0.4-0.5,0.6-0.8,0.6C-877.9,65.9-878.4,65.9-878.9,65.6z M-879.5,47.7c-0.8,1-1.2,2.2-0.8,3.4c0.2,1.3,1.2,2.5,2.6,3.7
							c1.4,1.2,2.7,1.9,3.9,2c1.3,0.1,2.3-0.2,3-1.3c0.9-1,1.2-2.2,0.9-3.4c-0.4-1.3-1.3-2.6-2.8-3.9c-1.3-1.2-2.6-1.8-3.7-1.9
							C-877.6,46.4-878.7,46.7-879.5,47.7z M-867.4,52.8c-0.4-0.2-0.6-0.5-0.8-0.6s-0.4-0.2-0.5-0.5c-0.2-0.1-0.4-0.2-0.5-0.4
							c-0.1-0.2-0.1-0.1-0.2-0.2c0.4,1.2,0.5,2,0.4,3c-0.1,0.9-0.6,1.8-1.3,2.6c-1.2,1.3-2.6,1.9-4.2,1.9c-1.5,0-3-0.6-4.6-2
							c-1.6-1.3-2.6-2.9-2.8-4.6c-0.2-1.6,0.1-3.2,1.3-4.6c0.6-0.8,1.4-1.3,2.2-1.5c0.9-0.2,1.8-0.2,2.8-0.1l-4-3.3
							c-0.6-0.6-1.3-1.2-1.9-1.8c-0.6-0.5-1.3-1-1.9-1.5c0.2-0.1,0.4-0.2,0.5-0.4c0.1-0.1,0.2-0.2,0.4-0.4c0.1-0.1,0.2-0.2,0.4-0.5
							c0-0.1,0.1-0.2,0.2-0.5c0.8,0.8,1.8,1.5,2.8,2.6c1,0.9,2.5,2,4,3.4c1.5,1.3,3,2.7,4.6,4c1.5,1.3,3.2,2.6,4.7,4
							c-0.2,0.1-0.4,0.2-0.5,0.4c-0.1,0.1-0.2,0.2-0.4,0.4c-0.1,0.1-0.2,0.2-0.4,0.4C-867.3,52.6-867.3,52.7-867.4,52.8z
							 M-855.8,39.6c-0.1,0.9-0.5,1.6-0.9,2.5c-0.4,0.8-0.9,1.4-1.5,1.9c-1.5,1.4-3,1.9-4.8,1.8c-1.8,0-3.4-0.9-4.7-2.5
							c-1.4-1.5-2.2-3.2-2.2-5c0.1-1.6,0.8-3.2,2.3-4.6c1.3-1.2,2.7-1.6,4.2-1.5c1.4,0.1,2.8,0.9,4.1,2.3c0.1,0.1,0.1,0.1,0.2,0.2
							c0,0.1,0.1,0.2,0.1,0.2l-7.1,6.5v0.1c1.3,1.4,2.6,2.2,3.9,2.5c1.3,0.1,2.6-0.2,3.7-1.3c0.6-0.5,1-1.2,1.4-1.9
							c0.2-0.6,0.5-1.5,0.5-2.5c0.2,0.2,0.4,0.4,0.5,0.5c0,0.1,0.1,0.2,0.1,0.4L-855.8,39.6z M-866.8,40.8l5.5-5l-0.2-0.4
							c-1-1-1.9-1.5-2.9-1.8c-1-0.1-1.9,0.1-2.7,0.9c-0.9,0.8-1.3,1.6-1.2,2.8C-868.2,38.4-867.7,39.6-866.8,40.8z M-843.9,33.3
							c-0.4-0.9-0.9-1.9-1.4-2.9s-1-2.2-1.8-3.6c-0.9-1.8-1.9-3.4-2.9-5.2c-0.9-1.8-1.9-3.6-2.9-5.4c0.2-0.1,0.6-0.2,1.2-0.5
							c0.4-0.2,1.2-0.6,2.3-1.2c1.2-0.8,2.2-1.3,3-1.6c0.8-0.5,1.5-0.9,2.5-1.4c0,0.1,0.1,0.2,0.1,0.4c0.1,0.2,0.2,0.4,0.2,0.5
							c0,0,0.1,0.1,0.2,0.4c0,0.1,0.1,0.2,0.1,0.4c-0.5,0.1-1.4,0.5-2.3,0.9c-1,0.4-2.3,1-3.9,1.9l-0.6,0.2c0.2,0.5,0.5,1,0.8,1.5
							c0.2,0.5,0.6,1.3,1.2,2.3l0.9,1.6l0.4,0.9l2-1.2c0.8-0.4,1.5-0.8,2.2-1.2s1.3-0.9,1.9-1.3c0.1,0.1,0.1,0.1,0.1,0.2
							c0.1,0.1,0.1,0.2,0.2,0.5c0.1,0.2,0.2,0.4,0.2,0.4c0.1,0.1,0.1,0.2,0.1,0.2c-1.4,0.8-2.6,1.3-3.4,1.6
							c-0.9,0.5-1.5,0.9-2.2,1.2l-0.6,0.4l3,5.7c0.5,0.9,0.8,1.5,1,1.9c0.2,0.2,0.4,0.6,0.5,0.8c-0.1,0.1-0.4,0.2-0.6,0.2
							c-0.1,0.1-0.4,0.2-0.6,0.4c-0.2,0.1-0.4,0.2-0.5,0.2C-843.7,33.1-843.8,33.2-843.9,33.3z M-822.8,22.3c-0.5,0.8-1.2,1.4-1.8,2
							c-0.6,0.5-1.3,0.9-2.2,1.3c-1.8,0.6-3.6,0.6-5.3-0.1c-1.5-0.8-2.7-2-3.4-4c-0.8-2-0.9-3.9-0.1-5.4c0.6-1.6,1.8-2.8,3.7-3.6
							c1.6-0.6,3.2-0.6,4.4,0c1.3,0.6,2.3,1.9,3,3.7c0,0.1,0,0.2,0,0.4c0.1,0.1,0.1,0.2,0.1,0.2l-9.1,3.4v0.1c0.8,1.8,1.6,3,2.8,3.7
							c1,0.6,2.3,0.6,3.9,0.1c0.8-0.2,1.4-0.8,1.9-1.3c0.6-0.5,1-1.3,1.4-2c0.1,0.2,0.1,0.5,0.2,0.6c0,0.1,0,0.2,0.1,0.4
							L-822.8,22.3z M-833.4,19.5l6.9-2.7l-0.1-0.4c-0.5-1.3-1.2-2.3-2-2.8c-0.9-0.5-1.8-0.5-2.9-0.1c-1,0.4-1.6,1.2-2,2.3
							C-833.9,16.9-834,18.1-833.4,19.5z M-814.8,9.4c-1.3,0.2-2.2,1-2.7,2.2s-0.6,2.6-0.2,4.6c0.4,1.8,0.9,3,1.8,4
							c0.9,0.8,1.9,1.2,3,0.9c1.4-0.2,2.3-1,2.8-2.2c0.5-1.3,0.6-2.8,0.2-4.8c-0.4-1.6-0.9-2.9-1.8-3.7
							C-812.5,9.6-813.5,9.2-814.8,9.4z M-808.5,21c0-0.5-0.1-0.8-0.1-1s0-0.5-0.1-0.6c0-0.4-0.1-0.5-0.1-0.6s0-0.2-0.1-0.4
							c-0.2,1-0.8,1.9-1.4,2.6c-0.8,0.6-1.6,1-2.7,1.3c-1.8,0.2-3.2,0-4.4-1c-1.3-1-2-2.6-2.5-4.4c-0.4-2.2-0.2-4,0.6-5.5
							c0.9-1.4,2.2-2.5,3.9-2.7c1-0.2,1.9-0.1,2.7,0.1c0.8,0.2,1.5,0.8,2.3,1.5l-1-5c-0.3-1-0.5-1.8-0.6-2.6
							c-0.1-0.9-0.4-1.6-0.5-2.5c0.2,0,0.5,0,0.6,0c0.2,0,0.4-0.1,0.5-0.1c0.2,0,0.4,0,0.5-0.1c0.2,0,0.4-0.1,0.6-0.2
							c0.2,1,0.3,2.3,0.5,3.7c0.2,1.4,0.6,3.2,1,5.3c0.4,2,0.8,4,1.2,6c0.5,1.9,0.9,4,1.3,5.9c-0.1,0-0.4,0-0.5,0
							c-0.2,0-0.4,0.1-0.6,0.1c-0.1,0-0.4,0-0.5,0.1C-808.2,20.8-808.3,20.9-808.5,21z M-790.7,18.8c-0.8,0.5-1.5,0.9-2.3,1.2
							c-0.8,0.2-1.6,0.4-2.6,0.4c-1.9,0-3.6-0.6-4.8-1.9s-1.8-2.9-1.8-5s0.5-3.7,1.8-5c1.2-1.3,2.7-1.9,4.7-1.9
							c1.8-0.1,3.2,0.5,4.2,1.5c0.9,1,1.4,2.6,1.4,4.6c0,0,0,0.1,0,0.2c0,0.1,0,0.2,0,0.4h-9.7c0,1.9,0.4,3.4,1.2,4.4
							c0.9,1,2,1.5,3.6,1.5c0.9,0,1.6-0.2,2.3-0.5c0.8-0.4,1.4-0.8,2-1.4c0,0.2,0,0.5,0,0.6s0,0.2,0,0.4
							C-790.7,18.4-790.7,18.8-790.7,18.8z M-799.9,12.2h7.5v-0.5c0-1.4-0.4-2.5-1-3.2c-0.6-0.9-1.4-1.3-2.6-1.3
							c-1.2,0-2,0.5-2.8,1.4C-799.4,9.6-799.7,10.7-799.9,12.2z M-785.8,20.8c0.1-0.9,0.2-2,0.5-3.6c0.1-1.4,0.4-3.3,0.6-5.5
							c0.1-1.3,0.2-2.2,0.4-2.7c0-0.5,0-1,0-1.4c0.2,0,0.4,0.1,0.6,0.1c0.1,0,0.4,0,0.6,0.1c0.1,0,0.4,0,0.5,0c0.2,0,0.5,0,0.6,0
							c-0.1,0.4-0.2,0.9-0.2,1.4c-0.1,0.5-0.2,1-0.2,1.6c0.6-1,1.3-1.8,1.9-2.3c0.6-0.4,1.3-0.6,1.9-0.5c0.1,0,0.2,0,0.5,0.1
							c0.1,0,0.2,0,0.5,0.1c0,0.2-0.1,0.5-0.1,0.9c-0.1,0.4-0.1,0.8-0.2,1.3l-0.1,0.1c-0.2-0.2-0.5-0.4-0.8-0.4
							c-0.1-0.1-0.4-0.1-0.6-0.2c-1-0.1-1.8,0.2-2.5,1.2c-0.5,0.8-0.9,2.2-1.2,4.2c-0.1,1.2-0.2,2.3-0.4,3.2c-0.1,1-0.1,1.8-0.2,2.6
							c-0.1-0.1-0.2-0.1-0.5-0.1c-0.2-0.1-0.4-0.1-0.6-0.1c-0.1,0-0.4-0.1-0.5-0.1C-785.1,20.8-785.7,20.8-785.8,20.8z M-767.6,17
							c-2.5-0.2-4.1-0.2-5,0c-0.8,0.2-1.3,0.9-1.5,1.8s-0.1,1.5,0.1,2c0.2,0.6,0.9,1,1.6,1.2c0.4,0.1,0.9,0.2,1.5,0.1
							c0.5-0.1,1-0.2,1.5-0.5c0.1-0.1,0.4-0.2,0.4-0.4c0.1-0.1,0.2-0.4,0.4-0.8v-0.1L-767.6,17z M-769,22.2
							c-0.8,0.5-1.5,0.8-2.3,0.9c-0.8,0.1-1.5,0.1-2.3-0.1c-1.2-0.2-2-0.8-2.6-1.5c-0.5-0.8-0.5-1.6-0.2-2.8c0.2-0.9,0.6-1.6,1.4-2
							c0.6-0.5,1.5-0.6,2.7-0.6c0.5,0,1.2,0,1.9,0.1c1.8,0.1,2.8,0.1,3.2-0.1l0.1-0.6c0.4-1.2,0.4-2.2,0-2.8c-0.2-0.8-1-1.3-2-1.5
							c-0.8-0.1-1.5-0.2-2.2,0c-0.6,0.1-1.3,0.5-1.9,1l-0.2-0.1l0.5-1.4c0.8-0.2,1.5-0.5,2.3-0.5c0.8-0.1,1.6,0,2.6,0.1
							c1.4,0.5,2.5,1.2,2.9,2c0.5,0.9,0.5,2.2,0.1,3.7v0.2l-1.3,4.6l-0.2,0.8c-0.2,0.8-0.2,1.3-0.1,1.5c0.1,0.4,0.4,0.5,0.9,0.6
							c0.1,0,0.1,0,0.2,0.1h0.1v0.5h-0.1c-1,0.1-1.6,0-2.3-0.1c-0.4-0.1-0.6-0.4-0.9-0.6C-769,23.4-769,22.9-769,22.2z
							 M-803.5,209.5c-0.9,0-1.5,0.4-2,1c-0.6,0.8-0.9,1.6-0.9,2.8c0,1,0.2,1.8,0.8,2.3c0.5,0.5,1.2,0.9,2,0.9c0.9,0,1.5-0.4,2-1
							c0.5-0.5,0.8-1.4,0.8-2.6c0-1-0.2-1.9-0.8-2.6C-802,210-802.7,209.5-803.5,209.5z M-806.9,222.7c0,0,0-0.1,0-0.2v-0.1
							c0-0.1,0-0.2,0-0.4c0-0.1,0-0.2,0-0.4c0.4,0.2,0.8,0.5,1.2,0.6c0.2,0.1,0.6,0.2,1,0.2c0.6,0,1-0.1,1.5-0.4
							c0.4-0.2,0.8-0.6,1.2-1.3c0.5-0.5,0.8-1.3,1-2.2c0.2-0.8,0.4-1.6,0.4-2.6c0-0.1,0-0.2,0-0.2c0-0.1-0.1-0.2-0.1-0.2
							c-0.2,0.5-0.8,1-1.3,1.3c-0.6,0.4-1.3,0.5-2.2,0.5c-1.2,0-2-0.4-2.7-1c-0.8-0.8-1.2-1.8-1.2-2.9c0-1.3,0.5-2.5,1.3-3.2
							c0.9-0.9,2-1.3,3.4-1.3c1.4,0,2.6,0.5,3.3,1.5c0.7,1,1.2,2.5,1.2,4.3c0,2.5-0.5,4.4-1.6,6c-1.2,1.5-2.6,2.3-4.3,2.3
							c-0.4,0-0.8,0-1-0.1C-806.3,223-806.5,222.8-806.9,222.7z M-794.6,218.9c0,1,0.2,1.9,0.8,2.6c0.5,0.6,1.2,1,1.9,1
							c0.9,0,1.5-0.4,2-1s0.8-1.5,0.8-2.7c0-1-0.2-1.9-0.6-2.5c-0.5-0.6-1.2-0.9-2-0.9s-1.4,0.2-2,0.9
							C-794.4,217-794.6,217.8-794.6,218.9z M-794.7,216.4c0.5-0.6,1-1,1.6-1.4c0.5-0.2,1.2-0.4,1.9-0.4c1.2,0,2,0.4,2.8,1
							c0.6,0.6,1,1.6,1,2.8c0,1.4-0.4,2.6-1.3,3.3c-0.8,0.9-1.9,1.3-3.3,1.3c-1.4,0-2.6-0.5-3.3-1.5c-0.7-1-1.2-2.5-1.2-4.3
							c0-2.5,0.5-4.4,1.6-6c1.2-1.5,2.7-2.3,4.4-2.3c0.2,0,0.4,0,0.6,0c0.2,0.1,0.5,0.1,0.8,0.2c0,0,0,0.1,0,0.2c0,0,0,0.1,0,0.2
							v0.1c0,0.1,0,0.2,0,0.2c-0.2-0.1-0.5-0.2-0.8-0.4c-0.2,0-0.5-0.1-0.8-0.1c-1.2,0-2.2,0.6-2.9,1.9
							C-794.1,212.6-794.5,214.3-794.7,216.4z M-785.5,216.1c0-2.3,0.5-4.1,1.3-5.4c0.8-1.2,2-1.8,3.6-1.8c1.6,0,2.9,0.6,3.7,1.8
							s1.2,2.9,1.2,5.4c0,2.3-0.4,4.1-1.2,5.3c-0.9,1.2-2,1.8-3.7,1.8c-1.5,0-2.8-0.6-3.6-1.8C-784.9,220.2-785.5,218.4-785.5,216.1
							z M-783.6,216.1c0,2.2,0.2,3.9,0.8,4.8c0.6,0.9,1.3,1.5,2.3,1.5c1.2,0,1.9-0.5,2.5-1.4c0.5-1,0.8-2.8,0.8-5.3
							c0-2.2-0.2-3.7-0.8-4.7c-0.5-1-1.3-1.4-2.5-1.4c-1,0-1.8,0.4-2.3,1.4C-783.4,212.1-783.6,213.7-783.6,216.1z"/>
					</g>
				</g>
			</g>
		</g>
	</g>
	<path class="st3" d="M-764,82.2h-1.5l-0.1,4h1.5L-764,82.2z M-769.6,160.2c-0.2,0.2-0.5,0.5-0.9,0.6l-0.4,8.9
		c0.2,0,0.5,0.1,0.9,0.1L-769.6,160.2z M-822.4,160.2c0.4,0.2,0.6,0.5,0.9,0.8l0.4,8.8c-0.2,0-0.5,0.1-0.8,0.1L-822.4,160.2z
		 M-820.7,161.5c0.2,0.2,0.6,0.4,0.9,0.6l0.2,7.4c-0.2,0.1-0.5,0.1-0.8,0.1L-820.7,161.5z M-819.2,162.4c0.2,0.1,0.6,0.2,0.9,0.5
		l0.2,6.3c-0.2,0.1-0.5,0.1-0.9,0.1L-819.2,162.4z M-773,162.4c-0.2,0.1-0.5,0.2-0.8,0.4l-0.4,6.4c0.4,0.1,0.6,0.1,0.9,0.1
		L-773,162.4z M-771.2,161.5c-0.4,0.2-0.6,0.4-0.9,0.5l-0.4,7.5c0.2,0,0.6,0.1,0.9,0.1L-771.2,161.5z M-827.9,82.1h1.5l0.1,4h-1.5
		L-827.9,82.1z M-825.1,82.1h1.5l0.1,4h-1.5L-825.1,82.1z M-822.3,82.1h1.6l0.1,4h-1.5L-822.3,82.1z M-799.6,82.1h1.5l0.1,4h-1.6
		V82.1z M-796.8,82.1h1.5v4h-1.5V82.1z M-794,82.1h1.5v4h-1.5V82.1z M-769.7,82.2h-1.5l-0.1,4h1.5L-769.7,82.2z M-766.8,82.2h-1.6
		l-0.1,4h1.5L-766.8,82.2z"/>
	<path class="st4" d="M-749.7,145.4c-2.3-0.1-4.6,0-6.9,0.5c-2.2,0.5-3.9,1.2-6,2.2l-0.4,3.6c0,0.1-0.2,0.8-0.4,1
		c2.5,1.3,5.1,2.2,8.2,3.2c0.4-1.3,0.6-2.5,1.8-4.2C-752.3,149.6-750.7,147.4-749.7,145.4z M-813.7,89.3c0.1-0.4,0.4-0.5,0.8-0.1
		c0.8,0.8,1.5,1.5,1.8,2.6c0.2,1.2-0.2,2.5-1.9,5.5c-0.6,1.5-0.8,2-0.9,2.8c0.4-0.8,1.6-1.8,2.7-2.7c0.4-0.5,0.8-1,1-1.8
		c0.1-0.6,0.5-0.9,0.9-0.2c2.3,2.7,1.6,4.3,1.5,5.4c-1,2.7-1.9,4.2-1.4,5.9c0.1,0.5-0.1,0.8-0.5,0.6c-1.6-0.5-2.6-1.8-2.9-3.3
		c-0.8,1.4-0.4,2.7,0.4,3.9c0.4,0.4,0.1,0.8-0.4,0.6c-2-0.4-3.3-1.6-4-3.2c-0.2,1.5,0.5,3.2,1.9,4.4c0.6,0.4,0.2,0.9-0.4,0.8
		c-2.2,0-3.4-0.9-4.1-1.4c0.2,1,0.8,2,2.6,2.9c0.1,0.1,0.1,0.1,0.2,0.1c0.2,0.1,0.2,0.5-0.2,0.8c-1.9,0.5-3.4,0.2-4.8-0.1
		c-3.6-1-5.6-2.9-6.8-5.5c-0.9-2.9-0.2-5.3,1.5-6.7c1.3-1,2.7-1,3.9-1.4c1.2-0.4,2.2-1.2,3-3c0.6-1.5,1.6-2.7,3-3.6
		c0.9-0.6,1.5-0.9,2-1.4C-814,90.5-813.8,89.9-813.7,89.3z M-805.4,106.7c-1-1.3-2.2-1-3.3,0l-3.7,3.4l-3.7,3.3
		c-1.2,1-1.5,2.2-0.2,3.3c-1,1.2-1.4,1.8-0.6,2.8c0.4,0.6,0.9,1.2,1.5,1.8c0.6,0.4,1.4,0.5,2.8-0.5c0.9,1,2,0.8,2.9-0.1l6.9,6.1
		c-2.2-0.8-3.7-1.2-6.1-1.6c-3.2-0.5-6.1-0.1-8.5,0.9c-3.7,1.6-6.1,3.7-6.8,5.8c-1,3.4,0.6,7.7,4.3,10.1c1.8,1.3,3.9,2.3,5.7,3.3
		c2.9,1.5,5.3,3.2,6.9,5.5c0.4,0.6,0.8,0,0.9-0.2c0.5-1.2,0.8-2.9,0.2-5.4c-0.2-1.3-0.6-1.9-1.2-2.5c-0.5-0.5-1-0.9-1.3-1.5
		c-0.4-0.9-0.6-1.9-0.4-3.2c0.6-2.8,3-3.3,5.5-2.9c3.6,0.6,6.8,2.6,9.4,4.2l0.9,4.2c0.1,0.4,0.1,0.4,0.5,0.4l4,1.3
		c0.4,0.5,1,1.3,1.2,2c0.1,0.5,0.4,0.9,0,2.2c-0.6,1.3-3.4,1.3-4.4,1.5c-0.5,0.1-0.9,0.2-1.3,0.4c-0.9,0.4-1.4,0.9-1.6,1.6
		c-0.2,0.6,0,1.5,0.4,2.7c0,0.1,0.4,0.4,0.6,0.1c0.2-0.6,0.9-1.3,1.5-1.4c1.3-0.2,2.2,0,2.7,0.2c2.3,0.9,4,1.8,5.5,1.8
		c0.9,0,1.6-0.2,2.3-0.8c0.6-0.5,1-1.2,1.3-1.9c1.2,0.8,2.3,1,4.6,1.5c1.5,0.1,3.2,0.2,4.7,0.4c0.4,0,0.5,0,0.5,0c0-0.1,0-0.1,0-0.1
		c0.1,0,0.1-0.1,0.1-0.5c0.1-1.5,0.1-3.2,0-4.7c-0.1-2.5-0.4-3.6-1-4.7c0.8-0.1,1.5-0.5,2-1.2c0.5-0.5,0.9-1.3,1-2.2
		c0.1-1.5-0.6-3.2-1.4-5.6c-0.1-0.5-0.4-1.4,0-2.7c0.2-0.6,1-1.2,1.5-1.4c0.4-0.2,0.2-0.6,0-0.6c-1-0.5-1.9-0.8-2.7-0.6
		c-0.8,0.1-1.3,0.6-1.8,1.4c-0.1,0.4-0.4,0.9-0.5,1.3c-0.2,1.2-0.8,4-1.9,4.3c-1.4,0.2-1.9,0-2.3-0.1c-0.8-0.2-1.4-0.9-1.8-1.3
		l-0.9-4.2c0-0.2,0-0.4-0.2-0.4l-4.2-1.4c-1.4-2.7-3-6.1-3.3-9.7c-0.1-2.5,0.5-4.7,3.4-5.1c1.3-0.2,2.3,0.1,3,0.6
		c0.8,0.2,0.9,0.9,1.5,1.4c0.4,0.5,1,1,2.2,1.4c2.5,0.8,4.2,0.6,5.5,0.2c0.2-0.1,0.9-0.5,0.2-0.9c-2.2-1.8-3.6-4.3-4.8-7.4
		c-0.9-1.9-1.6-4.1-2.7-6c-2.2-4-6.3-6-9.7-5.3c-2.2,0.4-4.4,2.7-6.5,6.3c-1.3,2.3-1.8,5.1-1.6,8.3c0.4,2.6,0.5,4.1,1,6.4l-5.4-7.5
		c1-0.9,1.3-1.9,0.4-2.9c1.2-1.3,1.2-2,0.8-2.7c-0.5-0.6-1-1.3-1.5-1.8C-803.5,105.6-804.2,106-805.4,106.7z M-797.2,87.2h39.9
		c-2.2,21.4-4.6,42.6-6.8,63.9c-2.2,4.6-5.6,7.9-9.8,10.2c-4,2.2-8.5,3.6-13.7,4.2c-3.4,0.4-4,0.5-7.1,0.5c-0.4,0-0.8,0-1.3,0
		c-0.4,0-0.8,0-1.2,0c-3.2,0-3.7-0.1-7.1-0.5c-5.3-0.6-9.7-2-13.7-4.2c-4.2-2.3-7.7-5.6-9.8-10.2c-2.2-21.3-4.6-42.4-6.8-63.9
		C-834.6,87.2-797.2,87.2-797.2,87.2z M-842.4,145.4c2.2-0.1,4.3-0.1,6.8,0.5c2.2,0.4,4.2,1.3,6.1,2.3l0.4,3.3
		c0,0.1,0.2,0.8,0.4,1.2c-2.5,1.3-5,2-8.1,3c-0.4-1.3-0.8-2.3-1.8-4.2C-839.9,149.5-841.3,147.4-842.4,145.4z M-846.2,167.5
		c2.5,1.6,5.1,2.9,7.9,3.7c3.3,0.8,7,1,10.2,0.5c7.1-0.8,9.8-1.3,16.7-2.3c5.7-0.9,10.8-1.4,15.3-1.4s9.6,0.5,15.3,1.4
		c6.9,1,9.7,1.5,16.8,2.3c3.2,0.5,6.8,0.2,10.2-0.5c2.7-0.8,5.5-2,7.8-3.7c-0.8,4.2-2,8.2-3.6,12.2c-1.2,2-1.6,2.7-2.6,4
		c-1.6,1.4-3.2,2.5-6,3.2c-3.3,0.8-6.7,0.8-10.8,0.1c-2.6-0.8-5.5-1.2-8.5-1.9c-4.1-0.6-8.1-1.2-12.2-1.4c-2.2-0.1-4.3-0.2-6.5-0.2
		h-0.2c-2.2,0-4.3,0.1-6.4,0.2c-4.1,0.2-8.2,0.8-12.2,1.4c-3.2,0.8-6.1,1.2-8.7,1.9c-4.3,0.6-7.5,0.5-10.9-0.1c-2.9-0.6-4.8-2-5.7-3
		c-1-1.2-2.3-3.3-3-4.8C-844.5,174.9-845.5,171.6-846.2,167.5z"/>
	<path class="st5" d="M-813.2,89.9c-0.6,1.6-1.8,2.2-3.7,3.6c-1.2,0.8-1.9,1.9-2.7,3.6c-0.9,1.6-2,2.6-3.4,2.8
		c-2.6,0.4-5.3,1.6-5,5.3c0.2,4.1,5.7,8.1,10.8,7.1c-1.5-0.8-2.6-2.2-2.6-4c0.1-0.5,0.5-0.4,0.6-0.1c0.4,0.5,1.9,1.5,3.9,1.6
		c-2.3-2.2-2-4.3-1.5-5.7c0.2-0.4,0.6-0.2,0.6,0c0.1,0.5,0.2,1,0.6,1.5c0.5,0.6,1.5,1.6,2.7,2c-0.9-1.5-0.9-3.2-0.1-4.6
		c0.2-0.6,0.8-0.4,0.8,0s0.5,2.6,2.5,3.3c-0.4-2,0.8-4.1,1-5.1c1.5-3.2-0.5-5-0.8-5.5c-0.4,1-1.2,2-2.6,3c-0.8,0.6-1.3,1.4-1.8,2.5
		c-0.1,0.5-0.8,0.4-0.8-0.1c0-2.2,0.8-3.4,1-4.1c0.2-0.6,0.6-1.4,1-2C-811.7,93.2-811.2,91.5-813.2,89.9z M-846.2,166.1
		c-0.8-3,0.8-4.8,2.7-6.1c2.6-1.4,5.5-2.6,8.8-3.6c2.3-0.8,4.6-1.6,6.8-2.7c1,1.8,2.5,3.6,4,5c-2.5,1.6-5,3.3-7.8,5.4
		c-2.8,2.2-4.1,4.3-4.3,6.4C-838.2,170.1-841.4,169.4-846.2,166.1z M-745.8,166c0.6-3.2-0.8-4.7-2.7-5.9c-2.5-1.4-5.4-2.7-8.8-3.7
		c-2.2-0.8-4.6-1.5-6.8-2.6c-1.2,1.6-2.5,3.4-4,5c2.6,1.5,5.1,3.2,7.7,5.1c2.8,2.3,4.2,4.2,4.6,6.5
		C-753.8,170.1-750.7,169.4-745.8,166z M-784.1,141.5l-1.4,1.3c1,1,1.9,2.8,2.7,5.7c0.9,2.8,1.3,4.8,4.3,5.6c2,0.5,4.3,0.8,6.9,0.9
		h0.1c0.1-2.7,0.1-5-0.4-7.1c-0.5-3-2.5-3.6-5.1-4.7c-2.9-1-4.7-2-5.6-3L-784.1,141.5z M-793.3,139.3l8.3-7.5l3.6,1.2l-11.1,10.1
		L-793.3,139.3z M-792,137.1l-1.4,1.3l-0.4,0.4c-3.6-2.5-6.8-3.9-9.4-4.2c-2.3-0.4-4.1,0-5.3,1.3c-1.3,1.3-1.4,3-1.2,4.6
		c0.4,1.2,1,2.2,1.6,2.7c0.8,0.6,1.2,1.5,1.4,3s0,2.9-0.2,4c-0.9-1-1.8-1.9-2.7-2.7c-0.8-0.6-1.6-1.2-2.5-1.6
		c-3.3-1.9-7.1-3.4-9.5-5.9c-0.5-0.5-1-1.3-1.5-2c-0.9-1.9-1.3-4.2-0.6-5.9c0.2-0.8,0.9-1.8,3.2-3.4c2-1.5,4.4-2.6,7.4-2.8
		c3.4-0.2,6.9,0.8,11.2,2C-798.3,131.2-795.4,134-792,137.1z M-809.1,120.3l6.5-5.9c4.7,6.4,9.6,12.7,14.7,18.8l-3.7,3.4
		C-797.6,130.4-803.6,125-809.1,120.3z M-787.2,132.7l1.6-1.5c-1.9-3.7-3.2-7.1-3.4-9.6c-0.2-2.6,0.5-4.2,1.8-5.4
		c1-0.6,2-0.9,2.9-0.9c0.9-0.1,1.6,0.1,2.6,0.5c0.8,0.4,1.4,0.9,1.8,1.5c0.9,0.8,1,1,3.2,1.6c1.4,0.4,2.7,0.4,3.7,0.1
		c-1-0.9-1.8-1.9-2.5-2.9c-0.6-0.8-1-1.6-1.5-2.6c-1.6-3.6-2.7-7.3-4.8-9.8c-0.5-0.5-1.3-1.2-2-1.6c-1.8-1-4-1.6-5.7-1
		c-0.8,0-1.9,0.5-3.7,2.8c-1.6,1.8-2.8,4.1-3.3,7c-0.5,3.4,0.1,7,1,11.5C-792.7,126-790.3,129.1-787.2,132.7z M-812.6,114
		c2-1.8,5.3-5.3,7.9-7c0.8-0.4,1.3-0.4,1.5-0.1c0.4,0.2,1.3,1.2,1.6,1.8c0.1,0.4,0.1,0.5-0.1,1c-0.5,0.6-1.4,1.5-2,2.2
		c-1.8,1.6-4.1,3.9-6,5.6c-1.3,1.2-2.6,2.3-3.6,2.9c-0.9,0.6-1.3,0.8-1.6,0.4c-0.6-0.5-1-1-1.4-1.4c-0.5-0.5-0.5-1,0.1-1.6
		C-815.7,116.9-813.3,114.6-812.6,114z"/>
	<path class="st6" d="M-788.2,145.2l2.2-2c0.6,0.8,1.4,1.6,2,4.1c0.6,2,1,4.3,2.6,6.1c0.1,0.8-0.9,2.2-2.3,2.5
		c-1.3,0.4-2.5-0.1-5.4-1.4c-2.2-1-4.3-0.8-5.3,0.6c-0.5-1.5-0.2-2.5,1-2.9c1.4-0.5,2.9-0.4,4.7-1c1.3-0.5,1.5-1,1.6-2.6
		C-786.8,147.2-787.2,146-788.2,145.2z M-802.1,113c-0.2,0.2-0.5,0.5-1.2,1c-1.8,1.8-5.3,4.8-6.7,6.1c-0.2,0.2-0.5,0.5-0.6,0.5
		c-0.9,0.5-1.4,0.1-1.6-0.2c0.1-0.1,0.6-0.6,1.9-1.5c1.3-1.3,3.2-3,5.9-5.6c0.8-0.6,1.4-1.3,2.2-1.9c0.1,0.1,0.2,0.2,0.2,0.5
		C-801.5,112.3-801.7,112.6-802.1,113z M-816.2,114.6c0.2-0.2,0.6-0.5,1.2-1c1.9-1.8,5.4-4.8,6.8-6.3c0.2-0.2,0.5-0.4,0.6-0.5
		c0.9-0.5,1.3,0,1.6,0.4c-0.1,0.1-0.6,0.6-1.9,1.5c-1.3,1.3-3.2,3-5.9,5.6c-0.8,0.5-1.4,1.3-2.2,2c-0.1-0.2-0.2-0.4-0.4-0.5
		C-816.6,115.3-816.5,114.9-816.2,114.6z M-780.2,137l-8.3,7.7l-3.6-1.2l11.1-10.2L-780.2,137z M-787.2,132.7l1.8-1.4
		c-2-3.9-3.3-7.3-3.4-9.8c-0.2-2.3,0.4-4.1,1.6-5.1c1.5-1.2,3.3-1.3,4.7-0.8c1.2,0.4,2,1.2,2.6,1.8c0.6,0.8,1.4,1.3,2.9,1.8
		c1.4,0.4,2.8,0.4,4,0.1l-0.1-0.1c-1-0.1-1.9-0.5-2.8-1s-1.8-1.2-2.6-1.9c-1.3-1.5-2.7-3.2-4.1-4.8c-0.6-0.8-1.5-2-2.3-2.3
		c-0.8-0.4-1.6-0.2-2.3-0.1c-1.5,0.4-3,1.4-4.3,4.6c-0.6,2-1.4,4.4-0.5,8.7C-791.7,124.4-789.8,128.7-787.2,132.7z M-792,137.1
		l-1.8,1.6c-3.6-2.3-6.8-3.9-9.4-4.2c-2.3-0.4-4.1,0.1-5.3,1.3c-1.3,1.4-1.4,3.2-1,4.6c0.1,1.3,0.9,2,1.5,2.6
		c0.6,0.8,1.2,1.6,1.4,3.2c0.2,1.6,0.1,3-0.2,4.1l-0.1-0.2c0-1-0.2-2-0.6-2.9c-0.4-0.9-0.9-1.8-1.6-2.6c-1.4-1.5-2.9-3-4.4-4.4
		c-0.8-0.8-1.9-1.8-2.2-2.6c-0.2-0.8-0.1-1.6,0.1-2.3c0.5-1.4,1.5-2.9,5-4c2-0.5,4.4-1,8.7,0.1C-800,132-795.9,134.2-792,137.1z
		 M-780,137.6l-2.2,1.9c0.8,0.6,1.6,1.5,4,2.3c2,0.8,4.2,1.4,5.9,3c0.9,0.2,2.5-0.6,2.8-1.9c0.4-1.2,0-2.5-1-5.6
		c-0.8-2.2-0.5-4.2,1-5.1c-1.4-0.5-2.5-0.4-2.9,0.9c-0.8,1.4-0.8,2.8-1.5,4.6c-0.6,1.2-1.2,1.4-2.7,1.4
		C-777.9,139.1-778.9,138.5-780,137.6z"/>
	<path class="st7" d="M-756.8,43.7c-3,1-7,0.2-8.7,4.2c-0.6,1.4-1,2.5-2,3.9c-0.2,0.5-0.6,0.9-1.5,1.3c-2.5,1.4-7.3,3-7.7,5.7
		c-0.4,2.8,0.4,5.6,2.7,7.3c-0.4-1.3-0.4-4.2,1.5-6.5c0.4-0.6,1-0.2,1,0.1c-0.2,1-0.2,3.7,0.8,5.1c0.1-3.9,2.3-7.7,5-9.5
		c0.6-0.4,0.9,0.2,0.6,0.5c-0.2,0.8-0.5,1.4-0.8,2c-0.5,2.3-0.4,4.4,0.5,6.8c0.4-1.9,1.5-3.7,4.2-5.5c0.8-0.5,1,0.2,0.6,0.6
		c-1,2.2-1.9,5.3-0.8,6.8c2.3-0.5,2-2.5,2.6-4.4c0.4-1.3,0.4-1.3,2.2-4.2c0.8-2,0.2-3.2-0.1-6c-0.4,0.6-1.6,4-5.4,4.4
		c-0.9,0.1-1.5-0.1-0.9-0.9c1-1.5,1.9-2.6,2.5-4.3C-760.1,48-758.5,46.2-756.8,43.7z M-814.3,43.7c-3.2,1-7.1,0.2-8.7,4.2
		c-0.6,1.4-1,2.5-2,3.9c-0.4,0.5-0.6,0.9-1.5,1.3c-2.5,1.4-7.3,3-7.8,5.7c-0.2,2.8,0.4,5.6,2.7,7.3c-0.4-1.3-0.4-4.2,1.6-6.5
		c0.4-0.6,0.9-0.2,0.9,0.1c-0.1,1-0.1,3.7,0.9,5.1c0-3.9,2.3-7.7,4.8-9.5c0.6-0.4,0.9,0.2,0.6,0.5c-0.2,0.8-0.5,1.4-0.6,2
		c-0.6,2.3-0.5,4.4,0.4,6.8c0.5-1.9,1.5-3.7,4.3-5.5c0.6-0.5,0.9,0.2,0.6,0.6c-1.2,2.2-1.9,5.3-0.9,6.8c2.5-0.5,2-2.5,2.7-4.4
		c0.2-1.3,0.4-1.3,2-4.2c0.8-2,0.2-3.2-0.1-6c-0.4,0.6-1.5,4-5.4,4.4c-0.8,0.1-1.4-0.1-0.9-0.9c1-1.5,2-2.6,2.5-4.3
		C-817.8,48-816.1,46.2-814.3,43.7z M-785.9,43.7c-3,1-7,0.2-8.7,4.2c-0.6,1.4-1,2.5-2,3.9c-0.2,0.5-0.6,0.9-1.5,1.3
		c-2.5,1.4-7.3,3-7.7,5.7c-0.4,2.8,0.4,5.6,2.7,7.3c-0.4-1.3-0.4-4.2,1.5-6.5c0.4-0.6,1-0.2,0.9,0.1c-0.1,1-0.1,3.7,0.9,5.1
		c0.1-3.9,2.3-7.7,5-9.5c0.6-0.4,0.9,0.2,0.6,0.5c-0.2,0.8-0.5,1.4-0.8,2c-0.5,2.3-0.4,4.4,0.5,6.8c0.4-1.9,1.5-3.7,4.2-5.5
		c0.8-0.5,1,0.2,0.6,0.6c-1,2.2-1.9,5.3-0.8,6.8c2.3-0.5,2-2.5,2.6-4.4c0.4-1.3,0.4-1.3,2.2-4.2c0.8-2,0.2-3.2-0.2-6
		c-0.2,0.6-1.5,4-5.3,4.4c-0.9,0.1-1.5-0.1-0.9-0.9c1-1.5,1.9-2.6,2.3-4.3C-789.2,48-787.6,46.2-785.9,43.7z"/>
	<path class="st5" d="M-836.8,174l0.1,3.2l-0.2-0.2c-0.1-0.6-0.2-1.2-0.4-1.5c-0.2-0.4-0.4-0.6-0.8-0.9c-0.2-0.4-0.5-0.5-0.9-0.6
		c-0.4,0-0.6,0-0.8,0.2c-0.2,0.1-0.2,0.4-0.2,0.8c0,0.2,0.1,0.5,0.2,0.8c0.2,0.4,0.8,0.9,1.5,1.6c0.8,0.6,1.2,1,1.4,1.4
		c0.2,0.2,0.5,0.6,0.6,0.9c0.1,0.4,0.2,0.8,0.2,1.2c0.1,0.6-0.1,1.2-0.5,1.5c-0.4,0.4-0.8,0.5-1.4,0.4c-0.2-0.1-0.5-0.2-0.6-0.2
		c-0.1-0.1-0.4-0.2-0.8-0.5c-0.2-0.1-0.5-0.2-0.6-0.4c0,0-0.1,0-0.1,0.1c0,0,0,0.1,0,0.4l-0.4-0.1l-0.1-3l0.2,0.1
		c0.1,0.6,0.2,1.2,0.4,1.5c0.2,0.2,0.5,0.6,0.8,0.9c0.4,0.2,0.6,0.5,1,0.5c0.4,0.1,0.8,0.1,0.9-0.1c0.2-0.1,0.4-0.4,0.4-0.8
		c-0.1-0.2-0.1-0.5-0.2-0.8c-0.1-0.1-0.2-0.4-0.5-0.6c-0.1-0.2-0.5-0.5-1.2-1.2c-0.5-0.6-1-1-1.3-1.4c-0.2-0.2-0.5-0.6-0.6-0.9
		c-0.1-0.4-0.2-0.8-0.2-1.2c-0.1-0.6,0.1-1.2,0.5-1.4c0.4-0.4,0.8-0.5,1.4-0.2c0.4,0,0.8,0.2,1.2,0.6c0.2,0.1,0.4,0.2,0.4,0.2
		c0.1,0,0.1,0,0.2,0c0-0.1,0-0.2,0.1-0.4L-836.8,174C-836.8,173.9-836.8,174-836.8,174z M-802.4,171.3l0.1,3h-0.4
		c0-0.5-0.1-1-0.2-1.3c-0.2-0.4-0.5-0.6-0.8-0.8c-0.4-0.1-0.6-0.2-1-0.2c-0.4,0.1-0.6,0.2-0.9,0.5c-0.2,0.2-0.2,0.6-0.2,0.9
		c0,0.2,0,0.5,0.1,0.8c0.2,0.2,0.8,0.6,1.6,1c0.6,0.4,1.2,0.8,1.4,0.9c0.2,0.2,0.5,0.5,0.6,0.9c0.1,0.2,0.2,0.6,0.2,0.9
		c0,0.8-0.2,1.3-0.6,1.8c-0.5,0.5-1,0.9-1.8,0.9c-0.1,0-0.4,0-0.5,0c-0.1,0-0.4,0-0.8-0.1s-0.6-0.1-0.6-0.1c-0.1,0-0.1,0-0.2,0.1
		c0,0,0,0.1-0.1,0.4h-0.2v-3h0.2c0.1,0.6,0.2,1,0.4,1.4c0.2,0.2,0.4,0.5,0.8,0.6c0.2,0.1,0.6,0.2,1,0.2c0.5-0.1,0.9-0.2,1.2-0.5
		c0.2-0.4,0.4-0.6,0.4-1c0-0.2-0.1-0.4-0.2-0.6c0-0.2-0.2-0.4-0.4-0.5c-0.1-0.1-0.6-0.4-1.3-0.8c-0.6-0.4-1-0.6-1.3-0.9
		c-0.2-0.2-0.5-0.5-0.6-0.8c-0.1-0.3-0.2-0.6-0.2-1c0-0.6,0.2-1.2,0.6-1.6c0.4-0.5,0.9-0.8,1.5-0.8c0.4-0.1,0.9,0,1.3,0.2
		c0.2,0,0.4,0,0.4,0c0.1,0,0.2,0,0.2,0c0.1-0.1,0.1-0.2,0.1-0.5L-802.4,171.3L-802.4,171.3z M-791.8,176.2l-0.1,2.6
		c0,0.5,0,0.9,0.1,1c0.1,0.1,0.2,0.2,0.5,0.2h0.4v0.4l-3.2-0.2l-2.6,0.1v-0.4c0.2,0,0.5,0,0.5-0.1c0.1-0.1,0.2-0.2,0.2-0.4
		c-0.1-0.1-0.1-0.4-0.2-0.9l-0.5-1.2h-2.8l-0.5,1.4c-0.1,0.2-0.1,0.5-0.1,0.8c0,0.1,0,0.1,0.1,0.2c0.1,0.1,0.4,0.1,0.8,0.1v0.4h-2.5
		v-0.2c0.2-0.1,0.5-0.1,0.6-0.2c0.1-0.2,0.2-0.6,0.5-1.3l2.6-7.1h0.2l2.7,7.1c0.2,0.6,0.4,0.9,0.6,1.2c0.1,0.1,0.4,0.2,0.6,0.2
		s0.4-0.1,0.5-0.2c0.1-0.1,0.1-0.5,0.1-0.9l0.1-5.7c0.1-0.5,0-0.8,0-0.9c-0.2-0.2-0.4-0.4-0.6-0.4h-0.4l0.1-0.2l2.7,0.1
		c0.6,0,1.2,0.1,1.5,0.2c0.4,0.2,0.8,0.5,1,0.9s0.4,0.9,0.4,1.4c0,0.8-0.2,1.3-0.6,1.8c-0.5,0.4-1,0.5-1.8,0.5c-0.1,0-0.4,0-0.6,0
		C-791.4,176.3-791.7,176.3-791.8,176.2z M-785.4,180.4l-0.1,0.4l-3.2-0.2v-0.4h0.4c0.2,0.1,0.4,0,0.6-0.1c0-0.1,0.1-0.5,0.1-1
		l0.6-5.6c0-0.5,0-0.8,0-0.9s-0.1-0.1-0.1-0.2c-0.2-0.1-0.4-0.1-0.5-0.2h-0.4l0.1-0.4l3.2,0.4v0.2h-0.3c-0.2,0-0.5,0.1-0.6,0.2
		c0,0.1-0.1,0.4-0.1,1l-0.6,5.6c0,0.4,0,0.8,0,0.9c0,0.1,0.1,0.1,0.2,0.2c0,0,0.1,0,0.1,0.1c0.1,0,0.1,0,0.2,0H-785.4z M-781.5,173
		l-0.2,3.3l1.5,0.2c0.4,0.1,0.6,0.1,0.8,0c0.2-0.2,0.4-0.5,0.5-1h0.2l-0.4,3h-0.2c0-0.4,0-0.8,0-0.9c-0.1-0.1-0.1-0.2-0.4-0.4
		c-0.1-0.1-0.2-0.1-0.6-0.2l-1.5-0.2l-0.2,3c-0.1,0.4-0.1,0.5-0.1,0.6s0.1,0.1,0.1,0.2c0.1,0,0.2,0,0.4,0.1l1.3,0.2
		c0.4,0,0.6,0,0.9,0s0.4-0.4,0.6-0.5c0.2-0.2,0.5-0.5,0.8-1h0.2l-0.9,2.2l-5.7-0.9l0.1-0.4l0.2,0.1c0.2,0,0.4,0,0.5,0
		c0.1-0.1,0.1-0.1,0.2-0.2c0-0.1,0-0.4,0.1-0.9l0.6-5.7c0-0.6,0-0.9-0.1-1c0-0.2-0.2-0.4-0.5-0.4h-0.2v-0.4l5.7,1.2l-0.1,1.9h-0.4
		c0-0.5,0-0.9-0.1-1c0-0.2-0.1-0.4-0.2-0.5c-0.2,0-0.5-0.1-0.8-0.1L-781.5,173z M-763.5,183.8l0.1-0.4h0.2c0.2-0.1,0.5-0.1,0.6-0.4
		c0.1-0.1,0.2-0.5,0.2-1l0.6-5.9c0.1-0.5,0.1-0.8,0-0.9c0-0.1,0-0.2-0.1-0.2c-0.1-0.1-0.2-0.1-0.5-0.1h-0.2v-0.4l3.3-0.1v0.2
		l-0.4,0.1c-0.2,0-0.5,0.1-0.6,0.2c-0.1,0.1-0.1,0.5-0.2,1l-0.6,6c0,0.4,0,0.6,0,0.8c0,0.1,0.1,0.2,0.1,0.2c0.2,0.1,0.4,0.1,0.5,0.1
		h0.2c0.4,0,0.6-0.1,0.8-0.2c0.1-0.2,0.4-0.8,0.5-1.2l1.8-7.3l0.1-0.4l4.1-1.3l0.4,2h-0.2c-0.1-0.4-0.2-0.8-0.4-0.9
		c-0.1-0.1-0.1-0.2-0.2-0.2c-0.1,0-0.4,0-0.6,0.1l-1.4,0.4l0.5,3.3l1.2-0.4c0.2,0,0.4-0.1,0.5-0.4c0.1-0.1,0.1-0.5,0.1-1l0.2-0.1
		l0.4,3l-0.2,0.1c-0.1-0.4-0.1-0.8-0.2-0.8c0-0.1-0.1-0.2-0.2-0.2c-0.1-0.1-0.2-0.1-0.5,0l-1.2,0.4l0.4,2.7c0.1,0.4,0.1,0.5,0.2,0.6
		v0.1c0.1,0,0.1,0,0.4,0l0.9-0.2c0.2-0.1,0.4-0.1,0.6-0.4c0.1,0,0.1-0.2,0.2-0.4c0.1-0.4,0.2-0.9,0.4-1.4l0.2-0.1l-0.1,2.5l-4.3,1.3
		v-0.2h0.2c0.1-0.1,0.2-0.1,0.2-0.2c0.1-0.1,0.1-0.1,0.1-0.4c0-0.1,0-0.4,0-0.8l-0.4-2.7l-1.6,0.5l-0.9,3c-0.1,0.4-0.1,0.6,0,0.8
		c0.1,0.1,0.5,0.1,0.9,0.1v0.2C-759.8,183.6-761.2,183.8-763.5,183.8z M-776.8,173.3l1.9,0.2l3.3,6.9l0.5-4.8c0.1-0.5,0.1-0.9,0-1
		c-0.1-0.1-0.2-0.2-0.5-0.2l-0.2-0.1v-0.2l2.5,0.2v0.4l-0.2-0.1c-0.2,0-0.5,0.1-0.6,0.2c-0.1,0.1-0.1,0.4-0.1,0.9l-0.9,7.4h-0.2
		l-3.7-7.4l-0.5,5.1c0,0.6,0,0.9,0,1c0.1,0.2,0.2,0.4,0.5,0.4h0.2v0.4l-2.5-0.4v-0.4h0.2c0.4,0.1,0.5,0,0.6-0.1
		c0.1-0.1,0.2-0.4,0.2-0.9l0.6-6c-0.1-0.4-0.2-0.5-0.4-0.6c-0.1-0.1-0.2-0.2-0.4-0.4c-0.1,0-0.2,0-0.5,0L-776.8,173.3z
		 M-762.8,174.4l-0.1,2.2h-0.2c0-0.4,0-0.6-0.1-0.8c-0.1-0.4-0.2-0.5-0.4-0.6c-0.1-0.1-0.4-0.1-0.8-0.1l-0.9-0.1l-0.4,6.9
		c-0.1,0.6,0,0.9,0,1c0.1,0.2,0.4,0.4,0.6,0.4h0.2v0.2l-3.2-0.1v-0.2h0.2c0.1,0,0.2,0,0.4,0c0.1-0.1,0.2-0.1,0.2-0.2
		c0.1-0.2,0.1-0.5,0.2-1l0.4-6.9h-0.9c-0.4,0-0.5,0-0.8,0c-0.1,0.1-0.2,0.2-0.5,0.5c-0.1,0.2-0.1,0.5-0.2,1l-0.2-0.1l0.2-2.2
		L-762.8,174.4z M-756.4,174.7l-0.5,1.6l-0.4,1.8l1.4-0.4l-0.4-2.3C-756.1,175-756.1,174.8-756.4,174.7z M-796.8,176.9l-1.3-3.4
		l-1.2,3.4H-796.8z M-791.8,175.8c0.1,0,0.2,0.1,0.4,0.1s0.2,0,0.4,0c0.4,0,0.8-0.1,1-0.4c0.2-0.4,0.4-0.8,0.4-1.4
		c0.1-0.4,0-0.6-0.1-1c-0.1-0.2-0.2-0.5-0.5-0.6c-0.2-0.2-0.5-0.2-0.8-0.4c-0.2,0-0.4,0.1-0.6,0.1L-791.8,175.8z M-811.3,172.8
		l0.4,3l-0.2,0.1c-0.1-0.6-0.4-1-0.5-1.4c-0.2-0.2-0.5-0.5-0.9-0.6c-0.2-0.1-0.6-0.1-0.9,0c-0.4,0-0.6,0.1-0.9,0.5
		c-0.1,0.4-0.2,0.6-0.2,1c0.1,0.2,0.1,0.4,0.4,0.6c0.3,0.2,0.8,0.5,1.6,0.9s1.3,0.5,1.5,0.8c0.2,0.1,0.5,0.4,0.8,0.6
		c0.1,0.4,0.2,0.6,0.2,1c0.1,0.6,0,1.3-0.4,1.9c-0.4,0.5-0.9,0.9-1.5,1c-0.2,0-0.5,0-0.6,0c-0.1,0-0.4,0-0.8,0
		c-0.4-0.1-0.5-0.1-0.6-0.1s-0.1,0.1-0.2,0.1c0,0.1,0,0.2,0,0.4l-0.2,0.1l-0.4-3h0.2c0.1,0.5,0.4,1,0.5,1.3c0.2,0.2,0.5,0.5,0.9,0.6
		c0.2,0.1,0.6,0.1,1,0.1c0.4-0.1,0.8-0.4,1-0.6c0.2-0.4,0.2-0.8,0.2-1.2c-0.1-0.1-0.1-0.4-0.2-0.5c-0.1-0.2-0.2-0.4-0.5-0.5
		c-0.1-0.1-0.6-0.2-1.3-0.6c-0.6-0.2-1.2-0.5-1.4-0.6c-0.4-0.2-0.5-0.5-0.8-0.8c-0.1-0.2-0.2-0.6-0.2-1c-0.1-0.5,0-1.2,0.4-1.6
		c0.2-0.5,0.8-0.9,1.4-1c0.4-0.1,0.9-0.1,1.3,0.1c0.2,0,0.4,0,0.5,0c0,0,0.1,0,0.1-0.1c0.1,0,0.1-0.2,0.1-0.4h0.2V172.8z
		 M-819.6,175l0.1,3.3l1.6-0.2c0.4,0,0.6-0.1,0.8-0.2c0.1-0.2,0.2-0.6,0.2-1.2h0.2l0.1,3h-0.2c0-0.4-0.1-0.6-0.1-0.8
		c-0.1-0.1-0.2-0.2-0.4-0.2c-0.1-0.1-0.4-0.1-0.6,0l-1.6,0.2l0.1,2.8c0.1,0.4,0.1,0.6,0.1,0.6c0,0.1,0.1,0.1,0.1,0.1
		c0.1,0.1,0.2,0.1,0.4,0l1.3-0.1c0.4-0.1,0.8-0.1,0.9-0.2c0.1-0.1,0.4-0.2,0.5-0.5c0.2-0.2,0.4-0.8,0.6-1.3l0.2-0.1l-0.5,2.5
		l-5.7,0.9v-0.2l0.2-0.1c0.1,0,0.4,0,0.5-0.1c0.1-0.1,0.1-0.2,0.1-0.4c0.1-0.1,0.1-0.4,0.1-0.8l-0.4-5.6c0-0.6,0-0.9-0.1-1
		c-0.1-0.1-0.2-0.2-0.6-0.1l0,0v-0.2l5.7-1l0.1,2h-0.2c-0.1-0.4-0.2-0.8-0.2-0.9c-0.1-0.1-0.2-0.2-0.5-0.4c-0.1,0-0.4,0-0.6,0.1
		L-819.6,175z M-828.7,184.7l-0.1-0.4h0.4c0.2-0.1,0.5-0.2,0.5-0.4c0.1-0.2,0.1-0.5,0.1-1l-0.4-5.6c0-0.5,0-0.8-0.1-0.9
		c-0.1-0.2-0.4-0.2-0.6-0.2l-0.2,0.1V176l2.9-0.4c1-0.2,1.8-0.1,2.3,0c0.6,0.2,1,0.8,1.4,1.4c0.4,0.6,0.6,1.4,0.6,2.3
		c0.1,1.2-0.1,2.3-0.8,3.2c-0.5,1-1.5,1.6-2.9,1.8L-828.7,184.7z M-826.6,183.8c0.4,0,0.8,0,1,0c0.8-0.1,1.4-0.6,1.9-1.4
		c0.4-0.8,0.6-1.6,0.5-2.8c0-1.2-0.4-2.2-0.9-2.7c-0.5-0.6-1.2-0.9-2-0.8c-0.2,0-0.6,0.1-1,0.4L-826.6,183.8z M-833.9,176l0.2,3.3
		l1.5,0.2c0.5,0,0.8,0,0.9-0.1c0.1-0.1,0.2-0.5,0.1-1h0.4l0.2,3.2h-0.4c0-0.5-0.1-0.8-0.1-0.9c-0.1-0.1-0.2-0.2-0.4-0.4
		c-0.1-0.1-0.4-0.1-0.6-0.2l-1.6-0.1l0.2,2.8c0,0.4,0,0.5,0,0.6c0.1,0.1,0.1,0.1,0.2,0.2c0,0,0.1,0,0.4,0l1.3,0.2c0.4,0,0.6,0,0.9,0
		c0.1,0,0.2-0.1,0.5-0.4c0.1-0.1,0.4-0.5,0.5-1h0.4l-0.5,2.2l-5.9-0.8v-0.4l0.2,0.1c0.2,0,0.4,0,0.5-0.1c0.1,0,0.1-0.1,0.1-0.2
		c0.1-0.1,0.1-0.4,0-0.8l-0.4-5.6c0-0.6,0-0.9-0.1-1c-0.1-0.2-0.4-0.4-0.6-0.4h-0.4v-0.4l5.9,0.8l0.2,2h-0.1c0-0.5-0.1-0.9-0.2-1
		c-0.1-0.1-0.2-0.2-0.4-0.4c-0.1-0.1-0.5-0.1-0.8-0.2L-833.9,176z"/>
</g>
<g>
	<g>
		
			<linearGradient id="SVGID_3_" gradientUnits="userSpaceOnUse" x1="0" y1="784.2766" x2="192.3" y2="784.2766" gradientTransform="matrix(1 0 0 1 0 -673.2766)">
			<stop  offset="0" style="stop-color:#7AC943;stop-opacity:0.1"/>
			<stop  offset="0.99" style="stop-color:#8CC63F"/>
		</linearGradient>
		<polygon class="st8" points="0,166.4 0,55.4 96.1,0 192.3,55.4 192.3,166.4 96.1,222 		"/>
		<g class="st9">
			
				<linearGradient id="SVGID_4_" gradientUnits="userSpaceOnUse" x1="7" y1="784.2766" x2="185.4" y2="784.2766" gradientTransform="matrix(1 0 0 1 0 -673.2766)">
				<stop  offset="0" style="stop-color:#FFFFFF"/>
				<stop  offset="0.99" style="stop-color:#8CC63F"/>
			</linearGradient>
			<path class="st10" d="M185.4,162.5L185.4,162.5L96.2,214l0,0L7,162.5v-103l0,0L96.1,8l0,0l89.2,51.5l0,0L185.4,162.5z"/>
			
				<linearGradient id="SVGID_5_" gradientUnits="userSpaceOnUse" x1="6.1001" y1="784.3266" x2="186.3805" y2="784.3266" gradientTransform="matrix(1 0 0 1 0 -673.2766)">
				<stop  offset="0" style="stop-color:#000000"/>
				<stop  offset="8.000000e-02" style="stop-color:#090909"/>
				<stop  offset="0.22" style="stop-color:#232323"/>
				<stop  offset="0.4" style="stop-color:#4D4D4D"/>
				<stop  offset="0.62" style="stop-color:#868686"/>
				<stop  offset="0.85" style="stop-color:#CFCFCF"/>
				<stop  offset="0.99" style="stop-color:#FFFFFF"/>
			</linearGradient>
			<path class="st11" d="M96.1,8L96.1,8l89.2,51.5l0,0v103L96.1,214l0,0L6.9,162.5v-103l0,0L96.1,8L96.1,8 M96.1,7.1h-0.2l-0.2,0.1
				L6.5,58.7l-0.4,0.2v104.2l0.4,0.3l89.2,51.5l0.2,0.1h0.5l0.2-0.1l89.2-51.5l0.4-0.2V59l-0.4-0.3L96.6,7.2l-0.2-0.1L96.1,7.1z"/>
		</g>
		<path class="st12" d="M53.2,39.9c0.1,0.7,3,0.7,3.1,0c-0.1,0.7-0.1,21.5,0,22.1c-0.1-0.7-3-0.7-3.1,0
			C53.3,61.2,53.3,40.5,53.2,39.9z M57.6,55.1c-0.4-0.8-1-1.4-1.6-2c0.2-0.3,0.4-3.4,0.2-3.3c0.2,0.5,0.4,1.1,0.3,1.8
			c0.4,0.2,0.9,0.7,1.1,1.1c0.5-0.1,1.2,0.1,1.6,0.3c0.9-0.2,1.6-0.5,2.4-1c0.4-0.8,0.8-1.8,0.9-2.6c-0.1-1.1-0.1-2.3,0-3.4
			c-0.1-1-0.3-1.9-0.9-2.6c-0.8-0.4-1.5-0.8-2.4-1c-0.5,0.3-1.1,0.4-1.6,0.3c-0.2,0.4-0.5,0.9-1,1.1c0,0.5-0.1,1.2-0.3,1.6
			c0.2,0.1,0-2.7-0.3-3.1c0.8-0.5,1.4-1.3,1.9-2.1c0.9,0,1.8-0.3,2.5-0.8c0.9,0.4,1.9,0.7,2.8,0.8c0.5,0.8,1.1,1.5,1.8,2.2
			c0.1,1.2,0.3,2.3,0.7,3.5c-0.3,0.1-0.3,3.3,0,3.4c-0.3,1.1-0.4,2.3-0.7,3.4c-0.7,0.7-1.3,1.4-1.9,2.2c-1,0.1-2,0.3-3,0.8
			C59.3,55.4,58.4,55.2,57.6,55.1z"/>
		<path class="st12" d="M72.7,51.7c0,0,0.1,0.2,0.2,0.9c0.1-0.2,0.3-0.1,0.7,0.3c-0.1-0.4,1.3-0.4,1.4,0c-0.1-0.4-0.1,2.3,0,3
			c-0.1-0.7-1.9-0.7-1.9,0c-0.9-0.5-1.8-0.9-2.7-1.1c-0.4-1-0.8-2-1-3.1c0.1-0.4,0.1-17.3,0-17.9c0.1,0.7,3.1,0.7,3.1,0
			C72.7,34.4,72.7,51.3,72.7,51.7z"/>
		<path class="st12" d="M78.3,33.9c1,0.1,2.1,0.1,3.1,0c-0.1,1-0.1,2.1,0,3.1c-1-0.1-2.1-0.1-3.1,0C78.4,36,78.4,35,78.3,33.9z
			 M78.3,39.9c0.1,0.4,3,0.4,3.1,0c-0.1,0.4-0.1,15.2,0,15.7c-0.1-0.4-3-0.4-3.1,0C78.4,55.2,78.4,40.4,78.3,39.9z"/>
		<path class="st12" d="M85.8,39.9c0.1,0.4,3,0.4,3.1,0c-0.1,0.4-0.1,15.2,0,15.7c-0.1-0.4-3-0.4-3.1,0C86,55.2,86,40.4,85.8,39.9z
			 M95.1,46.1c-0.1-0.9-0.3-1.8-0.8-2.6c-0.8-0.4-1.5-0.8-2.3-1l-2.3,0.8c-0.3,0.8-0.5,1.4-0.9,2.3c0.2,0.1,0-2.7-0.3-3.1
			c0.8-0.7,1.4-1.3,1.9-2.2c0.9-0.1,1.8-0.3,2.6-0.8c0.9,0.4,1.9,0.7,2.8,0.8c0.5,0.8,1.1,1.5,1.8,2.2c0.1,1.2,0.3,2.3,0.7,3.5
			c-0.3,0.1-0.3,9.1,0,9.5c-0.3-0.4-3.2-0.4-3.1,0C94.9,55.2,94.9,46.2,95.1,46.1z M104.1,46.1c-0.1-0.9-0.4-1.8-0.9-2.6
			c-0.8-0.4-1.5-0.8-2.4-1c-0.9,0.3-1.5,0.5-2.2,0.9c-0.3,0.8-0.5,1.5-0.8,2.5c0.2,0.1-0.3-2.7-0.7-3.1c0.8-0.7,1.4-1.5,2-2.4
			c1-0.1,1.9-0.4,2.7-0.9c0.9,0.4,1.9,0.7,2.8,0.8c0.5,0.8,1.2,1.5,1.9,2.2c0.1,1.2,0.3,2.3,0.7,3.5c-0.3,0.1-0.3,9.1,0,9.5
			c-0.3-0.4-3.2-0.4-3.1,0C104,55.2,104,46.2,104.1,46.1z"/>
		<path class="st12" d="M112.3,54.6c-0.8-1.1-1.2-2.3-1.4-3.6c0.2-1.2,0.7-2.4,1.3-3.5c1.2-0.5,2.6-1,3.9-1.2c0,0.2,4.2,0.2,4.5,0
			c-0.3,0.2-0.1,2.6,0.2,2.5c-1.5,0.1-3.1,0.1-4.6,0c-0.7,0.1-1.2,0.2-1.9,0.5c-0.3,0.5-0.5,1.1-0.5,1.6c0.1,0.7,0.3,1.3,0.8,1.8
			c0.8,0.3,1.5,0.5,2.4,0.5c1.1-0.1,1.9-0.2,2.6-0.4c0.3-0.3,0.7-0.8,0.9-1.2c-0.2,0,0,2.1,0.3,2.2c-0.4,0.2-0.9,0.5-1,1.1
			c-0.5,0-1,0.2-1.4,0.7c-0.5-0.1-1.2-0.1-1.8,0.2C115.1,55.5,113.7,55.2,112.3,54.6z M120.4,45.7c-0.2-0.9-0.4-1.6-0.9-2.4
			c-0.8-0.3-1.5-0.7-2.3-0.9c-0.5,0.3-1.2,0.4-1.9,0.3c-0.4,0.4-1,0.8-1.6,0.8c-0.8-0.4-1.5-1-2.3-1.5c0.9-0.3,1.8-0.9,2.3-1.6
			c1.1,0.1,2.2-0.1,3.3-0.5c1.1,0.4,2.2,0.7,3.4,0.7c0.5,0.8,1.3,1.4,2.1,2c0.1,1.1,0.4,2.1,0.8,3.2c-0.3,0.1-0.3,9.6,0,10.1
			c-0.3-0.4-3.1-0.4-3,0C120.3,52.4,120.3,49,120.4,45.7z"/>
		<path class="st12" d="M127.7,39.9c0.1,0.4,3,0.4,3.1,0c-0.1,0.4-0.1,15.2,0,15.7c-0.1-0.4-3-0.4-3.1,0
			C127.7,55.2,127.7,40.4,127.7,39.9z M137,46.1c-0.1-0.9-0.4-1.8-0.9-2.6c-0.8-0.4-1.5-0.8-2.4-1l-2.3,0.8
			c-0.3,0.8-0.5,1.4-0.9,2.3c0.2,0.1,0-2.7-0.3-3.1c0.8-0.7,1.4-1.3,1.9-2.2c0.9-0.1,1.8-0.3,2.6-0.8c1.4,0.3,2.7,0.9,3.9,1.6
			c0.7,1.5,1.2,3.1,1.4,4.7c-0.3,0.1-0.3,9.1,0,9.5c-0.3-0.4-3.2-0.4-3.1,0C136.9,55.2,136.9,46.2,137,46.1z"/>
		<g id="path3513">
			
				<linearGradient id="SVGID_6_" gradientUnits="userSpaceOnUse" x1="-1145.5065" y1="302.1877" x2="-1145.0079" y2="302.291" gradientTransform="matrix(457.96 56.37 35.42 -287.73 513905.7813 151637.2969)">
				<stop  offset="0" style="stop-color:#009245"/>
				<stop  offset="0.13" style="stop-color:#1A9241"/>
				<stop  offset="0.42" style="stop-color:#5D9236"/>
				<stop  offset="0.82" style="stop-color:#C79326"/>
				<stop  offset="1" style="stop-color:#F7931E"/>
			</linearGradient>
			<path class="st13" d="M181,96C63.2,45.7,18.7,95.1,50,125.9C48.1,160.1,114.7,186.6,181,96z"/>
			<path class="st14" d="M180.9,96l-5.2-2.1l-5.3-2.1l-5.4-2l-5.4-1.9c-7.1-2.5-14.4-4.7-21.7-6.6c-7.3-2-14.8-3.5-22.2-4.6
				c-3.7-0.5-7.6-1-11.3-1.3c-3.7-0.3-7.6-0.4-11.3-0.4c-7.6-0.1-15.1,0.8-22.5,2.4c-7.2,1.8-14.5,4.6-20.2,9.4
				c-2.8,2.3-5.3,5.2-7,8.4s-2.5,6.9-2.4,10.6s1.1,7.3,2.8,10.5c0.9,1.6,1.9,3.2,3,4.7c1.1,1.4,2.4,2.8,3.7,4.2
				c0.1,0.1,0.2,0.3,0.2,0.5c-0.2,7,2.3,13.8,7.1,18.9c0.5,0.7,1.2,1.3,1.9,1.9c0.7,0.7,1.3,1.2,2,1.6c0.7,0.5,1.4,1.1,2.1,1.5
				l2.2,1.3l0.5,0.3l0.5,0.3l1.2,0.5c0.8,0.4,1.5,0.8,2.4,1.1l2.4,1c0.9,0.2,1.6,0.4,2.5,0.8c6.8,1.8,13.9,2.2,20.8,1.2
				c7-1,13.8-2.8,20.3-5.6c3.3-1.3,6.5-3,9.5-4.6l4.6-2.6c1.5-0.9,3-1.9,4.5-2.8l2.2-1.4l2.1-1.5c1.4-1.1,2.8-2.1,4.3-3.2
				c2.7-2.3,5.6-4.4,8.1-6.9c1.3-1.2,2.6-2.4,3.9-3.6l3.7-3.7l1.9-1.9l1.9-2l3.6-3.9c1.2-1.3,2.3-2.6,3.5-4.1l3.5-4.1L180.9,96z
				 M181.1,96c-2.1,2.8-4.2,5.8-6.4,8.7l-3.4,4.2c-1.1,1.4-2.2,2.8-3.4,4.2l-3.5,4.1l-1.8,2l-1.9,1.9l-3.7,3.8
				c-1.3,1.3-2.6,2.4-3.9,3.7c-2.5,2.5-5.4,4.7-8.1,7.1c-1.4,1.1-2.8,2.2-4.3,3.3l-2.1,1.6l-2.2,1.5c-1.5,1-3,2.1-4.5,3l-4.6,2.7
				c-3.2,1.6-6.4,3.4-9.6,4.7c-6.6,2.8-13.6,4.8-20.8,5.8c-7.2,1-14.6,0.5-21.6-1.2c-7.1-1.8-13.6-5.6-18.6-11
				c-5-5.5-7.8-12.7-7.3-20.2l0.2,0.5c-1.4-1.3-2.6-2.8-3.8-4.4c-1.2-1.5-2.2-3.2-3.1-4.9c-1.9-3.5-2.8-7.3-3-11.2
				c-0.1-3.9,0.9-7.8,2.7-11.3c1.9-3.4,4.4-6.5,7.5-8.9c6-4.9,13.4-7.8,20.7-9.5c7.5-1.6,15.1-2.4,22.7-2.3c3.7,0,7.6,0.2,11.4,0.5
				s7.6,0.8,11.3,1.4c7.5,1.2,14.9,2.8,22.2,4.8c7.3,2,14.6,4.3,21.7,6.8l5.4,2l5.3,2.1l5.3,2.2L181.1,96z"/>
		</g>
		<path class="st14" d="M46.2,125.9c1.6-2.6,3.8-4.7,6.6-6.2c2.4-1.4,5-2.7,7.7-3.8c5.2-2.2,10.5-4.1,16-5.5
			c5.5-1.3,10.8-2.6,16.3-3.7s11.1-1.8,16.5-2.4c5.6-0.8,11.2-0.9,16.8-0.5s11.1,1.2,16.7,1.5c2.7,0.2,5.5,0,8.2-0.3
			c2.7-0.4,5.5-0.9,8.2-1.2c1.4-0.2,2.7-0.3,4.2-0.7c1.3-0.3,2.7-0.7,3.9-1.1c1.3-0.3,2.6-1,3.6-2l3.2-2.6l-3.2,2.7l-0.8,0.7
			c-0.3,0.2-0.7,0.4-1,0.5c-0.7,0.3-1.3,0.5-2,0.8c-1.3,0.5-2.6,0.9-3.9,1.3c-1.3,0.3-2.7,0.5-4.2,0.8c-2.7,0.4-5.5,1-8.2,1.4
			c-2.7,0.5-5.6,0.7-8.4,0.5c-5.6-0.1-11.2-0.9-16.7-1.1s-11.1,0.1-16.5,1c-5.5,0.8-11,1.6-16.4,2.8c-5.4,1.2-10.8,2.6-16.1,4.1
			c-2.6,0.8-5.3,1.5-7.9,2.5c-2.5,1-5.2,2-7.7,3.2c-2.5,1.1-4.8,2.4-7.1,3.8c-1.1,0.7-2.2,1.4-3.1,2.3c-0.4,0.4-0.9,0.9-1.2,1.4
			l-1,1.5L46.2,125.9z"/>
		<path class="st14" d="M60.2,117.2c1.4-0.3,3-0.2,4.4,0.1c1.3,0.3,2.6,0.8,3.8,1.2c1.3,0.4,2.5,1,3.7,1.5s2.4,1.2,3.5,1.9
			c4.7,2.4,9.2,5.3,13.6,8.3c2.2,1.5,4.3,3.2,6.1,5c1.9,1.9,3.6,3.8,5.6,5.6c1.9,1.8,4.2,3.1,6.4,4.6l1.6,1.1c0.5,0.3,1.2,0.7,1.8,1
			c1.2,0.7,2.5,0.5,3.8,0.8c-1.3,0-2.6-0.2-3.8-0.7c-0.7-0.2-1.2-0.5-1.8-0.9l-1.6-1l-3.4-2.1c-1.1-0.7-2.2-1.5-3.2-2.4
			c-2-1.8-3.7-3.7-5.7-5.5s-4.1-3.4-6.2-4.8c-4.4-3-8.9-5.6-13.7-7.8c-1.2-0.5-2.3-1.2-3.5-1.6s-2.4-1-3.6-1.4s-2.4-0.8-3.7-1.1
			c-1.1-0.3-2.3-0.3-3.5-0.1c-0.5,0.1-1-0.2-1.1-0.8C59.4,118,59.8,117.5,60.2,117.2L60.2,117.2z"/>
		<path class="st14" d="M81.8,109.9c1.2-0.3,2.5-0.3,3.7,0c1.1,0.2,2.3,0.5,3.4,1c2.2,0.8,4.3,1.8,6.2,2.8c4.1,2.1,8,4.4,11.7,7
			c1.9,1.3,3.7,2.7,5.4,4.3c1.6,1.6,3.2,3.3,4.8,4.8c1.8,1.5,3.5,2.8,5.5,3.9l1.4,1c0.4,0.3,1,0.5,1.5,0.8c1.1,0.4,2.2,0.5,3.3,0.5
			c-1.1,0.1-2.3-0.1-3.4-0.4c-0.5-0.2-1.1-0.4-1.5-0.8l-1.4-0.9c-2-1.1-3.9-2.4-5.6-3.8c-1.8-1.5-3.3-3.2-4.9-4.7s-3.5-2.8-5.4-4.2
			c-3.7-2.5-7.7-4.7-11.8-6.7c-2-1-4.1-1.9-6.2-2.6c-1.1-0.3-2.1-0.7-3.2-0.9c-1-0.2-2.1-0.2-3.1,0c-0.3,0.1-0.8-0.1-0.9-0.4
			C81.2,110.3,81.5,110,81.8,109.9L81.8,109.9z"/>
		<path class="st14" d="M110.4,104.4c0.9-0.2,1.9-0.3,2.7-0.2c0.9,0.1,1.8,0.3,2.5,0.5c0.9,0.2,1.6,0.5,2.4,0.9
			c0.4,0.1,0.8,0.3,1.2,0.5l1.1,0.5c3.1,1.5,5.9,3.4,8.7,5.5c1.4,1,2.6,2.2,3.7,3.5s2,2.7,3.1,4.1c1.1,1.3,2.6,2.1,3.9,3.2
			c0.7,0.5,1.4,1,2.2,1.2c0.4,0.1,0.8,0.2,1.2,0.2h1.3h-1.2c-0.4,0-0.9,0-1.3-0.2c-0.8-0.3-1.5-0.7-2.3-1.2c-1.3-1-3-1.8-4.1-3.1
			c-1.1-1.3-2.1-2.7-3.2-3.9s-2.4-2.4-3.7-3.3c-2.7-2-5.6-3.7-8.7-5.2c-1.5-0.8-3.1-1.4-4.7-1.8s-3.3-0.8-4.7-0.2
			c-0.2,0.1-0.5,0-0.5-0.3C110,104.7,110.1,104.5,110.4,104.4L110.4,104.4L110.4,104.4L110.4,104.4z"/>
		<path class="st14" d="M136.9,104.9c0.4-0.1,0.8-0.1,1.2,0c0.3,0.1,0.8,0.2,1.1,0.3c0.7,0.2,1.4,0.7,2,1.1c1.2,0.9,2.4,1.9,3.4,3
			c0.5,0.5,1,1.2,1.3,1.9c0.3,0.7,0.4,1.4,0.8,2.1c0.3,0.7,0.9,1.2,1.4,1.6c0.2,0.3,0.5,0.5,0.9,0.7c0.3,0.1,0.8,0.1,1.1,0.2
			c-0.3,0-0.8,0-1.1-0.1c-0.3-0.1-0.7-0.3-1-0.7l-0.8-0.8c-0.3-0.2-0.5-0.5-0.7-0.9c-0.3-0.7-0.5-1.4-0.9-2.1
			c-0.3-0.7-0.8-1.2-1.3-1.8c-1-1.1-2.2-2-3.4-2.7c-0.7-0.4-1.2-0.7-2-1c-0.7-0.2-1.3-0.3-2-0.2c-0.2,0-0.4-0.1-0.4-0.2l0,0
			C136.5,105.2,136.7,105,136.9,104.9L136.9,104.9z"/>
		<path class="st14" d="M71.1,112.5c0.7-0.1,1.3-0.4,1.9-0.8c0.7-0.4,1.2-0.9,1.8-1.3c1.1-1,2.1-2.1,3-3.4s1.6-2.6,2.3-3.9
			c0.7-1.3,1.3-2.7,1.8-4.3c0.5-1.4,0.9-2.8,1-4.4c0-1.5-0.3-3.1-0.2-4.7c0-0.4,0-0.8,0.1-1.2c0.1-0.4,0.2-0.8,0.4-1.1
			c0.3-0.8,0.5-1.4,0.9-2.2c0.3-0.8,0.8-1.4,1.3-2c0.3-0.2,0.7-0.4,1-0.5l1-0.5l-1,0.5c-0.3,0.2-0.7,0.4-1,0.7
			c-0.5,0.5-0.9,1.2-1.1,2s-0.4,1.5-0.8,2.2c-0.3,0.7-0.4,1.4-0.3,2.2c0,1.5,0.4,3.1,0.5,4.6c0,1.6-0.2,3.2-0.8,4.7
			c-0.4,1.5-1,3.1-1.6,4.5c-0.7,1.4-1.4,2.8-2.2,4.2c-0.9,1.3-1.9,2.6-3.1,3.7c-0.5,0.5-1.2,1.1-1.9,1.6c-0.8,0.4-1.5,0.9-2.4,1.1
			c-0.5,0.1-1-0.1-1.2-0.7C70.2,113.2,70.4,112.6,71.1,112.5C70.9,112.5,70.9,112.5,71.1,112.5L71.1,112.5L71.1,112.5z"/>
		<path class="st14" d="M96.7,106.1c2-0.2,3.7-1.5,5.3-3c0.8-0.8,1.4-1.5,2.1-2.4s1.2-1.8,1.6-2.7c0.5-0.9,0.9-2,1-3
			c0-1-0.3-2.1-0.3-3.2c0-0.3,0-0.5,0.1-0.9c0.1-0.2,0.2-0.5,0.3-0.8c0.2-0.4,0.4-1,0.8-1.4c0.3-0.4,0.7-0.9,1.1-1.1
			c0.5-0.2,1-0.4,1.5-0.5c-0.4,0.2-1,0.4-1.4,0.7c-0.4,0.3-0.8,0.7-1.1,1.1c-0.2,0.4-0.4,1-0.7,1.5c-0.2,0.4-0.4,1-0.3,1.5
			c0,1.1,0.4,2.1,0.4,3.3c0,1.1-0.3,2.2-0.8,3.3c-0.4,1-0.9,2.1-1.5,3c-0.5,1-1.3,1.9-2,2.6c-0.8,0.8-1.6,1.5-2.5,2.2
			c-1,0.7-2.1,1.1-3.2,1.3l0,0c-0.3,0.1-0.8-0.2-0.8-0.5l0,0C96,106.5,96.3,106.1,96.7,106.1L96.7,106.1L96.7,106.1z"/>
		<path class="st14" d="M121.6,103.8c1,0.1,2,0,2.8-0.3c1-0.3,1.9-0.8,2.7-1.3c1.6-1.1,3.2-2.4,4.5-3.9c0.7-0.8,1.2-1.6,1.5-2.5
			c0.3-1,0.3-2,0.5-3c0.1-0.5,0.4-1,0.8-1.3c0.3-0.3,0.7-0.8,1-1.2c0.3-0.3,0.8-0.7,1.3-0.8s1-0.1,1.5-0.2c-0.5,0.1-1,0.1-1.5,0.2
			c-0.4,0.2-0.9,0.4-1.2,0.9c-0.3,0.4-0.7,0.8-1,1.2c-0.3,0.3-0.7,0.8-0.8,1.3c-0.2,1-0.2,2-0.4,3.1c-0.3,1-0.9,1.9-1.5,2.7
			c-1.3,1.6-2.7,3.1-4.5,4.3c-0.9,0.5-1.9,1-2.8,1.4c-1,0.4-2.1,0.5-3.2,0.5l0,0c-0.2,0-0.3-0.2-0.3-0.4
			C121.1,103.9,121.2,103.7,121.6,103.8L121.6,103.8z"/>
		<path class="st14" d="M53.2,120.2c0.7-0.2,1.2-0.5,1.6-1.1c0.5-0.5,1-1.1,1.4-1.8c0.4-0.7,0.9-1.3,1.3-2c0.2-0.3,0.4-0.7,0.5-1
			l0.4-1.1c1.4-2.8,2.4-5.9,3.2-9c0.4-1.5,0.7-3.1,0.8-4.7c0-1.5-0.1-3.2-0.1-4.8c0-0.9,0.1-1.6,0.4-2.4c0.2-0.8,0.4-1.5,0.7-2.3
			c0.2-0.8,0.5-1.5,1-2.3c0.2-0.3,0.4-0.7,0.9-1l1-0.8l-1,0.8c-0.3,0.2-0.5,0.5-0.8,1c-0.3,0.7-0.7,1.4-0.8,2.3
			c-0.3,1.6-1,3.1-0.9,4.7s0.2,3.2,0.3,4.8c0,1.6-0.1,3.3-0.5,4.9c-0.7,3.2-1.5,6.4-2.8,9.3l-0.4,1.1c-0.2,0.4-0.3,0.8-0.5,1.1
			c-0.4,0.8-0.8,1.4-1.2,2.2c-0.4,0.8-1,1.4-1.5,2.1c-0.7,0.7-1.4,1.2-2.3,1.6c-0.4,0.2-1,0-1.2-0.5
			C52.5,120.9,52.7,120.3,53.2,120.2L53.2,120.2L53.2,120.2z"/>
		<path class="st14" d="M51.3,123.9c0.9-0.2,1.9-0.2,2.7-0.1c0.9,0.1,1.8,0.3,2.5,0.7c1.6,0.5,3.2,1.3,4.6,2.2
			c1.4,1,2.8,1.9,4.2,2.8c1.3,1,2.6,2.2,3.7,3.4c1.2,1.2,2.3,2.5,3.1,3.9c0.8,1.5,1.2,3.1,2,4.5c0.3,0.8,0.9,1.3,1.5,1.9
			c0.7,0.5,1.2,1.1,1.8,1.8c0.5,0.5,1.3,1,2.1,1.3c0.3,0.1,0.8,0.2,1.2,0.2l1.2,0.1h-1.2c-0.4,0-0.9,0-1.2-0.1
			c-0.8-0.2-1.5-0.7-2.2-1.2c-0.5-0.5-1.2-1.1-1.9-1.6c-0.7-0.5-1.2-1.1-1.6-1.9c-0.9-1.4-1.4-3.1-2.2-4.4c-0.9-1.3-1.9-2.6-3.2-3.6
			c-1.2-1.1-2.4-2.2-3.7-3.1c-1.3-1-2.7-1.8-4.2-2.6c-1.4-0.8-2.8-1.4-4.4-1.9c-0.8-0.2-1.5-0.3-2.3-0.4s-1.4,0-2.1,0.2l0,0
			c-0.5,0.1-1-0.2-1.1-0.7l0,0C50.6,124.6,50.9,124,51.3,123.9L51.3,123.9z"/>
		<path id="path3511" class="st14" d="M49.6,123.2c-1.5,0.3-3.1,0.7-4.5,1.1c-4.8,1.6-8.7,2.8-10.8,3.5
			c-14.2,4.5-19.1,5.7-22.6,10.3c-1.3,1.8-2.3,3.7-2.8,5.8c0,0.4,0.2,1,0.5,1.3c1.2,1.1,4.2-0.1,6-1.5c0.7-0.5,1.3-1.2,1.9-1.9
			c2-2.5,4.2-3.9,8.4-6.6c2.8-2,6-3.6,9.4-4.7c2.7-1,5.6-1.6,8.4-1.9c1.9-0.1,4.6-0.2,6.6-1.9c1-0.8,1.1-1.4,1-1.8
			C51.2,124.1,50.4,122.9,49.6,123.2z"/>
		<path class="st14" d="M151.2,105.1c0.4,0,0.9-0.1,1.3-0.4c0.4-0.2,0.8-0.5,1.2-0.9c0.3-0.3,0.8-0.7,1-1c0.3-0.3,0.7-0.7,1-1.1
			c0.3-0.3,0.5-0.8,0.8-1.2c0.2-0.4,0.3-1,0.5-1.3c0.2-0.4,0.5-0.9,0.9-1.2c0.3-0.4,0.8-0.7,1.2-0.8c-0.4,0.1-0.9,0.3-1.2,0.8
			c-0.3,0.3-0.7,0.8-0.9,1.2c-0.2,0.4-0.3,1-0.4,1.3c-0.2,0.4-0.4,0.9-0.8,1.3c-0.3,0.4-0.7,0.8-1,1.1c-0.3,0.3-0.7,0.8-1,1.1
			s-0.8,0.7-1.2,0.9c-0.4,0.3-0.9,0.4-1.4,0.4C151.1,105.3,151.1,105.2,151.2,105.1C150.9,105.2,151.1,105.1,151.2,105.1
			L151.2,105.1z"/>
		<g class="st15">
			<path class="st16" d="M143.4,100.3L143.4,100.3c-1-0.4-1.4,0.2-1.2,1.1c-0.8-0.4-1.6-0.8-2.5-0.8c-0.2-1-0.1-1.3-1-1.4
				c0.2-0.1-0.2,0-1.2,0l0,0c1,0,0.2-0.4-1.2-1.1c1.3,0,2.1-0.3,1.2-1.1c1.1,0.7,1.6,0.4,1.5-0.1c0.4,0.8,0.7,1,0.7,0.7
				c0.5,1,0.5,1,0.7,0.7c0.2,0.5,0.7,0.4,1.3,0c0.1,0.1,0.1-0.4,1.3-1.3c-0.5,0.8,0,1.2,1.3,1.3c-1.3,0.7-1.5,0.7-0.7,1.3
				C142.5,99.5,142.4,99.9,143.4,100.3z"/>
			<path class="st17" d="M143.4,100.3L143.4,100.3c-1-0.4-1.4,0.2-1.2,1.1c-0.8-0.4-1.6-0.8-2.5-0.8c-0.2-1-0.1-1.3-1-1.4
				c0.2-0.1-0.2,0-1.2,0l0,0c1,0,0.2-0.4-1.2-1.1c1.3,0,2.1-0.3,1.2-1.1c1.1,0.7,1.6,0.4,1.5-0.1c0.4,0.8,0.7,1,0.7,0.7
				c0.5,1,0.5,1,0.7,0.7c0.2,0.5,0.7,0.4,1.3,0c0.1,0.1,0.1-0.4,1.3-1.3c-0.5,0.8,0,1.2,1.3,1.3c-1.3,0.7-1.5,0.7-0.7,1.3
				C142.5,99.5,142.4,99.9,143.4,100.3z"/>
		</g>
		<g class="st18">
			<path class="st19" d="M156.9,107.3c-0.5,1.2-0.2,1.5,0,1.1c-0.5,0.8-0.9,0.5-1.1,0c-0.5,0.8-0.7,1.2-1.1,1.1c-0.7,1-2.1,0-3.4,0
				c0.8,0.8,2.1,2.8,3.4,3.3c0.7-0.4,1.3-0.8,1.8,0c-0.2-0.3-0.4-0.1,0,1.1c-0.2-0.4,0.1,0.1,1.1,1.1c-0.1-1.1,0.2-1.8,1.1-1.1
				c-1-0.8-1-0.8,0,0c-0.9-0.9-0.5-1.4,0.1-1.4c-1.1-0.7-1.4-0.9-0.7-0.7c-0.8-0.2-0.9-0.2-0.1-0.1c-0.8-0.2-0.8-0.2,0,0
				c-1-0.4-0.8-1,0-1.1c-0.8,0.1-0.8,0.1,0,0c-0.5-0.3-0.3-1,0.8-1.9c-0.7,0-0.5-0.3,0.3-1.4C157.8,107.7,156.6,107.7,156.9,107.3z"
				/>
			<path class="st17" d="M156.9,107.3c-0.5,1.2-0.2,1.5,0,1.1c-0.5,0.8-0.9,0.5-1.1,0c-0.5,0.8-0.7,1.2-1.1,1.1c-0.7,1-2.1,0-3.4,0
				c0.8,0.8,2.1,2.8,3.4,3.3c0.7-0.4,1.3-0.8,1.8,0c-0.2-0.3-0.4-0.1,0,1.1c-0.2-0.4,0.1,0.1,1.1,1.1c-0.1-1.1,0.2-1.8,1.1-1.1
				c-1-0.8-1-0.8,0,0c-0.9-0.9-0.5-1.4,0.1-1.4c-1.1-0.7-1.4-0.9-0.7-0.7c-0.8-0.2-0.9-0.2-0.1-0.1c-0.8-0.2-0.8-0.2,0,0
				c-1-0.4-0.8-1,0-1.1c-0.8,0.1-0.8,0.1,0,0c-0.5-0.3-0.3-1,0.8-1.9c-0.7,0-0.5-0.3,0.3-1.4C157.8,107.7,156.6,107.7,156.9,107.3z"
				/>
		</g>
		<g class="st20">
			<path class="st21" d="M155.1,101c1.4-0.1,1.4,0,0.2,1c1.5-0.4,2-0.2,1.3,1c2.3-0.7,2.2-2.4,5.6-2.6c1-0.7,1-0.2,2.8-0.1
				c1.1-1,1.6-2.3,3.2-2.6c-1.2-0.4-1-1.4,0.4-3.2c-1.5,0.8-1.8,0.1-1.1-1.1c-1.6,1-1.9,1-1.1,0c-2.5,1.1-3.1,0.9-3.3-0.1
				c-0.4,1.1-0.7,1.1-1.1,0.5c-0.9,1.4-1,1.5-1.3,1c-0.5,1-1.4,1-2.6,0.1c-0.4,0.2,0.1-0.5-1.6-1.6c0.2,0.9-0.8,2-2.1,2.2
				c1.5,1.1,1.9,1.2,0.4,2.1c1.4,0.1,1.4,0.1,0,1.2C156.4,100.5,156.4,100.3,155.1,101z"/>
			<path class="st22" d="M155.1,101h0.7h0.3c0.1,0,0.2,0.1,0.2,0.2c-0.1,0.2-0.2,0.3-0.4,0.4l-0.4,0.4l0,0c0.4-0.1,0.9-0.2,1.3-0.2
				c0.1,0,0.2,0.1,0.3,0.2c0,0.1,0,0.2,0,0.3c-0.1,0.2-0.1,0.4-0.3,0.7v-0.1c0.5-0.1,1-0.4,1.4-0.7c0.4-0.3,0.8-0.7,1.2-1
				c0.9-0.5,2-0.9,3.1-1l0,0c0.2-0.1,0.4-0.2,0.7-0.3c0.2,0,0.5,0,0.8,0c0.4,0.1,1,0.2,1.4,0.2h-0.2c0.5-0.4,1-1,1.4-1.5
				s1.1-1,1.8-1.1v0.1c-0.3-0.1-0.7-0.3-0.8-0.7c-0.1-0.3,0-0.7,0.1-1c0.3-0.5,0.7-1.1,1.1-1.6l0.1,0.1c-0.2,0.1-0.4,0.2-0.7,0.2
				c-0.2,0.1-0.5,0.1-0.8-0.1c-0.1-0.2-0.2-0.5-0.1-0.8c0.1-0.2,0.2-0.4,0.3-0.7l0.1,0.1c-0.3,0.2-0.8,0.4-1.1,0.7
				c-0.1,0.1-0.2,0.1-0.3,0.1h-0.1c0,0,0-0.1-0.1-0.1c0,0,0,0,0-0.1s0-0.1,0.1-0.2c0.1-0.2,0.2-0.3,0.3-0.5l0.1,0.1
				c-0.5,0.2-1.2,0.4-1.9,0.7c-0.3,0.1-0.7,0.1-1,0s-0.5-0.4-0.7-0.8h0.1c-0.1,0.3-0.2,0.5-0.4,0.8c0,0.1-0.1,0.1-0.2,0.1
				s-0.2,0-0.2,0c-0.1-0.1-0.2-0.2-0.3-0.3h0.1c-0.2,0.3-0.3,0.7-0.5,1c-0.1,0.1-0.2,0.3-0.4,0.4c-0.1,0-0.2,0-0.3-0.1
				c-0.1-0.1-0.1-0.1-0.2-0.2h0.1c-0.1,0.2-0.3,0.4-0.5,0.7c-0.2,0.1-0.5,0.2-0.8,0.2c-0.5-0.1-1-0.3-1.4-0.7h0.1
				c-0.1,0-0.1,0-0.2,0s-0.1-0.1-0.1-0.1c0-0.1-0.1-0.2-0.1-0.2c-0.1-0.2-0.2-0.3-0.3-0.4c-0.3-0.3-0.5-0.5-1-0.8l0.1-0.1
				c0.1,0.3,0,0.5-0.1,0.9c-0.1,0.2-0.3,0.4-0.5,0.7c-0.4,0.3-1,0.7-1.5,0.8v-0.1l0.7,0.4c0.2,0.1,0.4,0.3,0.5,0.5
				c0.1,0.1,0.1,0.2,0.1,0.4c-0.1,0.1-0.1,0.2-0.2,0.3c-0.2,0.2-0.4,0.3-0.7,0.4v-0.1l0.7,0.1c0.1,0,0.2,0,0.3,0.1
				c0,0,0.1,0,0.1,0.1s0,0.1-0.1,0.2c-0.3,0.3-0.7,0.5-1,0.8l0,0c0.3,0.4,0.8,0.8,1.1,1.2c0.1,0.1,0.1,0.2,0.1,0.4
				c-0.1,0.1-0.2,0.2-0.3,0.3C155.5,100.8,155.3,100.9,155.1,101z M155.1,101c0.2-0.1,0.4-0.2,0.7-0.4c0.1-0.1,0.2-0.1,0.3-0.3
				c0-0.1,0-0.2-0.1-0.3c-0.3-0.4-0.8-0.8-1.1-1.2l0,0l0,0c0.3-0.2,0.7-0.5,1-0.8c0.2-0.2-0.2-0.2-0.3-0.2l-0.7-0.1h-0.1l0.1-0.1
				c0.2-0.1,0.4-0.3,0.7-0.4c0.1-0.1,0.2-0.2,0.2-0.3s0-0.2-0.1-0.3c-0.2-0.2-0.3-0.3-0.5-0.5l-0.7-0.4l-0.1-0.1h0.1
				c0.5-0.1,1.1-0.3,1.5-0.8c0.4-0.3,0.7-0.9,0.5-1.4v-0.1l0.1,0.1c0.3,0.2,0.7,0.4,1,0.8c0.1,0.1,0.2,0.3,0.3,0.5
				c0.1,0.1,0.1,0.4,0.2,0.3l0,0l0,0c0.4,0.3,0.9,0.5,1.4,0.7c0.2,0,0.5,0,0.7-0.1s0.3-0.3,0.4-0.5l0.1-0.1l0.1,0.1
				c0.1,0.1,0.2,0.3,0.3,0.3c0.1,0,0.2-0.2,0.3-0.3c0.2-0.3,0.3-0.7,0.5-1L162,94l0.1,0.1c0.1,0.1,0.2,0.2,0.3,0.2
				c0.1,0.1,0.2,0,0.2-0.1c0.1-0.2,0.2-0.4,0.3-0.8l0.1-0.2l0.1,0.2c0,0.3,0.2,0.5,0.5,0.7c0.3,0.1,0.7,0.1,1,0
				c0.7-0.1,1.2-0.3,1.8-0.7l0.3-0.1l-0.2,0.2c-0.1,0.1-0.2,0.3-0.3,0.5v0.1l0,0l0,0l0,0c0.1,0,0.2-0.1,0.2-0.1
				c0.3-0.2,0.8-0.4,1.1-0.5l0.2-0.1l-0.1,0.3c-0.1,0.2-0.2,0.4-0.2,0.7c-0.1,0.2-0.1,0.4,0,0.5s0.3,0.1,0.5,0s0.4-0.1,0.7-0.2
				l0.3-0.1l-0.2,0.2c-0.4,0.5-0.8,1.1-1,1.6c-0.1,0.2-0.2,0.5-0.1,0.9s0.3,0.4,0.7,0.5l0.2,0.1l-0.2,0.1c-0.7,0.2-1.3,0.5-1.8,1.1
				s-1,1.1-1.4,1.5l0,0l0,0c-0.4-0.1-1-0.1-1.4-0.2c-0.2,0-0.4,0-0.7,0c-0.2,0.1-0.4,0.2-0.7,0.3l0,0c-1.1,0-2.1,0.3-3,1
				c-0.4,0.3-0.8,0.7-1.3,1c-0.4,0.3-0.9,0.5-1.4,0.7h-0.1v-0.3c0.1-0.2,0.2-0.4,0.2-0.5c0.1-0.2,0-0.3-0.2-0.4h-0.1
				c-0.4,0-0.9,0-1.3,0.2l0,0l0.4-0.4c0.2-0.1,0.3-0.2,0.4-0.4c0.1-0.1-0.1-0.2-0.1-0.2h-0.3L155.1,101z"/>
		</g>
		<path class="st12" d="M51,172.3c0,0.2,1,0.2,1,0c0,0.2,0,6.7,0,6.9c0-0.2-1-0.2-1,0C51,178.9,51,172.5,51,172.3z M51.4,175.5
			c0.8-0.1,1.4-0.1,2.2,0c0.2-0.1,0.3-0.1,0.5-0.1c0.1-0.1,0.2-0.3,0.3-0.4c0-0.2,0.1-0.4,0.1-0.7c-0.1-0.2-0.1-0.4-0.1-0.7
			c-0.1-0.1-0.2-0.2-0.3-0.4c-0.2,0-0.3-0.1-0.5-0.1c-0.8,0.1-1.4,0.1-2.2,0c0.1,0.1,0.1-0.8,0-1c0.8,0.1,1.4,0.1,2.2,0
			c0.3,0.1,0.8,0.2,1.1,0.2c0.2,0.2,0.4,0.5,0.8,0.8c0,0.3,0.1,0.8,0.2,1.1c-0.1,0.3-0.2,0.8-0.2,1.1c-0.2,0.2-0.5,0.4-0.8,0.8
			c-0.3,0.1-0.8,0.1-1.1,0.2c-0.8-0.1-1.4-0.1-2.2,0C51.5,176.4,51.5,175.5,51.4,175.5L51.4,175.5z"/>
		<path class="st12" d="M56.7,172.3c0,0.2,1,0.2,1,0c0,0.2,0,6.7,0,6.9c0-0.2-1-0.2-1,0C56.8,178.9,56.8,172.5,56.7,172.3z
			 M57.1,178.1c0.1,0,3.8,0,3.9,0c-0.1,0-0.1,0.9,0,1c-0.1,0-3.8,0-3.9,0C57.2,179.1,57.2,178.2,57.1,178.1z"/>
		<path class="st12" d="M62.2,178.7c-0.2-0.3-0.4-0.8-0.4-1.1c0.1-0.4,0.2-0.8,0.4-1.1c0.4-0.2,0.8-0.3,1.2-0.3c0.4,0.1,1,0.1,1.4,0
			c-0.1,0.1,0,0.8,0.1,0.8c-0.4,0-1,0-1.4,0c-0.2,0-0.4,0.1-0.5,0.2c-0.1,0.1-0.1,0.3-0.2,0.5c0,0.2,0.1,0.4,0.2,0.5
			c0.2,0.1,0.5,0.1,0.8,0.2c0.3,0,0.5-0.1,0.9-0.1c0.1-0.1,0.2-0.2,0.2-0.3c-0.1,0,0,0.7,0.1,0.7c-0.1,0.1-0.2,0.2-0.3,0.3
			c-0.2,0-0.3,0.1-0.4,0.2c-0.2,0-0.3,0-0.5,0.1C63.1,179.1,62.6,178.9,62.2,178.7z M64.8,176c-0.1-0.2-0.1-0.5-0.2-0.8
			c-0.2-0.1-0.4-0.2-0.8-0.2c-0.2,0.1-0.3,0.1-0.5,0.1c-0.1,0.1-0.3,0.2-0.5,0.2c-0.2-0.1-0.4-0.3-0.7-0.4c0.3-0.1,0.5-0.3,0.8-0.5
			c0.3,0,0.7,0,1-0.2c0.3,0.1,0.7,0.2,1.1,0.2c0.2,0.2,0.4,0.4,0.7,0.7c0,0.3,0.1,0.7,0.2,1c-0.1,1.1-0.1,2.1,0,3.2
			c-0.1-0.1-1-0.1-1,0C64.7,178.1,64.7,177,64.8,176z"/>
		<path class="st12" d="M67,174.2c0,0.1,1,0.1,1,0c0,0.1,0,4.8,0,4.9c0-0.1-1-0.1-1,0C67.1,178.9,67.1,174.3,67,174.2z M70,176.1
			c0-0.3-0.1-0.5-0.2-0.8c-0.2-0.1-0.4-0.2-0.8-0.3l-0.8,0.2c-0.1,0.2-0.2,0.4-0.2,0.7c0.1,0,0-0.9-0.1-1c0.2-0.2,0.4-0.4,0.5-0.7
			c0.3,0,0.5-0.1,0.8-0.2c0.4,0.1,0.9,0.3,1.2,0.5c0.2,0.4,0.3,1,0.4,1.4c-0.1,1-0.1,2,0,3c-0.1-0.1-1-0.1-1,0
			C70,178.9,70,176.1,70,176.1L70,176.1z"/>
		<path class="st12" d="M71.9,174.2c0.1,0,2.2,0,2.2,0c-0.1,0.3-0.1,0.5,0,0.9c-0.1,0-2.2,0-2.2,0C71.9,174.8,71.9,174.6,71.9,174.2
			z M72.7,178.8c-0.1-0.3-0.2-0.7-0.2-1c0-0.1,0-4.8,0-5c0,0.2,1,0.2,1,0v5c0,0.1,0,0.2,0.1,0.3c0-0.1,0.1,0,0.2,0.1
			c0-0.1,0.4-0.1,0.4,0c0,0.3,0,0.7,0,1c0-0.2-0.5-0.2-0.5,0C73.2,179.1,72.9,178.9,72.7,178.8L72.7,178.8z"/>
		<path class="st12" d="M78.9,179.2c0-0.2-1-0.2-1,0c0-0.2,0-6.7,0-6.9c0,0.2,1,0.2,1,0C78.9,172.5,78.9,178.9,78.9,179.2z"/>
		<path class="st12" d="M85.4,172.3c-0.1,0.2,0.8,0.2,1,0c-0.2,2.3-0.2,4.6,0,6.9c-0.2-0.2-1.1-0.2-1,0c-0.1-1.8-0.1-3.4,0-5.2
			c-0.1,0.1-0.1,0.4,0,0.3c-0.7,1.3-1.2,2.5-1.6,3.8c0-0.1-0.7-0.1-0.7,0c-0.5-1.3-1.1-2.5-1.6-3.7c0.1,0.1,0.2-0.3,0-0.4
			c0.1,1.8,0.1,3.4,0,5.2c0.1-0.2-0.8-0.2-1,0c0.2-2.3,0.2-4.6,0-6.9c0.2,0.2,1,0.2,1,0c0.1,0.2,2,4.5,2,4.5S85.3,172.5,85.4,172.3z
			"/>
		<path class="st12" d="M87.9,178.7c-0.2-0.3-0.4-0.8-0.4-1.1c0.1-0.4,0.2-0.8,0.4-1.1c0.4-0.2,0.8-0.3,1.2-0.3c0.4,0.1,1,0.1,1.4,0
			c-0.1,0.1,0,0.8,0.1,0.8c-0.4,0-1,0-1.4,0c-0.2,0-0.4,0.1-0.5,0.2c-0.1,0.1-0.1,0.3-0.2,0.5c0,0.2,0.1,0.4,0.2,0.5
			c0.2,0.1,0.5,0.1,0.8,0.2c0.3,0,0.5-0.1,0.8-0.1c0.1-0.1,0.2-0.2,0.2-0.3c-0.1,0,0,0.7,0.1,0.7c-0.1,0.1-0.2,0.2-0.3,0.3
			c-0.2,0-0.3,0.1-0.4,0.2c-0.2,0-0.3,0-0.5,0.1C88.9,179.1,88.4,178.9,87.9,178.7z M90.6,176c-0.1-0.2-0.1-0.5-0.2-0.8
			c-0.2-0.1-0.4-0.2-0.8-0.2c-0.2,0.1-0.3,0.1-0.5,0.1c-0.1,0.1-0.3,0.2-0.5,0.2c-0.2-0.1-0.4-0.3-0.7-0.4c0.3-0.1,0.5-0.3,0.8-0.5
			c0.3,0,0.7,0,1-0.2c0.3,0.1,0.7,0.2,1.1,0.2c0.2,0.2,0.4,0.4,0.7,0.7c0,0.3,0.1,0.7,0.2,1c-0.1,1.1-0.1,2.1,0,3.2
			c-0.1-0.1-1-0.1-1,0C90.4,178.1,90.4,177,90.6,176z"/>
		<path class="st12" d="M93.4,178.9c-0.1-0.2-0.3-0.4-0.5-0.7c0-0.3-0.1-0.8-0.2-1.1c0.1-0.3,0.1-0.8,0-1.1c0.1-0.3,0.1-0.8,0.2-1.1
			c0.2-0.2,0.4-0.4,0.5-0.7c0.3,0,0.7-0.1,1-0.2c0.2,0.1,0.5,0.2,0.8,0.2c0.1,0.2,0.3,0.4,0.5,0.7c-0.1,0.3-0.1,0.7-0.1,1
			c-0.1-0.2-0.1-0.3-0.1-0.5c-0.1-0.1-0.2-0.2-0.3-0.3c-0.2,0-0.3,0-0.5-0.1c-0.2,0.1-0.5,0.2-0.8,0.3c-0.1,0.2-0.2,0.5-0.2,0.9
			s0,0.8,0,1.1s0.1,0.5,0.2,0.9c0.2,0.1,0.4,0.2,0.8,0.3c0.1-0.1,0.3-0.1,0.5-0.1c0.1-0.1,0.2-0.2,0.3-0.3c0-0.2,0-0.3,0.1-0.5
			c-0.1,0.3,0,0.7,0.1,1c-0.2,0.2-0.3,0.3-0.4,0.7c-0.3,0-0.5,0.1-0.8,0.2C94.1,179.1,93.7,178.9,93.4,178.9z M93.8,181
			c0-0.2-0.1-0.2-0.4-0.2c-0.1-0.2-0.4-0.4-0.7-0.5c0.1-0.1,0.8-0.8,0.7-0.5c0.2,0,0.3,0.2,0.4,0.4c0.2-0.1,0.4,0,0.5,0.1
			c0.3-0.1,0.5-0.2,0.9-0.3c0.1-0.3,0.2-0.5,0.3-0.9c-0.1-0.1-0.1-4.7,0-4.9c-0.1,0.2,0.9,0.2,1,0c-0.1,1.5-0.1,3.2,0,4.7
			c-0.1,0.3-0.2,0.8-0.2,1.2c-0.3,0.2-0.5,0.4-0.8,0.8c-0.4,0-0.8,0.1-1.1,0.2C94.1,180.8,93.8,180.8,93.8,181z"/>
		<path class="st12" d="M99.2,179.2c0-0.1-0.1-0.2-0.4-0.2c-0.2-0.2-0.4-0.5-0.8-0.8c0-0.4-0.1-0.8-0.2-1.2c0.1,0,0.1-0.5,0-0.5
			c0.1-0.4,0.2-0.9,0.2-1.2c0.2-0.2,0.4-0.5,0.7-0.8c0.3,0,0.8-0.1,1.1-0.2c0.3,0.1,0.7,0.2,1.1,0.3c0.2,0.3,0.4,0.7,0.7,0.9
			c0,0.4,0.1,1,0.2,1.4c-0.1,0-0.1,0.3,0,0.3c-0.1,0-3.3,0-3.3,0c0.1-0.2,0.1-0.5,0-0.8c0.1,0,2.3,0,2.4,0c-0.1-0.3-0.2-0.7-0.3-1
			c-0.2-0.1-0.4-0.2-0.8-0.3c-0.3,0.1-0.5,0.2-0.9,0.3c-0.1,0.3-0.2,0.7-0.3,1c0.1,0.2,0.1,0.4,0,0.7c0,0.3,0.1,0.7,0.3,1
			c0.3,0.1,0.7,0.2,1,0.3c0.2-0.1,0.3-0.1,0.5-0.1c0.1-0.1,0.3-0.2,0.5-0.3c-0.1-0.1,0.5,0.5,0.7,0.7c-0.3,0.1-0.5,0.3-0.8,0.5
			c-0.3,0-0.7,0-1,0.2C99.4,179.1,99.2,179.1,99.2,179.2z"/>
		<path class="st12" d="M107.3,172.3c0,0.2,0.8,0.2,0.8,0c0,0.2,2.4,6.7,2.5,6.9c-0.2-0.2-1.2-0.2-1.1,0c-0.1-0.2-1.9-5.5-1.9-5.6
			c0,0.1-1.8,5.4-1.9,5.6c0.1-0.2-0.9-0.2-1.1,0C105,178.9,107.3,172.5,107.3,172.3z M106,176.6c0.1,0,3.5,0,3.6,0
			c-0.1,0-0.1,0.9,0,1c-0.1,0-3.5,0-3.6,0C106.1,177.5,106.1,176.6,106,176.6z"/>
		<path class="st12" d="M111.6,172.3c0.1,0.2,1,0.2,0.9,0c0.1,0.2,3.3,5.2,3.4,5.3c-0.1-0.1-0.2,0-0.1,0.1c-0.1-1.9-0.1-3.6,0-5.5
			c-0.1,0.2,0.8,0.2,1,0c-0.1,2.3-0.1,4.6,0,6.9c-0.1-0.2-1-0.2-0.9,0c-0.1-0.2-3.3-5.2-3.4-5.3c0.1,0.1,0.2,0,0.1-0.1
			c0.1,1.8,0.1,3.6,0,5.4c0.1-0.2-0.8-0.2-1,0C111.7,176.9,111.7,174.6,111.6,172.3z"/>
		<path class="st12" d="M118.3,178.7c-0.2-0.3-0.4-0.8-0.4-1.1c0.1-0.4,0.2-0.8,0.4-1.1c0.4-0.2,0.8-0.3,1.2-0.3
			c0.4,0.1,1,0.1,1.4,0c-0.1,0.1,0,0.8,0.1,0.8c-0.4,0-1,0-1.4,0c-0.2,0-0.4,0.1-0.5,0.2c-0.1,0.1-0.1,0.3-0.2,0.5
			c0,0.2,0.1,0.4,0.2,0.5c0.2,0.1,0.5,0.1,0.8,0.2c0.3,0,0.5-0.1,0.9-0.1c0.1-0.1,0.2-0.2,0.2-0.3c-0.1,0,0,0.7,0.1,0.7
			c-0.1,0-0.2,0.2-0.3,0.3c-0.2,0-0.3,0.1-0.4,0.2c-0.2,0-0.3,0-0.5,0.1C119.2,179.1,118.7,178.9,118.3,178.7z M120.8,176
			c0-0.2-0.1-0.5-0.2-0.8c-0.2-0.1-0.4-0.2-0.8-0.2c-0.2,0.1-0.3,0.1-0.5,0.1c-0.1,0.1-0.3,0.2-0.5,0.2c-0.2-0.1-0.4-0.3-0.7-0.4
			c0.3-0.1,0.5-0.3,0.8-0.5c0.3,0,0.7,0,1-0.2c0.3,0.1,0.7,0.2,1.1,0.2c0.2,0.2,0.4,0.4,0.7,0.7c0,0.3,0.1,0.7,0.2,1
			c-0.1,1.1-0.1,2.1,0,3.2c-0.1-0.1-1-0.1-1,0C120.8,178.9,120.8,176,120.8,176z"/>
		<path class="st12" d="M124.1,177.8c0,0.1,0,0.2,0.1,0.3c0-0.1,0.1-0.1,0.2,0.1c0-0.1,0.4-0.1,0.4,0c-0.1-0.1-0.1,0.8,0,1
			c-0.1-0.2-0.5-0.2-0.5,0c-0.2-0.1-0.5-0.3-0.9-0.3c-0.1-0.3-0.2-0.7-0.3-1c0-0.1,0-5.4,0-5.6c0,0.2,1,0.2,1,0
			C124.1,172.5,124.1,177.7,124.1,177.8z"/>
		<path class="st12" d="M125.3,174.1c0.1,0.1,1,0.1,1,0c0,0.1,1.4,4.2,1.5,4.3c-0.1-0.1-0.5,0.9-0.5,1.1
			C127.3,179.4,125.4,174.3,125.3,174.1z M129.7,174.1c-0.1,0.2-2.1,5.9-2.1,6c-0.1,0.2-0.2,0.3-0.3,0.5c-0.1-0.1-0.2,0-0.4,0.3
			c-0.1-0.1-0.3-0.1-0.7,0.1c0.1-0.2-0.1-0.2-0.2,0c0.1-0.2,0.1-1.1,0-1c0.1-0.1,0.3-0.1,0.2,0c0.2-0.1,0.4-0.2,0.4-0.1
			c0.1-0.1,0.2-0.2,0.2-0.3c0.1-0.1,1.8-5.4,1.9-5.6C128.6,174.3,129.6,174.3,129.7,174.1L129.7,174.1z"/>
		<path class="st12" d="M131.7,179.2c0-0.1-0.1-0.2-0.3-0.1c-0.2-0.2-0.4-0.3-0.8-0.2c-0.1-0.2-0.3-0.4-0.7-0.4
			c0.2-0.2,0.4-0.4,0.5-0.7c0.3,0.1,0.5,0.2,0.8,0.4c0.2,0,0.5,0.1,0.8,0.1c0.3-0.1,0.5-0.1,0.9-0.2c0.1-0.2,0.2-0.3,0.3-0.5
			c0-0.1-0.1-0.2-0.1-0.3c-0.1-0.1-0.2-0.1-0.4-0.1c-0.2-0.1-0.4-0.1-0.7-0.1c0,0,0,0-0.1,0c0,0,0,0-0.1,0l0,0l0,0l0,0
			c-0.3,0-0.5-0.1-0.8-0.1c-0.2-0.1-0.4-0.2-0.5-0.3l-0.3-0.9c0.1-0.3,0.2-0.5,0.2-0.9c0.2-0.1,0.4-0.3,0.7-0.5c0.3,0,0.8,0,1.1-0.2
			c0.2,0.1,0.4,0.2,0.8,0.1c0.1,0.2,0.4,0.2,0.7,0.2c0.1,0.2,0.3,0.3,0.7,0.3c-0.2,0.2-0.4,0.4-0.5,0.7c-0.2-0.1-0.5-0.2-0.8-0.3
			c-0.2,0-0.4,0-0.7-0.1c-0.2,0.1-0.4,0.1-0.8,0.2c-0.1,0.1-0.2,0.3-0.2,0.5c0,0.1,0.1,0.2,0.1,0.3c0.1,0.1,0.2,0.1,0.3,0.1
			c0.2,0,0.4,0.1,0.5,0.1c0,0,0,0,0.1,0s0,0,0.1,0s0,0,0,0l0,0l0.9,0.1c0.2,0.1,0.4,0.2,0.7,0.4c0,0.2,0.1,0.4,0.2,0.9
			c-0.1,0.3-0.2,0.5-0.2,0.9c-0.2,0.1-0.5,0.3-0.7,0.5c-0.4,0-0.8,0-1.1,0.2C131.8,179.1,131.7,179.1,131.7,179.2z"/>
		<path class="st12" d="M135.3,172.4c0.3,0,0.7,0,1,0c0,0.3,0,0.7,0,1c-0.3,0-0.7,0-1,0C135.3,172.9,135.3,172.6,135.3,172.4z
			 M135.3,174.2c0,0.1,1,0.1,1,0c0,0.1,0,4.8,0,4.9c0-0.1-1-0.1-1,0C135.3,178.9,135.3,174.3,135.3,174.2L135.3,174.2z"/>
		<path class="st12" d="M138.9,179.2c0-0.1-0.1-0.2-0.4-0.1c-0.2-0.2-0.4-0.3-0.7-0.2c-0.1-0.2-0.3-0.4-0.7-0.4
			c0.2-0.2,0.4-0.4,0.5-0.7c0.3,0.1,0.5,0.2,0.8,0.4c0.2,0,0.5,0.1,0.8,0.1c0.3-0.1,0.5-0.1,0.9-0.2c0.1-0.2,0.2-0.3,0.3-0.5
			c0-0.1-0.1-0.2-0.1-0.3c-0.1-0.1-0.2-0.1-0.4-0.1c-0.2-0.1-0.4-0.1-0.7-0.1c0,0,0,0-0.1,0s0,0-0.1,0s0,0,0,0l0,0l-0.8-0.1
			c-0.2-0.1-0.3-0.2-0.5-0.3c0-0.2-0.1-0.4-0.2-0.8c0.1-0.3,0.2-0.5,0.2-0.9c0.2-0.1,0.4-0.3,0.7-0.5c0.3,0,0.8,0,1.1-0.2
			c0.2,0.1,0.4,0.2,0.8,0.1c0.2,0.2,0.4,0.2,0.7,0.2c0.1,0.2,0.3,0.3,0.7,0.3c-0.2,0.2-0.4,0.4-0.5,0.7c-0.2-0.1-0.5-0.2-0.8-0.3
			c-0.2,0-0.4,0-0.7-0.1c-0.2,0.1-0.4,0.1-0.8,0.2c-0.1,0.1-0.2,0.3-0.2,0.5s0.1,0.2,0.1,0.3c0.1,0.1,0.2,0.1,0.3,0.1
			c0.2,0,0.4,0.1,0.7,0.1c0,0,0,0,0.1,0s0,0,0.1,0s0,0,0,0l0,0l0.9,0.1c0.2,0.1,0.4,0.2,0.7,0.4c0,0.2,0.1,0.4,0.2,0.9
			c-0.1,0.3-0.2,0.5-0.2,0.9c-0.2,0.1-0.5,0.3-0.7,0.5c-0.4,0-0.8,0-1.1,0.2C139.1,179.1,138.9,179.1,138.9,179.2z"/>
	</g>
</g>
<image style="overflow:visible;" width="134" height="135" xlink:href="C70D6EDB.jpg"  transform="matrix(1.6381 0 0 1.6381 -667.5152 0.2914)">
</image>
<image style="overflow:visible;" width="176" height="176" xlink:href="C70D6ED9.jpg"  transform="matrix(1.2455 0 0 1.2455 -228.4713 2.9019)">
</image>
<g>
	<g>
		<defs>
			<polygon id="SVGID_7_" points="-444.4,0.4 -232.1,0.4 -232.1,223.2 -444.4,223.2 -444.4,0.4 			"/>
		</defs>
		<clipPath id="SVGID_8_">
			<use xlink:href="#SVGID_7_"  style="overflow:visible;"/>
		</clipPath>
		<g style="clip-path:url(#SVGID_8_);">
			
				<image style="overflow:visible;" width="238" height="250" xlink:href="C70D6EDF.png"  transform="matrix(0.8913 0 0 0.8913 -444.3752 0.43)">
			</image>
		</g>
	</g>
</g>
</svg>
